<svg xmlns="http://www.w3.org/2000/svg" xmlns:xlink="http://www.w3.org/1999/xlink" width="1822" height="28" fill="none" xmlns:v="https://vecta.io/nano"><g fill="#c6d2d9"><path d="M255.525 19.564c-2.173 0-4.191-.652-5.537-1.861-1.018-.913-1.507-2.154-1.507-3.431a4.61 4.61 0 0 1 1.506-3.419C251.238 9.714 253.446 9 255.525 9c2.301 0 4.143.58 5.55 1.857 1.002.909 1.486 2.152 1.486 3.416 0 1.224-.514 2.528-1.486 3.43-1.311 1.217-3.371 1.861-5.55 1.861V18.17c1.154 0 2.224-.398 2.972-1.142.742-.739 1.087-1.646 1.087-2.756 0-1.063-.373-2.057-1.087-2.761-.738-.726-1.833-1.135-2.972-1.135s-2.238.405-2.975 1.135c-.712.705-1.086 1.701-1.086 2.761s.379 2.053 1.086 2.756c.738.735 1.831 1.142 2.975 1.142v1.393h0zM239.639 9.005c-1.162 0-2.483.217-3.605.719-1.036.462-1.884 1.21-1.884 2.449 0 1.116.709 1.77.69 1.752.301.278.787.751 2.057 1.028.567.124 1.78.315 2.989.441l2.86.368c.382.097 1.023.23 1.023.949s-.676.936-.793.983-.928.419-2.386.419c-1.076 0-2.37-.324-2.841-.492-.544-.194-1.114-.449-1.646-1.099-.132-.161-.341-.604-.341-1.043h-1.319v3.696h1.466v-.499c0-.057.071-.291.317-.18a11.6 11.6 0 0 0 2.146.693c.77.161 1.267.277 2.225.277 1.564 0 2.404-.255 2.984-.42.547-.157 1.223-.438 1.772-.876.298-.237.95-.844.95-1.945 0-1.057-.568-1.714-.767-1.913-.272-.272-.605-.483-.951-.646a7 7 0 0 0-1.167-.408c-.755-.185-2.464-.414-3.281-.5l-2.938-.396c-.18-.056-.547-.231-.547-.657 0-.303.168-.56.5-.767.526-.33 1.59-.535 2.698-.535 1.311-.005 2.421.295 3.127.611a3.43 3.43 0 0 1 .744.443c.252.205.605.632.733 1.227h1.184V9.466h-1.322v.374c0 .121-.125.278-.36.148-.592-.31-2.265-.98-4.317-.983h0zm28.98.585l6.451 5.822-.066-3.92c-.007-.514-.101-.729-.657-.729h-1.213V9.591h5.516v1.173h-1.183c-.567 0-.603.181-.61.729l.1 7.49h-1.889l-7.43-6.631.001 4.706c.007.511.031.753.558.753h1.325v1.172h-5.417v-1.172h1.266c.473 0 .454-.451.454-.779v-5.493c0-.355-.049-.772-.792-.772h-1.028V9.59h4.614zm16.333 8.217c.052 0 .282-.007.327-.02.127-.04.214-.131.254-.225.017-.04.025-.216.025-.254l.001-1.853c0-.045-.003-.064-.079-.163a675.12 675.12 0 0 0-3.53-4.008c-.187-.204-.516-.52-1.016-.52h-1.146V9.59h6.468v1.172h-.779c-.181 0-.301.171-.146.361l2.196 2.63c.021.028.038.034.066.009a974.61 974.61 0 0 0 2.248-2.636c.105-.126.034-.363-.192-.363h-.8V9.59h5.301v1.173h-1.184c-.43 0-.605.08-.928.445l-3.569 4.072c-.048.054-.044.129-.044.174v1.853c0 .038.009.214.026.253a.4.4 0 0 0 .254.225c.044.014.271.021.323.021h1.211v1.173h-6.435v-1.173l1.149.001h-.001zm321.976 5.158v1.659h.25v-.72h.282l.454.72h.281l-.485-.72c.243-.03.439-.171.439-.469 0-.327-.201-.469-.595-.469h-.626zm.25.219h.345c.169 0 .359.027.359.235 0 .259-.193.282-.406.282h-.298v-.516zm.313-.829c-.794 0-1.471.612-1.471 1.44 0 .834.677 1.455 1.471 1.455.783 0 1.44-.622 1.44-1.455s-.657-1.44-1.44-1.44zm0 .235c.648 0 1.158.523 1.158 1.205 0 .693-.51 1.205-1.158 1.205-.659 0-1.189-.512-1.189-1.205 0-.681.53-1.205 1.189-1.205z"/><path fill-rule="evenodd" d="M578.15 25.239V3h44.959L600.87 25.239h-22.72zm25.965-11.599h.974c1.301 0 2.337-.431 2.337-1.805 0-1.33-1.036-1.759-2.337-1.759h-.974v3.564zm-10.932 2.297a4.05 4.05 0 0 0 1.418.251h.001a4.13 4.13 0 0 0 1.389-.239l-1.374-4.439h-.03l-1.404 4.427zm7.223-8.756h4.425l-.001.005c4.231 0 6.218 1.507 6.218 4.792 0 2.951-2.046 4.71-5.502 4.71h-1.43v4.252h-6.557l-.649-2.033c-.694.228-1.477.354-2.308.354a7.41 7.41 0 0 1-2.362-.373l-.675 2.053h-4.018l.442-1.19-.162.142c-1.002.805-2.256 1.248-3.808 1.278h-.231a10.21 10.21 0 0 1-5.009-1.333l1.366-2.716c1.482.875 2.411 1.071 3.665 1.046.651-.015 1.121-.132 1.427-.45.186-.19.281-.431.291-.688.012-.706-.992-1.036-2.221-1.416-.996-.312-2.125-.73-3.009-1.378-1.045-.77-1.544-1.732-1.519-3.088a3.74 3.74 0 0 1 1.059-2.582c.973-1.005 2.543-1.619 4.426-1.619h.01c1.615.004 3.588.46 5.012 1.188l-1.537 2.678c-1.561-.755-2.347-.827-3.239-.872-1.322-.071-1.993.402-2.003.912-.011.624 1.256 1.186 2.446 1.569 1.806.572 4.103 1.34 4.452 3.557l3.303-8.797h3.832l3.866 10.523V7.18z"/><path d="M1809.43 7.624a7.53 7.53 0 0 0-1.3-.11c-.65 0-1.19.088-1.3.11-.07.011-.09-.055-.05-.088.05-.033 1.35-1.031 1.35-1.031l1.35 1.031c.04.033.02.099-.05.088zm-2.25 6.446s-.07.022-.09.088c.27.208.46.691 1.03.691s.76-.482 1.03-.691c-.02-.066-.09-.088-.09-.088s-.36.088-.94.088-.94-.088-.94-.088zm.94-.8c-.15 0-.2-.055-.3-.055a.62.62 0 0 0-.35.154c0 .033.02.066.05.099.23.033.34.164.6.164s.37-.132.6-.164a.12.12 0 0 0 .05-.099c-.05-.077-.25-.154-.35-.154-.1-.011-.14.055-.3.055zm13 2.456l-.08.921c-1.46.241-1.99-1.063-3.5-1.009l.22.976c1.25 0 1.74 1.162 3.13.987l-.26 1.052c-1.1.11-1.48-.976-2.75-.954l.01.548-.01.307c1.08-.011 1.43.987 2.46.943l-.42 1.031c-.75-.044-1-.987-2.12-.91-.03.241-.08.482-.13.724.97-.066 1.18.833 1.88.899-.17.329-.37.647-.57.954-.41-.219-.77-.888-1.55-.932l.21-.756c-.71 0-1.5-.274-2.16-.877.21-1.239-1.7-2.489-1.7-3.398 0-.976.49-1.524.49-2.85 0-.987-.48-2.05-1.2-2.774a2.85 2.85 0 0 0-.44-.362c.65.822 1.17 1.787 1.17 2.916 0 1.25-.58 1.908-.58 3.059s1.69 2.149 1.69 3.333c0 .471-.16.921-.64 1.82.76.756 1.74 1.162 2.38 1.162.21 0 .32-.066.39-.219.07-.142.12-.285.18-.428.68.022 1 .647 1.37.899l-.66.811c-.25-.285-.59-.756-1.1-.888-.08.175-.18.34-.28.515.43.121.72.548.95.833l-.76.735c-.17-.252-.43-.581-.72-.768l-.33.428c.26.165.47.471.61.713-.31.252-.63.482-.96.702-.16-1.326-1.96-2.225-1.48-3.76-.16.274-.35.614-.35 1.02 0 1.107 1.19 1.995 1.27 3.092l-.75.417c-.05-1.217-1.3-2.544-1.3-3.53 0-1.107 1.46-2.226 1.46-3.541s-1.67-2.226-1.67-3.377.71-1.809.71-3.289a3.95 3.95 0 0 0-1.31-2.872c-.14-.121-.27-.219-.45-.307.75.899 1.19 1.71 1.19 2.949 0 1.392-.82 2.16-.82 3.519s1.64 2.116 1.64 3.377-1.53 2.335-1.53 3.64c0 1.184 1.34 2.368 1.37 3.771l-.9.351c.17-1.414-1.35-2.883-1.35-4.045 0-1.261 1.59-2.357 1.59-3.716s-1.61-1.995-1.61-3.399.99-2.182.99-3.727c0-1.206-.59-2.291-1.47-2.96-.02-.011-.03-.033-.05-.044-.08-.066-.15.011-.09.088a3.95 3.95 0 0 1 .95 2.697c0 1.414-1.14 2.565-1.14 3.936 0 1.623 1.53 2.083 1.53 3.41s-1.64 2.39-1.64 3.804c0 1.305 1.55 2.763 1.28 4.265l-.94.208c.29-1.875-1.23-3.234-1.23-4.462 0-1.326 1.7-2.521 1.7-3.815 0-1.228-1.22-1.623-1.38-2.883-.03-.175-.17-.296-.36-.263-.25.044-.57.208-1.06.208-.5 0-.81-.165-1.06-.208-.19-.033-.33.099-.35.263-.17 1.261-1.38 1.655-1.38 2.883 0 1.305 1.69 2.489 1.69 3.815 0 1.228-1.52 2.576-1.22 4.462l-.95-.208c-.26-1.513 1.29-2.96 1.29-4.265 0-1.414-1.65-2.478-1.65-3.804s1.54-1.787 1.54-3.41c0-1.37-1.14-2.522-1.14-3.936 0-1.151.33-1.929.94-2.697.05-.077-.01-.143-.09-.088-.02.011-.03.033-.05.044-.87.669-1.47 1.754-1.47 2.96 0 1.546 1 2.324 1 3.727s-1.62 2.039-1.62 3.399 1.59 2.456 1.59 3.717c0 1.162-1.52 2.62-1.34 4.045l-.9-.351c.02-1.403 1.37-2.587 1.37-3.771 0-1.305-1.54-2.368-1.54-3.64s1.65-2.017 1.65-3.377-.83-2.127-.83-3.519c0-1.239.44-2.05 1.19-2.949a2.25 2.25 0 0 0-.45.307 3.97 3.97 0 0 0-1.31 2.872c0 1.48.72 2.138.72 3.289s-1.68 2.061-1.68 3.377 1.46 2.423 1.46 3.541c0 .998-1.25 2.324-1.3 3.53l-.75-.417c.1-1.107 1.28-1.984 1.28-3.092 0-.406-.19-.745-.35-1.02.48 1.535-1.32 2.445-1.48 3.76-.33-.219-.65-.449-.95-.702.14-.241.36-.548.6-.713l-.33-.428c-.3.175-.55.504-.71.768a10.12 10.12 0 0 1-.77-.735c.23-.285.53-.724.95-.833l-.28-.515c-.51.132-.85.603-1.1.888l-.66-.811c.39-.252.69-.866 1.39-.899l.17.428c.08.164.19.219.4.219.63 0 1.62-.417 2.37-1.162-.49-.899-.63-1.349-.63-1.82 0-1.184 1.69-2.182 1.69-3.333s-.58-1.809-.58-3.059c0-1.129.5-2.094 1.17-2.916a2.11 2.11 0 0 0-.45.362c-.72.724-1.2 1.798-1.2 2.774 0 1.327.5 1.864.5 2.85 0 .91-1.92 2.16-1.7 3.398-.67.614-1.47.877-2.17.877l.21.756c-.79.044-1.15.713-1.56.932a9.04 9.04 0 0 1-.57-.954c.7-.077.91-.976 1.89-.899-.06-.241-.1-.482-.14-.724-1.13-.077-1.38.877-2.11.91l-.43-1.03c1.03.044 1.38-.954 2.46-.943v-.307l.01-.548c-1.27-.033-1.66 1.063-2.75.954l-.27-1.052c1.38.175 1.89-.998 3.14-.987a8.06 8.06 0 0 1 .22-.976c-1.52-.066-2.04 1.25-3.51 1.009-.05-.307-.07-.614-.09-.921 1.71.186 2.36-1.217 3.91-1.041a8.86 8.86 0 0 1 .52-1.085c-1.95-.34-2.62 1.294-4.44 1.041.15-7.016 5.91-12.64 12.97-12.64a13.01 13.01 0 0 1 13.01 12.651c-1.82.252-2.49-1.381-4.44-1.042.2.351.36.713.52 1.085 1.55-.186 2.19 1.228 3.91 1.031zm-18.59-5.46c-.96-.395-2.12-.296-3.12.34-.15-.921-.65-1.743-1.37-2.236-.09-.066-.19 0-.19.11.15 1.951-.99 3.64-2.39 5.131 1.44.439 2.67-1.425 4.54-.778.69-.998 1.54-1.875 2.53-2.565zm5.59-1.173c-1.21 0-2.23.68-2.49 1.568-.02.066.01.11.09.077a1.75 1.75 0 0 1 .73-.143c.5 0 .93.186 1.19.493.11.373.12.921-.01 1.228-.2-.044-.28-.197-.48-.197-.19 0-.35.143-.69.143s-.37-.165-.59-.165c-.26 0-.31.263-.31.57 0 1.348 1.24 3.201 2.56 3.201 1.31 0 2.55-1.853 2.55-3.201 0-.307-.06-.559-.33-.592-.13.099-.26.186-.57.186-.34 0-.42-.143-.62-.143-.24 0-.22.504-.5.537-.19-.45-.2-1.042-.05-1.557.25-.318.69-.493 1.19-.493.26 0 .51.044.73.143.08.033.11-.011.09-.077-.27-.899-1.28-1.579-2.49-1.579zm1.93 1.929c-.3 0-.63.088-.85.329-.02.066-.02.165.02.219.52-.175.98-.186 1.21.066.12-.11.16-.208.16-.318 0-.175-.19-.296-.54-.296zm-4.23.614c.25-.252.79-.241 1.33-.044.03-.274-.47-.581-.96-.581-.36 0-.54.121-.54.296a.46.46 0 0 0 .17.329zm8.33-4.561c-.95.066-1.79.395-2.46.943a9.59 9.59 0 0 1 1.11-2.193c-1.22.132-2.23.57-2.97 1.337l-.58-1.524 1.28-1.14-1.72-.121-.69-1.601-.69 1.601-1.72.121 1.28 1.14-.58 1.524c-.75-.756-1.76-1.206-2.97-1.337.46.68.82 1.392 1.11 2.193-.67-.548-1.51-.877-2.46-.943a12.28 12.28 0 0 1 1.46 2.368c.04.099.13.132.23.077a9.71 9.71 0 0 1 4.34-1.02c1.56 0 3.03.362 4.34 1.02.1.055.19.022.23-.077.37-.844.89-1.633 1.46-2.368zm2.08 5.756c1.88-.647 3.1 1.206 4.55.778-1.4-1.491-2.54-3.179-2.39-5.131.01-.11-.1-.175-.18-.11-.72.493-1.22 1.316-1.38 2.236-.98-.636-2.14-.724-3.11-.34.99.691 1.83 1.568 2.51 2.565zm-192.2 5.879c-1-.622-1.73-2.769-1.73-5.319v-.278l.01.001c-2.77-.434-4.76-1.623-4.81-3.03l-.01.016c-.68.84-1.06 1.811-1.06 2.846 0 3.045 3.34 5.539 7.58 5.76l.02.004zm-8.88-5.541c0-3.407 4.24-6.169 9.47-6.169s9.47 2.762 9.47 6.169-4.24 6.169-9.47 6.169-9.47-2.762-9.47-6.169zm9.47-5.279c1.01 0 1.87 1.531 2.19 3.669v-.003c1.96-.306 3.34-1.011 3.34-1.832 0-1.102-2.48-1.993-5.53-1.993s-5.53.892-5.53 1.993c0 .821 1.38 1.526 3.34 1.832v.003c.32-2.137 1.18-3.669 2.19-3.669zm.61 10.817c4.24-.221 7.58-2.715 7.58-5.76 0-1.035-.38-2.006-1.06-2.846l-.01-.016c-.05 1.406-2.04 2.596-4.81 3.03v-.001c.01.092.01.184.01.278 0 2.55-.73 4.697-1.73 5.319l.02-.004zm-.61-6.989c.45 0 .89-.019 1.31-.056h0c-.21-1.37-.72-2.337-1.31-2.337s-1.1.967-1.31 2.337h0c.42.037.86.056 1.31.056zm0 5.073c.76 0 1.38-1.582 1.41-3.566l.01.001a15.61 15.61 0 0 1-1.42.065 15.2 15.2 0 0 1-1.42-.065l.01-.001c.03 1.984.65 3.566 1.41 3.566z"/><use xlink:href="#B"/><path d="M1678.25 10.419v7.251h-1.99v-7.251h.01-2.78v-1.64h7.53v1.639h-2.76-.01 0zm5.18 5.251l-.01.002-.76 1.999h-2.32l3.67-8.891h1.24 1.23l3.67 8.891h-2.32l-.76-1.999v-.002h-1.82-1.82zm1.82-1.501h1.25 0l-1.25-3.254h-.01l-1.24 3.254h-.01 1.26zm-43.62-3.75v7.251h-1.99v-7.251h.01-2.78v-1.64h7.53v1.639h-2.76-.01 0z"/><use xlink:href="#B" x="-18.56"/><path d="M1658.91 17.67h1v-3.334-.042l3.47-5.515h-2.32l-2.15 3.737-2.16-3.737h-2.32l3.47 5.515v.042 3.334h1.01 0z"/><path fill-rule="evenodd" d="M1716.15 25h52.49.01V4h-52.5v21zm26.25-1.05c-14.64 0-25.2-4.288-25.2-9.45s10.57-9.45 25.2-9.45c14.64 0 25.2 4.288 25.2 9.45s-10.55 9.45-25.2 9.45z"/><path d="M1740.54 17.652c.16.235.34.455.55.654h-5.68c0-.22-.22-.669-.46-1.021l-1.54-2.284v2.652c0 .22 0 .433.11.654h-4.73c.11-.22.11-.433.11-.654V11.35c0-.22 0-.433-.11-.654h4.73c-.11.22-.11.433-.11.654v2.754l1.86-2.372c.26-.338.58-.815.58-1.036h4.94c-.34.22-.71.617-1.02.984l-1.81 2.152 2.58 3.819h0zm1.48-6.302v6.302c0 .22 0 .433-.11.654h9.14v-2.115c-.23.11-.45.11-.67.11h-3.85v-.999h3.7v-1.601h-3.7v-1.006h3.85c.22 0 .44 0 .67.103V10.69h-9.14c.11.228.11.441.11.661zm21.68 6.302a2 2 0 0 0 .37.654h-4.95c.02-.22-.06-.433-.15-.654l-.18-.433-.05-.11h-2.85l-.04.118-.16.433c-.08.22-.16.433-.13.654h-3.9a1.83 1.83 0 0 0 .35-.654l2.34-6.302c.08-.22.17-.433.14-.654h6.59c-.06.22.07.433.15.654l2.47 6.295zm-5.58-2.152l-.69-1.763a4.34 4.34 0 0 1-.15-.499 2.89 2.89 0 0 1-.14.499c-.02.073-.31.845-.65 1.763h1.63zm-31.57-4.804h-5.15c.11.22.11.433.11.654v6.302c0 .22 0 .433-.11.654h5.15c-.12-.22-.12-.433-.12-.654V11.35c0-.22 0-.433.12-.654zm35.57.602c-.02-.536.41-.984.96-.999h.07c.55-.007 1.01.419 1.02.962v.037c.02.551-.43 1.014-1 1.028s-1.04-.419-1.05-.977v-.052h0zm.21 0c0 .441.37.801.82.801s.82-.36.82-.801-.37-.801-.82-.801c-.44-.015-.81.316-.82.742v.059zm.61.595h-.18v-1.205h.46c.22.007.39.176.39.389 0 .147-.09.279-.22.353l.26.463h-.2l-.24-.426h-.27v.426zm0-.595h.25c.12.007.23-.081.23-.198s-.09-.22-.21-.22h-.27v.419zm-310.01 14.81h-2.16V17.45h2.16v8.658zm17.47-6.177c-.09-.046-.79-.462-1.82-.462-1.4 0-2.38.983-2.38 2.31 0 1.286.93 2.31 2.38 2.31 1.01 0 1.72-.407 1.82-.459v2.324c-.27.077-1.01.308-1.98.308-2.43 0-4.57-1.694-4.57-4.484 0-2.585 1.93-4.481 4.57-4.481 1.02 0 1.77.25 1.98.31v2.324zm-22.61 0c-.09-.046-.79-.462-1.82-.462-1.41 0-2.38.983-2.38 2.31 0 1.286.93 2.31 2.38 2.31 1.02 0 1.72-.407 1.82-.459v2.324c-.27.077-1.01.308-1.98.308-2.43 0-4.57-1.694-4.57-4.484 0-2.585 1.94-4.481 4.57-4.481 1.02 0 1.77.25 1.98.31v2.324zm29.42-.43c-1.28 0-2.24 1.02-2.24 2.277s.96 2.279 2.24 2.279c1.29 0 2.24-1.02 2.24-2.279s-.95-2.277-2.24-2.277zm4.54 2.277c0 2.477-1.9 4.484-4.54 4.484s-4.53-2.007-4.53-4.484 1.89-4.482 4.53-4.482 4.54 2.01 4.54 4.482zm-20.6-2.36c-.04-.01-.95-.264-1.7-.264-.87 0-1.34.293-1.34.71 0 .526.64.71 1 .824l.59.192c1.41.451 2.05 1.422 2.05 2.477 0 2.175-1.9 2.905-3.55 2.905a12.69 12.69 0 0 1-2.34-.236v-1.993c.19.049 1.1.322 2.04.322 1.08 0 1.58-.317 1.58-.808 0-.439-.43-.692-.97-.862l-.46-.151c-1.21-.385-2.21-1.1-2.21-2.533 0-1.62 1.2-2.707 3.2-2.707 1.05 0 2.04.258 2.11.276v1.848zm-22.21-11.273c0-.596-.48-1.08-1.07-1.08s-1.08.484-1.08 1.08v2.273c0 .6.49 1.084 1.08 1.084s1.07-.484 1.07-1.084V8.145zm5.91-2.983c0-.596-.48-1.081-1.07-1.081a1.08 1.08 0 0 0-1.08 1.081v5.256a1.08 1.08 0 0 0 1.08 1.084c.59 0 1.07-.484 1.07-1.084V5.162zm5.91-4.081A1.08 1.08 0 0 0 1449.68 0c-.59 0-1.07.484-1.07 1.081v11.497c0 .6.48 1.084 1.07 1.084a1.08 1.08 0 0 0 1.08-1.084V1.08v.001zm5.91 4.081c0-.596-.49-1.081-1.08-1.081s-1.08.485-1.08 1.081v5.256c0 .6.49 1.084 1.08 1.084s1.08-.484 1.08-1.084V5.162zm5.9 2.983c.01-.145-.02-.29-.07-.426s-.13-.26-.23-.365-.22-.187-.35-.245a1.12 1.12 0 0 0-.43-.086c-.14 0-.28.029-.42.086a1.05 1.05 0 0 0-.48.418c-.12.185-.18.4-.17.618v2.273a1.08 1.08 0 0 0 1.08 1.084c.59 0 1.07-.484 1.07-1.084V8.145zm5.91-2.983a1.17 1.17 0 0 0-.08-.414 1.21 1.21 0 0 0-.24-.35 1.09 1.09 0 0 0-.76-.317c-.59 0-1.07.485-1.07 1.081v5.256c0 .6.48 1.084 1.07 1.084a1.08 1.08 0 0 0 1.08-1.084V5.162zm5.91-4.081c0-.597-.48-1.081-1.07-1.081a1.08 1.08 0 0 0-1.08 1.081v11.497a1.08 1.08 0 0 0 1.08 1.084c.59 0 1.07-.484 1.07-1.084V1.08v.001zm5.91 4.081c-.01-.278-.13-.541-.33-.734a1.08 1.08 0 0 0-1.5 0c-.2.193-.32.456-.33.734v5.256c0 .286.11.561.32.764.2.202.47.316.76.316s.56-.114.76-.316c.21-.203.32-.478.32-.764V5.162zm5.89 2.983c0-.596-.48-1.08-1.07-1.08s-1.07.484-1.07 1.08v2.273c0 .6.48 1.084 1.07 1.084s1.07-.484 1.07-1.084V8.145zM762.316 22.418c-1.518-.061-2.759-.483-3.73-1.266a7.3 7.3 0 0 1-.775-.787 4.95 4.95 0 0 1-.84-1.534c-.549-1.67-.266-3.862.809-6.267.92-2.06 2.341-4.102 4.82-6.93L764.059 4c.003 0-.057.104-.131.231-.644 1.096-1.196 2.386-1.496 3.504-.483 1.793-.425 3.331.17 4.524a4.39 4.39 0 0 0 1.905 1.928c1.385.688 3.412.745 5.888.166.171-.04 8.618-2.316 18.772-5.058l18.465-4.982c.003.002-23.591 10.25-35.839 15.566-1.94.842-2.458 1.055-3.37 1.38-2.331.83-4.419 1.227-6.107 1.159z"/><path d="M1380.83 18.15c-3.21 2.39-7.86 3.667-11.86 3.667-5.62 0-10.67-2.1-14.5-5.59-.3-.274-.03-.648.33-.434 4.13 2.427 9.23 3.886 14.5 3.886 3.56 0 7.47-.743 11.06-2.285.55-.234 1 .36.47.757v-.001zm1.34-1.541c-.41-.53-2.72-.25-3.75-.127-.31.04-.36-.238-.08-.437 1.83-1.304 4.84-.928 5.2-.49.35.44-.1 3.488-1.82 4.943-.26.223-.52.104-.4-.192.39-.977 1.26-3.165.85-3.697zm-3.68-9.773V5.568c0-.192.15-.32.32-.32h5.62a.31.31 0 0 1 .32.32v1.086c0 .182-.15.42-.42.797l-2.91 4.2c1.08-.027 2.22.136 3.2.695.22.126.28.31.3.493v1.353c0 .184-.2.4-.41.289-1.73-.916-4.03-1.016-5.94.01-.19.106-.4-.107-.4-.292v-1.285c0-.207 0-.559.21-.872l3.37-4.887h-2.93c-.18 0-.33-.13-.33-.319zM1358 14.748h-1.71a.34.34 0 0 1-.21-.09c-.05-.057-.08-.128-.09-.204V5.59c0-.177.14-.318.33-.318h1.59c.17.007.3.136.31.296v1.159h.03c.42-1.12 1.2-1.642 2.25-1.642 1.07 0 1.74.522 2.22 1.642.41-1.12 1.35-1.642 2.36-1.642.72 0 1.5.298 1.98.969.54.746.43 1.829.43 2.779v5.594c0 .177-.15.32-.33.32h-1.71c-.08-.006-.16-.041-.22-.1a.36.36 0 0 1-.09-.22V9.73c0-.374.04-1.307-.05-1.661-.12-.596-.51-.763-1-.763-.41 0-.85.28-1.02.726-.18.447-.16 1.195-.16 1.698v4.698c0 .177-.15.32-.33.32h-1.71a.35.35 0 0 1-.12-.029.43.43 0 0 1-.09-.071.38.38 0 0 1-.07-.101.47.47 0 0 1-.02-.119l-.01-4.698c0-.989.16-2.444-1.05-2.444-1.23 0-1.18 1.419-1.18 2.444v4.698c0 .177-.15.32-.33.32zm31.59-9.663c2.53 0 3.91 2.2 3.91 4.999 0 2.703-1.52 4.848-3.91 4.848-2.49 0-3.85-2.2-3.85-4.943 0-2.76 1.37-4.904 3.85-4.904zm.01 1.81c-1.26 0-1.34 1.734-1.34 2.815s-.01 3.396 1.33 3.396c1.32 0 1.38-1.866 1.38-3.003 0-.748-.03-1.642-.25-2.351-.19-.617-.58-.858-1.12-.858v.001zm7.18 7.853h-1.7c-.08-.006-.16-.041-.22-.1a.36.36 0 0 1-.09-.22V5.56c.02-.163.16-.29.33-.29h1.59c.14.008.27.11.3.248v1.356h.03c.48-1.212 1.15-1.79 2.33-1.79.77 0 1.52.279 2 1.044.44.71.44 1.902.44 2.76v5.58a.32.32 0 0 1-.11.201c-.06.051-.14.079-.22.078h-1.71c-.16-.012-.29-.129-.3-.28V9.654c0-.97.11-2.388-1.07-2.388-.42 0-.8.282-.99.71-.24.541-.27 1.08-.27 1.678v4.773a.28.28 0 0 1-.03.126.42.42 0 0 1-.07.104c-.04.03-.07.053-.11.069s-.09.022-.13.021v.001zm-22.77-4.234c0 .673.02 1.234-.32 1.832-.27.486-.7.784-1.18.784-.66 0-1.04-.505-1.04-1.25 0-1.473 1.31-1.74 2.54-1.74v.374zm1.73 4.21a.42.42 0 0 1-.2.084c-.07.009-.15-.008-.21-.043-.56-.476-.67-.697-.98-1.151-.94.966-1.6 1.255-2.81 1.255-1.44 0-2.56-.896-2.56-2.69 0-1.402.75-2.357 1.82-2.824.93-.413 2.22-.485 3.21-.6v-.223c0-.41.03-.896-.21-1.251-.2-.318-.6-.45-.95-.45-.66 0-1.24.338-1.38 1.038-.03.155-.14.308-.3.316l-1.65-.18c-.14-.032-.3-.146-.26-.362.38-2.03 2.2-2.643 3.83-2.643.83 0 1.91.223 2.57.86.83.784.75 1.831.75 2.97v2.692c0 .81.33 1.164.65 1.601.1.155.13.343-.01.46l-1.31 1.146v-.005zm-24.13-4.21c0 .673.02 1.234-.32 1.832-.27.486-.7.785-1.18.785-.66 0-1.04-.506-1.04-1.252 0-1.471 1.3-1.739 2.54-1.739v.374zm1.72 4.21c-.05.048-.12.077-.19.084a.34.34 0 0 1-.21-.043c-.57-.476-.67-.697-.98-1.151-.94.967-1.6 1.256-2.82 1.256-1.44 0-2.56-.896-2.56-2.692 0-1.401.76-2.356 1.83-2.822.92-.413 2.22-.486 3.21-.6v-.224c0-.41.03-.896-.21-1.25-.21-.319-.61-.45-.96-.45-.65 0-1.23.337-1.37 1.037-.03.155-.14.309-.3.316l-1.66-.18c-.13-.032-.29-.146-.25-.362.38-2.03 2.2-2.643 3.82-2.643.83 0 1.92.224 2.58.86.83.785.75 1.832.75 2.971v2.692c0 .808.33 1.163.64 1.6.11.156.14.343 0 .46l-1.31 1.146-.01-.005z" fill-rule="evenodd"/><path d="M38.181 4v9.85l-.124.104-.124.103-.119.11-.114.108-.109.11-.109.113-.104.115-.103.114V4H26.378v8.968h-.901V4H14.58v8.983h-.901V4H2.783v10.24L0 23.524h2.446l1.228-4.111h.352l2.031 4.11h2.954l-1.969-4.11h4.466l-1.238 4.11h2.668l1.223-4.1h.59v-.01H20.7l-1.182 4.1h2.695l1.145-4.1h1.212l.031 4.1h2.259l2.596-4.1h1.7l-.881 4.1h2.653l.865-4.1h1.534l-.011.234.006.238.01.229.021.228.015.11.016.108.02.11.021.108.026.11.026.103.031.104.031.104.036.103.037.099.041.099.042.093.046.099.047.093.052.088.052.093.057.089.062.083.062.088.067.078.068.083.067.077.078.078.077.073.099.083.098.083.104.078.109.073.109.072.108.068.114.057.12.062.114.052.119.052.119.047.124.047.125.04.124.038.124.036.125.03.248.058.254.042.249.036.249.03.243.022.238.01.234.01h.222l.301-.005.3-.005.306-.015.306-.016.306-.026.305-.026.306-.03.306-.037.311-.042.31-.047.311-.051.311-.052.311-.057.311-.063.311-.062.316-.072.922-3.722h3.026V4.001H38.182L38.181 4zM3.793 19.03l.015-.058.037.057h-.052v.001zm9.492-5.523l-.155.524-1.451 4.827-.057.171H6.855l-.368-.789 5.135-5.257H8.321l-4.015 4.334 1.3-4.334H3.171V4.39h10.114v9.118-.001zm2.814 4.08l-.078.004-.073.005-.077.005h-.285l-.088.005h-.083l-.648-.005.301-1.11.139-.55.342-1.293h.223l.109-.005h.606l.306.005.28.01.124.006.119.01.114.016.104.015.093.015.088.026.083.027.073.03.062.032.057.041.052.042.041.052.026.041.021.042.02.046.016.053.01.057.006.057v.13l-.006.072-.005.073-.015.083-.016.083-.046.176-.057.198-.057.166-.063.16-.067.151-.072.14-.037.062-.036.063-.042.062-.046.057-.047.057-.046.052-.052.052-.052.046-.057.042-.057.047-.062.036-.068.042-.067.036-.073.031-.072.031-.078.026-.083.031-.088.021-.093.02-.093.022-.104.015-.104.016-.108.01-.114.01v.002zm7.367 1.442l1.063-3.788.041 3.788h-1.104zm1.617-6.061h-2.528l-1.741 6.061H18.13l.124-.052.124-.052.12-.052.119-.057.114-.057.109-.067.108-.063.104-.067.104-.073.098-.072.093-.073.094-.083.088-.078.083-.088.082-.083.078-.093.078-.088.072-.1.068-.092.067-.104.062-.104.057-.104.057-.11.052-.113.052-.114.047-.115.041-.119.042-.125.031-.124.036-.125.026-.135.026-.13.036-.207.031-.197.021-.187.015-.176.006-.177-.006-.16-.005-.162-.02-.15-.021-.14-.036-.14-.037-.13-.051-.125-.057-.119-.063-.12-.072-.108-.083-.104-.067-.073-.068-.072-.072-.062-.078-.057-.083-.058-.083-.052-.088-.046-.088-.042-.093-.041-.094-.031-.098-.032-.098-.031-.104-.026-.104-.02-.103-.021-.109-.016-.223-.031-.223-.015-.228-.016-.233-.005h-2.938V4.39h10.114v8.58-.002zm6.145 6.061H29.71l2.3-3.633-.782 3.633zm5.653-5.89l-.006 2.102-.129.181-.119.187-.119.187-.109.187-.104.186-.103.192-.089.187-.088.187-.083.182-.072.187-.073.181-.062.177-.057.176-.052.172-.046.166-.042.166-.026.109-.026.114-.025.109-.021.114-.021.11-.015.108-.016.109-.01.114h-1.487l1.269-6.046-4.28-.005-3.829 6.051h-.279V4.39h10.119v8.75-.001zm5.834 8.366l-.212.036-.218.03-.218.032-.212.026-.212.02-.213.017-.207.01h-.342l-.135-.005-.129-.01-.13-.016-.124-.02-.119-.021-.12-.026-.114-.032-.108-.036-.109-.036-.104-.047-.098-.047-.099-.057-.093-.057-.088-.062-.083-.063-.083-.072-.072-.078-.073-.078-.067-.088-.062-.088-.057-.099-.052-.098-.052-.104-.042-.11-.036-.118-.031-.12-.031-.124-.021-.13-.015-.135-.011-.14-.005-.146h4.715l-.518 2.092zm5.979-2.476h-2.549l.42-1.692h-5.109l-.42 1.692h-2.471v-.348l.031-.145.026-.145.031-.156.031-.156.047-.17.046-.172.052-.171.057-.166.062-.166.068-.167.072-.16.073-.162.083-.16.083-.15.088-.157.098-.145.098-.145.099-.14.109-.135.114-.13.119-.124.119-.114.13-.115.129-.109.135-.098.145-.094.145-.083.15-.078.156-.072.16-.063.166-.051.171-.042.176-.036.182-.027.186-.015.192-.005.15.005.15.01.151.021.145.031.072.021.068.021.067.02.062.032.062.026.062.036.057.037.058.036.051.046.052.047.047.047.047.057.041.052.036.062.031.068.031.067.026.073.021.078.016.078.015.088.006.088v.192l-.011.104h3.047l.046-.213.042-.244.021-.13.01-.14.01-.14v-.145l-.005-.15-.015-.156-.016-.073-.01-.078-.021-.078-.02-.078-.026-.083-.026-.078-.031-.078-.037-.077-.036-.078-.046-.078-.047-.078-.052-.078-.062-.083-.067-.077-.068-.078-.072-.073-.078-.072-.083-.068-.083-.062-.088-.063-.093-.062-.093-.052-.099-.052-.104-.051-.103-.047-.109-.047-.114-.041-.114-.042-.114-.037-.124-.03-.119-.032-.13-.03-.13-.027-.129-.026-.135-.02-.14-.016-.285-.031-.29-.026-.306-.01-.31-.006-.234.005-.243.005-.254.016-.264.02-.275.032-.28.036-.285.047-.29.062-.145.031-.15.036-.145.042-.15.042-.151.046-.15.052-.15.052-.145.057-.151.062-.15.068-.145.067-.15.073-.145.078-.145.083-.145.083-.145.093V4.39h10.129v14.64h-.001v-.001zM1564.65 6.219l4.3 1.71-4.3 1.618v2.312l7.37-3.005v-1.85L1564.65 4v2.219zm-39.48 8.598c-2.05 0-3.56.925-3.7 2.866h2.29v-.046c.04-.647.64-1.11 1.28-1.063.87 0 1.28.508 1.28 1.387v.416h-1.05c-2.25 0-4.08.693-4.08 2.866v.092c0 1.757 1.29 2.543 2.84 2.543.96.046 1.83-.416 2.38-1.156v1.017h2.33v-5.825c-.04-2.219-1.55-3.097-3.57-3.097zm-.5 7.35c-.82 0-1.19-.416-1.19-1.017v-.092c0-.786.6-1.11 1.79-1.11h.96v.832c.04.925-.74 1.387-1.56 1.387zm9.56-.092c-1.14 0-1.74-.786-1.74-2.543v-.277c0-1.71.69-2.543 1.74-2.543.83 0 1.28.555 1.42 1.387h2.29c-.19-2.265-1.83-3.282-3.75-3.282-2.29 0-4.12 1.572-4.12 4.53v.093c0 2.958 1.74 4.438 4.12 4.438 2.33 0 3.66-1.433 3.84-3.375h-2.2c-.18.97-.77 1.572-1.6 1.572zm8.92 0c-1.14 0-1.74-.786-1.74-2.543v-.277c0-1.71.69-2.543 1.74-2.543.83 0 1.28.555 1.42 1.387h2.29c-.19-2.265-1.83-3.282-3.75-3.282-2.29 0-4.12 1.572-4.12 4.53v.093c0 2.958 1.74 4.438 4.12 4.438 2.33 0 3.66-1.433 3.79-3.375h-2.15c-.13.97-.77 1.572-1.6 1.572zm9.01.046c-1.05 0-1.69-.6-1.78-2.173h5.58v-1.017c0-2.866-1.78-4.114-3.93-4.114-2.34 0-4.12 1.618-4.12 4.53v.185c0 2.913 1.69 4.392 4.16 4.392 2.24 0 3.62-1.248 3.84-2.912h-2.24c-.09.693-.78 1.201-1.51 1.109zm-.13-5.64c.96 0 1.55.555 1.6 1.85h-3.21c.19-1.387.87-1.803 1.61-1.85zm10.42-1.664c-1.09-.046-2.1.509-2.6 1.48v-1.295h-2.38v8.69h2.38v-5.546c.04-.786.73-1.433 1.51-1.387.87 0 1.28.462 1.28 1.48v5.454h2.42v-5.825c0-2.126-1.05-3.051-2.61-3.051zm7.09 6.103v-4.115h1.65v-1.803h-1.65v-2.635l-2.37 1.017v1.618h-1.06v1.803h1.01v4.392c0 1.756.87 2.634 2.74 2.634.46 0 .92-.046 1.38-.184V21.75a2.63 2.63 0 0 1-.83.139c-.55 0-.87-.323-.87-.969zm8.28-.51v.232c-.04.786-.73 1.433-1.5 1.387-.87 0-1.24-.463-1.24-1.48v-5.547h-2.42v5.871c0 2.034 1.14 3.005 2.69 3.005a2.67 2.67 0 0 0 2.52-1.48v1.295h2.43v-8.69h-2.43l-.05 5.407zm6.59-3.836v-1.618h-2.38v8.69h2.38v-4.483c0-1.433.96-1.942 2.61-1.942v-2.404c-1.19 0-2.24.694-2.61 1.757zm11.39 2.311c0-2.866-1.78-4.068-3.93-4.068-2.34 0-4.12 1.618-4.12 4.53v.185c0 2.913 1.69 4.392 4.16 4.392 2.24 0 3.57-1.248 3.85-2.912h-2.25c-.18.74-.87 1.201-1.6 1.155-1.05 0-1.69-.6-1.78-2.172h5.58v-1.11h.09zm-5.58-.555c.18-1.433.87-1.849 1.65-1.849.96 0 1.55.555 1.6 1.85l-3.25-.001zm-732.445 4.445c-1.053.186-2.124.241-3.233.39l-3.381-9.945v10.372L848.15 24V5h2.808l3.843 10.78V5h2.974v17.775zm5.82-10.817l3.953-.056v2.969l-3.953.056v4.416l5.228-.316v2.857l-8.184.65V5h8.184v2.969h-5.228v3.989zm16.22-3.989h-3.067v13.656l-2.955.037V7.969h-3.067V5h9.089v2.969zm4.804 3.785h4.046v2.969h-4.046v6.735h-2.901V5h8.258v2.969h-5.357v3.785zm10.161 7.106l5.025.26v2.932l-7.981-.39V5h2.956v13.86zm7.519 3.396l2.9.223V5h-2.9v17.256zM918.15 5l-3.75 9.036L918.15 24l-3.326-.538-2.124-5.492-2.161 5.047-3.178-.39 3.806-8.702L907.73 5h3.178l1.94 4.991L914.917 5h3.233 0z"/><path d="M649.046 13.347c-.027-.037-.064-.066-.106-.085a.25.25 0 0 0-.135-.019.29.29 0 0 0-.127.048c-.038.026-.067.063-.087.105l-2.307 4.617a.29.29 0 0 0-.03.136.28.28 0 0 0 .276.263h3.213a.26.26 0 0 0 .246-.152c.693-1.433.274-3.612-.943-4.913zm1.692-4.199a6.11 6.11 0 0 0-.972 2.959c-.062 1.054.15 2.106.616 3.053l1.549 3.1c.023.046.058.085.102.112s.094.041.145.041h3.212c.047 0 .094-.012.135-.034a.28.28 0 0 0 .101-.096c.025-.04.039-.086.041-.133a.28.28 0 0 0-.03-.136l-4.43-8.866c-.022-.044-.056-.08-.097-.106s-.089-.039-.138-.039-.097.014-.138.04-.074.063-.096.106v-.001zm36.375 3.702c0 1.143.53 2.05 2.603 2.451 1.236.26 1.495.46 1.495.872 0 .4-.26.66-1.13.66a6.38 6.38 0 0 1-3.003-.813v1.862c.624.307 1.448.648 2.979.648 2.167 0 3.027-.967 3.027-2.404l-5.971-3.276zm5.971 3.276c0-1.355-.719-1.992-2.744-2.427-1.119-.248-1.39-.496-1.39-.85 0-.446.4-.635 1.142-.635.896 0 1.779.27 2.615.648v-1.78a5.91 5.91 0 0 0-2.556-.53c-2.002 0-3.038.872-3.038 2.298l5.971 3.276zm21.866-5.456v7.742h1.648v-5.904l.695 1.568 2.332 4.336h2.073V10.67h-1.649v4.997l-.624-1.45-1.873-3.547h-2.602zm-10.486 0h-1.801v7.742h1.801V10.67zm-3.88 5.456c0-1.355-.719-1.992-2.744-2.427-1.119-.248-1.39-.496-1.39-.85 0-.446.401-.635 1.143-.635.895 0 1.778.27 2.615.648v-1.78a5.91 5.91 0 0 0-2.556-.53c-2.003 0-3.038.872-3.038 2.298 0 1.143.529 2.05 2.602 2.451 1.236.26 1.495.46 1.495.872 0 .4-.259.66-1.13.66-1.053-.019-2.084-.298-3.003-.813v1.862c.624.307 1.449.648 2.98.648 2.166 0 3.026-.967 3.026-2.404zm-27.467-5.456v7.742h3.702l.584-1.673h-2.473v-6.07h-1.813v.001zm-7.316 0v1.673h2.001v6.07h1.814v-6.07h2.143V10.67h-5.958zm-2.63 0h-2.376l-2.698 7.742h2.06l.382-1.304c.942.277 1.944.277 2.886 0l.383 1.304h2.06l-2.697-7.742zm-1.188 5.042c-.336 0-.67-.048-.992-.143l.992-3.379.992 3.38a3.52 3.52 0 0 1-.992.142zm21.221-5.042h-2.376l-2.698 7.742h2.061l.382-1.304a5.11 5.11 0 0 0 2.885 0l.384 1.304h2.06l-2.698-7.742zm-1.187 5.042c-.335 0-.669-.048-.992-.143l.992-3.379.991 3.38a3.54 3.54 0 0 1-.991.142zm28.94-5.042h-2.377l-2.698 7.742h2.061l.383-1.304a5.11 5.11 0 0 0 2.885 0l.382 1.304h2.061l-2.697-7.742zm-1.189 5.042c-.336 0-.67-.048-.992-.143l.992-3.379.991 3.38a3.5 3.5 0 0 1-.991.142zm493.242-1.222a4.89 4.89 0 0 1-4.95 4.982c-2.72 0-4.94-2.113-4.94-4.981 0-2.889 2.22-4.982 4.94-4.982 2.73 0 4.95 2.093 4.95 4.982v-.001zm-2.17 0c0-1.791-1.28-3.018-2.78-3.018-1.49 0-2.78 1.227-2.78 3.019 0 1.774 1.29 3.018 2.78 3.018 1.5 0 2.78-1.246 2.78-3.018v-.001zm12.83 0c0 2.869-2.22 4.982-4.94 4.982a4.89 4.89 0 0 1-4.95-4.981 4.88 4.88 0 0 1 4.95-4.982c2.72 0 4.94 2.093 4.94 4.982v-.001zm-2.16 0c0-1.791-1.29-3.018-2.78-3.018s-2.78 1.227-2.78 3.019c0 1.774 1.29 3.018 2.78 3.018s2.78-1.246 2.78-3.018v-.001zm12.39-4.68v8.944c0 3.678-2.15 5.181-4.69 5.181-2.39 0-3.82-1.615-4.37-2.935l1.89-.793c.33.81 1.16 1.767 2.48 1.767 1.62 0 2.63-1.012 2.63-2.92v-.716h-.07c-.49.604-1.42 1.132-2.6 1.132-2.46 0-4.72-2.17-4.72-4.961 0-2.812 2.26-5 4.72-5 1.18 0 2.11.528 2.6 1.114h.07v-.81h2.06V9.81zm-1.9 4.699c0-1.754-1.16-3.037-2.64-3.037-1.49 0-2.74 1.283-2.74 3.037 0 1.736 1.25 3 2.74 3 1.48 0 2.64-1.264 2.64-3zm5.29-9.941v14.599h-2.11V4.568h2.11zm8.22 11.562l1.68 1.133c-.54.81-1.84 2.208-4.1 2.208-2.8 0-4.89-2.188-4.89-4.982 0-2.963 2.1-4.982 4.64-4.982 2.56 0 3.81 2.058 4.22 3.17l.23.565L1230.7 16c.5 1 1.29 1.51 2.39 1.51s1.86-.548 2.42-1.38zm-5.17-1.791l4.41-1.85c-.25-.621-.97-1.055-1.83-1.055-1.1 0-2.63.982-2.58 2.905zm-45.22-1.144v-2.113h7.05a6.93 6.93 0 0 1 .11 1.275c0 1.586-.43 3.546-1.81 4.943-1.35 1.415-3.07 2.17-5.34 2.17-4.22 0-7.77-3.472-7.77-7.735S1180.91 4 1185.13 4c2.33 0 3.99.925 5.24 2.131l-1.47 1.492a5.31 5.31 0 0 0-3.78-1.51c-3.08 0-5.49 2.51-5.49 5.622s2.41 5.622 5.49 5.622c2 0 3.14-.811 3.87-1.548.59-.597.98-1.45 1.13-2.616l-5 .002zM69.795 17.427c.194.517.464.959.808 1.326s.751.648 1.222.843.983.292 1.536.292a3.8 3.8 0 0 0 1.514-.303 3.73 3.73 0 0 0 1.234-.854c.352-.367.624-.805.819-1.315s.292-1.079.292-1.708V6h2.355v15.73h-2.332v-1.46c-.523.554-1.14.981-1.85 1.281S73.915 22 73.092 22c-.837 0-1.619-.146-2.344-.438s-1.353-.708-1.884-1.247-.95-1.187-1.256-1.944-.46-1.599-.46-2.528V6h2.355v9.708a4.85 4.85 0 0 0 .291 1.719zM83.634 6v5.73c.523-.524 1.129-.94 1.817-1.247s1.435-.461 2.243-.461a5.9 5.9 0 0 1 2.355.472 6.02 6.02 0 0 1 1.906 1.281 6.03 6.03 0 0 1 1.278 1.91 5.88 5.88 0 0 1 .471 2.337 5.8 5.8 0 0 1-.471 2.326 6.06 6.06 0 0 1-1.278 1.899 6.03 6.03 0 0 1-1.906 1.281c-.732.315-1.519.472-2.356.472-.807 0-1.559-.154-2.254-.461a5.96 5.96 0 0 1-1.828-1.247v1.438h-2.243V6h2.265zm.258 11.573a3.91 3.91 0 0 0 .841 1.258 4.06 4.06 0 0 0 1.256.854c.478.21.994.315 1.547.315a3.75 3.75 0 0 0 1.525-.315c.478-.21.893-.494 1.245-.854a4.16 4.16 0 0 0 .841-1.258c.209-.479.314-.996.314-1.55a3.92 3.92 0 0 0-.314-1.562 4.13 4.13 0 0 0-.841-1.27c-.351-.36-.766-.64-1.245-.843s-.987-.303-1.525-.303a3.88 3.88 0 0 0-1.525.303 3.9 3.9 0 0 0-1.256.843 4.03 4.03 0 0 0-.852 1.27 3.91 3.91 0 0 0-.314 1.562 3.95 3.95 0 0 0 .303 1.55zm11.091-3.865c.299-.719.71-1.352 1.234-1.899a5.73 5.73 0 0 1 1.862-1.292 5.74 5.74 0 0 1 2.333-.472c.822 0 1.585.15 2.287.449a5.42 5.42 0 0 1 1.817 1.247c.508.532.905 1.161 1.189 1.888s.426 1.517.426 2.371v.742h-9.308a3.85 3.85 0 0 0 .449 1.292 3.89 3.89 0 0 0 .841 1.034c.336.292.718.521 1.144.685a3.73 3.73 0 0 0 1.357.247c1.36 0 2.459-.562 3.297-1.685l1.637 1.213a6.1 6.1 0 0 1-2.108 1.798c-.837.435-1.78.652-2.826.652-.853 0-1.649-.15-2.389-.45a5.83 5.83 0 0 1-1.929-1.258 5.97 5.97 0 0 1-1.29-1.899c-.314-.727-.471-1.517-.471-2.371 0-.809.15-1.573.448-2.292zm3.151-.888c-.636.532-1.058 1.24-1.267 2.124h6.975c-.194-.884-.609-1.592-1.245-2.124s-1.379-.798-2.231-.798a3.37 3.37 0 0 0-2.232.798zm12.235.258c-.479.524-.718 1.236-.718 2.135v6.517h-2.265V10.27h2.243v1.416a3.19 3.19 0 0 1 1.11-1.101c.456-.27.998-.405 1.626-.405h.785v2.112h-.942c-.748 0-1.361.262-1.839.787z"/><path fill-rule="evenodd" d="M445.256 9.32v1.704c-.934-.334-1.766-.503-2.494-.503-.431 0-.774.076-1.032.222s-.39.328-.39.542c0 .284.291.537.878.763l1.695.78c1.371.618 2.052 1.437 2.052 2.467 0 .855-.361 1.54-1.089 2.045-.722.51-1.696.763-2.907.763-.502.003-1.005-.02-1.506-.07a12.27 12.27 0 0 1-1.527-.273v-1.782c1.042.333 1.992.502 2.846.502 1.019 0 1.526-.28 1.526-.844 0-.28-.208-.506-.63-.683l-1.882-.758c-.695-.298-1.211-.657-1.549-1.083a2.36 2.36 0 0 1-.503-1.486c0-.788.352-1.424 1.047-1.907S441.42 9 442.575 9a10.72 10.72 0 0 1 1.287.09l1.394.23zm-53.333 0v1.704c-.934-.334-1.764-.503-2.492-.503-.433 0-.774.076-1.032.222s-.39.328-.39.542c0 .284.295.537.882.763l1.695.78c1.365.618 2.047 1.437 2.047 2.467 0 .855-.363 1.54-1.085 2.045-.728.51-1.695.763-2.91.763a14.52 14.52 0 0 1-1.508-.07c-.513-.059-1.023-.15-1.525-.273v-1.782c1.046.333 1.995.502 2.844.502 1.019 0 1.526-.28 1.526-.844 0-.28-.207-.506-.624-.683l-1.883-.758c-.7-.298-1.216-.657-1.548-1.083s-.513-.947-.504-1.486c0-.788.349-1.424 1.047-1.907S388.088 9 389.243 9a10.78 10.78 0 0 1 1.291.09l1.389.23zm1.943-.161h2.762v8.784h-2.762V9.159zm11.658 0v1.623h-4.104v1.949h3.56v1.463h-3.56v2.044h4.188v1.705h-6.845V9.159h6.761zm12.892 0v8.784h-2.578v-5.794l-2.675 5.874h-1.592L409 12.149v5.794h-1.865V9.159h3.371l2.3 5.377 2.408-5.377h3.202zm8.892 0v1.623h-4.08v1.949h3.558v1.463h-3.558v2.044h4.163v1.705h-6.843V9.159h6.76zm9.689 0v8.784h-2.929l-3.287-5.634v5.634h-1.863V9.159h3.015l3.202 5.536V9.16h1.862v-.001z"/><path d="M340.652 10.41c0-1.447.969-2.85 1.498-2.586.603.306-.452 1.668-1.498 2.586zm-6.59.527c0-1.163 1.136-3.373 1.83-3.14.82.276-.68 2.506-1.83 3.14zm-1.151 8.32c-.522.022-.872-.315-.872-.878 0-1.514 2.079-2.96 3.648-3.736-.278 2.113-.985 4.533-2.776 4.614zm9.589-4.934c-1.185 0-2.091.881-2.091 1.938 0 .881.523 1.586 1.219 1.586.246 0 .49-.142.49-.457 0-.46-.602-.57-.556-1.256.03-.451.451-.754.87-.754.835 0 1.227.82 1.227 1.664-.034 1.305-.985 2.212-2.099 2.212-1.465 0-2.407-1.409-2.407-2.925 0-2.256 1.465-3.137 2.233-3.348.008 0 2.005.36 1.943-.53-.029-.392-.604-.543-1.021-.559-.463-.018-.93.15-.93.15-.243-.124-.411-.368-.516-.649 1.43-1.093 2.441-2.15 2.441-3.348 0-.634-.419-1.198-1.221-1.198-1.43 0-2.511 1.833-2.511 3.49 0 .28 0 .563.072.81-.907.668-1.582 1.085-2.802 1.825 0-.154.033-.553.135-1.068.418-.458.992-1.145.992-1.674 0-.246-.138-.459-.42-.459-.696 0-1.218 1.059-1.358 1.799-.314.389-.942.882-1.466.882-.418 0-.558-.388-.594-.53 1.326-.458 2.965-2.29 2.965-3.947 0-.351-.139-1.128-1.185-1.128-1.57 0-2.893 2.363-2.893 4.193-.559 0-.768-.598-.768-1.057s.174-.916.174-1.057-.069-.317-.279-.317c-.523 0-.837.705-.837 1.515.037 1.128.768 1.835 1.744 1.904.14.67.731 1.305 1.463 1.305.455 0 1.012-.141 1.396-.493l-.104.67c-1.535.811-2.651 1.375-3.662 2.29-.8.742-1.254 1.728-1.254 2.502 0 1.06.661 2.045 2.021 2.045 1.603 0 2.825-1.303 3.419-3.102.278-.845.389-2.075.461-3.204l3.2-2.047a1.42 1.42 0 0 0 .348.422c-.732.388-2.475 1.48-2.475 4.053 0 1.832 1.219 3.877 3.626 3.877 1.988 0 3.348-1.656 3.348-3.243-.001-1.444-.803-2.782-2.338-2.782zm5.996 3.028c-.005.01-.025.025-.065.012-.03-.01-.037-.026-.037-.046s.421-1.274.418-2.711c-.004-1.554-.628-2.506-1.428-2.506-.489 0-.838.354-.838.883 0 .952 1.15 1.023 1.15 3.102 0 .845-.174 1.655-.451 2.536-1.292 4.404-5.407 6.45-9.415 6.45-1.85 0-3.163-.385-3.554-.562-.016-.01-.03-.04-.018-.072.009-.022.037-.04.052-.034.159.062 1.287.421 2.682.421 1.534 0 2.441-.634 2.441-1.41.002-.115-.02-.23-.063-.337s-.107-.204-.188-.286-.178-.146-.285-.191a.87.87 0 0 0-.335-.067c-.942 0-1.014 1.197-3.035 1.197-.872 0-1.64-.176-2.546-.46-4.325-1.338-6.384-5.46-6.382-9.547.001-1.992.554-3.579.563-3.593s.032-.022.062-.01.037.035.036.044c-.05.165-.416 1.302-.416 2.712 0 1.552.627 2.468 1.429 2.468.111.001.22-.02.323-.062a.82.82 0 0 0 .273-.183.83.83 0 0 0 .181-.275c.041-.103.061-.213.059-.324 0-.953-1.151-1.059-1.151-3.103 0-.881.176-1.657.453-2.573 1.326-4.37 5.407-6.418 9.418-6.45 1.863-.014 3.494.55 3.556.6.011.01.022.034.011.062-.015.034-.037.038-.047.036-.019-.002-1.08-.45-2.685-.45-1.499-.001-2.441.633-2.441 1.445 0 .457.35.845.871.845.942 0 1.012-1.163 3.035-1.163.87 0 1.638.175 2.544.458 4.36 1.339 6.344 5.497 6.382 9.516.021 2.058-.554 3.614-.559 3.628zM337.829 1.6c-6.626 0-11.996 5.425-11.996 12.123s5.37 12.122 11.996 12.122 11.995-5.426 11.995-12.122c0-6.661-5.37-12.123-11.995-12.123zm0 24.845c-6.94 0-12.59-5.674-12.59-12.721 0-7.016 5.65-12.724 12.59-12.724s12.588 5.708 12.588 12.724c0 7.047-5.65 12.721-12.588 12.721zM1272.29 6v1.087h7.64V6h-7.64zm8.73 0v1.087h10.9S1290.8 6 1289.33 6h-8.31zm13.03 0v1.087h6.6l-.4-1.087h-6.2zm11.32 0l-.39 1.087h6.53V6h-6.14zm-33.08 2.113V9.2h7.64V8.113h-7.64zm8.73.002V9.2h12.16s-.14-.837-.39-1.085h-11.77zm13.03 0V9.2h7.32l-.36-1.085h-6.96zm10.54 0l-.36 1.085h7.28V8.115h-6.92zm-30.1 2.111v1.088h3.31v-1.088h-3.31zm8.73 0v1.088h3.31v-1.088h-3.31zm6.53 0v1.088h3.31s.21-.574.21-1.088h-3.52zm6.5 0v1.088h5.87l-.39-1.088h-5.48zm7.62 0l-.39 1.088h5.9v-1.088h-5.51zm-29.38 2.115v1.087h3.31V12.34l-3.31.001zm8.73 0v1.087h8.45s.71-.558.94-1.087h-9.39zm13.03 0v1.087h3.31v-.606l.21.606h6.07l.22-.606v.606h3.32V12.34h-6.22l-.33.92-.33-.92-6.25.001zm-21.76 2.113v1.087h3.31v-1.087h-3.31zm8.73 0v1.087h9.39c-.23-.528-.94-1.087-.94-1.087h-8.45zm13.03 0v1.087h3.31v-1.087h-3.31zm3.91 0l.4 1.087h4.55l.38-1.087h-5.33zm5.9 0v1.087h3.32v-1.087h-3.32zm-31.57 2.113v1.086h3.31v-1.086h-3.31zm8.73 0v1.086h3.31v-1.086h-3.31zm6.53 0v1.086h3.52c0-.512-.21-1.086-.21-1.086h-3.31zm6.5 0v1.086h3.31v-1.086h-3.31zm4.67 0l.38 1.086h3.05l.39-1.086h-3.82zm5.14 0v1.086h3.32v-1.086h-3.32zm-33.71 2.113v1.088h7.64V18.68h-7.64zm8.67 0v1.088h11.77c.25-.25.39-1.088.39-1.088h-12.16zm13.09 0v1.088h5.45V18.68h-5.45zm7.56 0l.4 1.088h1.55l.37-1.088h-2.32zm4.39 0v1.088h5.51V18.68h-5.51zm-33.71 2.114v1.087h7.64v-1.087h-7.64zm8.67 0v1.086h8.31c1.47 0 2.59-1.085 2.59-1.085l-10.9-.001zm13.09 0v1.087h5.45v-1.087h-5.45zm8.32 0l.38 1.084.07.002.39-1.085-.84-.001zm3.63 0v1.087h5.51v-1.087h-5.51zM973.668 5.68h-18.033V2.302h18.033V5.68zM974.957 1h-20.61v5.981h20.61V1zm-19.322 15.867h-1.288v-5.98h1.288v2.363h2.302v-2.364h1.288v5.982h-1.288v-2.48h-2.302v2.479zm5.541-2.622h1.535c-.029-.44-.208-.746-.711-.746-.379 0-.71.163-.824.746zm.976 2.718c-1.307 0-2.197-.833-2.197-2.2 0-1.331.871-2.25 2.027-2.25 1.259 0 1.885.852 1.885 2.125v.479h-2.691c.152.66.664.831 1.175.831.445 0 .767-.095 1.165-.344h.048v.986c-.341.249-.825.373-1.412.373zm5.077-2.603l-.663 2.508h-1.127l-1.288-4.211v-.048h1.232l.7 2.517.663-2.517h1.004l.673 2.517.711-2.517h1.184v.047l-1.289 4.211h-1.127l-.673-2.506v-.001zm5.181 2.603c-1.023 0-1.44-.411-1.44-1.378v-4.698h1.251v4.612c0 .297.113.402.359.402.097-.004.193-.023.285-.057h.019v1.043a1.5 1.5 0 0 1-.474.076zm2.046-2.718h1.534c-.028-.44-.208-.746-.71-.746-.379 0-.711.163-.824.746zm.975 2.718c-1.307 0-2.197-.833-2.197-2.2 0-1.331.871-2.25 2.027-2.25 1.26 0 1.885.852 1.885 2.125v.479h-2.69c.151.66.663.831 1.174.831.446 0 .767-.095 1.165-.344h.048v.986c-.341.249-.824.373-1.412.373zm6.848-4.354h.929v1.014h-.929v1.732c0 .373.143.546.522.546.104 0 .236-.01.378-.057h.029v.995c-.247.087-.506.129-.767.124-1.014 0-1.412-.469-1.412-1.55v-1.79h-1.601v1.732c0 .373.143.546.521.546.105 0 .237-.01.379-.057h.029v.995c-.247.086-.506.128-.767.124-1.014 0-1.412-.469-1.412-1.55v-1.79h-.644v-1.014h.644V11.44h1.25v1.168h1.601V11.44h1.25v1.169zm5.141 1.215c.654 0 .966-.373.966-.909 0-.555-.312-.928-.966-.928h-.815v1.837h.815zm2.274-.909c0 1.302-.862 2.01-2.17 2.01h-.919v1.942h-1.287v-5.98h2.206c1.308 0 2.17.707 2.17 2.028zm2.745 2.613v-.364c-.189-.104-.435-.143-.691-.143-.407 0-.653.153-.653.497 0 .355.246.508.615.508a.73.73 0 0 0 .729-.498zm.038.919c-.274.335-.681.498-1.118.498-.823 0-1.496-.507-1.496-1.408 0-.832.673-1.387 1.639-1.387.302 0 .616.048.937.143v-.076c0-.46-.255-.66-.927-.66-.427 0-.834.123-1.185.325h-.047v-1.014c.322-.192.891-.355 1.449-.355 1.269 0 1.961.613 1.961 1.685v2.67h-1.213v-.421zm1.848-1.704c0-1.369.957-2.23 2.207-2.23.445 0 .862.096 1.175.325v1.082h-.048c-.276-.217-.616-.335-.966-.335-.625 0-1.099.431-1.099 1.158s.474 1.149 1.099 1.149c.369 0 .691-.125.966-.336h.048v1.082c-.313.23-.73.325-1.175.325-1.25 0-2.207-.85-2.207-2.22zm5.417.192v1.932h-1.25v-5.98h1.25v3.406l1.258-1.684h1.42v.047l-1.51 1.934 1.51 2.23v.047h-1.43l-1.248-1.932zm5.488.593v-.364c-.19-.104-.44-.143-.69-.143-.41 0-.66.153-.66.497 0 .355.25.508.62.508.35 0 .61-.182.73-.498zm.03.919c-.27.335-.68.498-1.11.498-.83 0-1.5-.507-1.5-1.408 0-.832.67-1.387 1.64-1.387.3 0 .61.048.94.143v-.076c0-.46-.26-.66-.93-.66-.42.003-.83.115-1.19.325h-.04v-1.014c.32-.192.89-.355 1.45-.355 1.27 0 1.96.613 1.96 1.685v2.67h-1.22v-.421zm3.32-3.149c.23-.47.56-.737 1.02-.737.17 0 .34.038.41.077v1.206h-.05c-.17-.068-.36-.101-.55-.096-.39 0-.69.23-.79.67v2.45h-1.25v-4.26h1.21v.69zm4.74 2.124v-1.369c-.2-.306-.48-.44-.79-.44-.55 0-.92.403-.92 1.13s.37 1.12.92 1.12a.91.91 0 0 0 .79-.44v-.001zm.04 1.006c-.26.344-.68.535-1.25.535-1.08 0-1.77-.995-1.77-2.22s.69-2.23 1.77-2.23c.55 0 .95.172 1.21.488v-2.114h1.25v5.98h-1.21v-.439zm-59.013 2.393h3.656v.727h-2.832v1.828h2.567v.708h-2.567v1.991h2.832v.727h-3.656v-5.981zm6.678 1.684c.937 0 1.458.622 1.458 1.646v2.651h-.786V22.17c0-.545-.275-.938-.871-.938-.493 0-.909.316-1.052.765v2.805h-.786v-4.21h.786v.612a1.43 1.43 0 0 1 .531-.518c.22-.123.468-.185.72-.181zm3.571.086h1.071v.68h-1.071v2.268c0 .478.247.641.692.641.119.002.237-.017.35-.057h.029v.679a1.28 1.28 0 0 1-.493.086c-.976 0-1.364-.45-1.364-1.273v-2.344h-.72v-.68h.72v-1.119h.786v1.119zm2.387 1.694h2.074c-.028-.622-.332-1.1-.975-1.1-.597 0-.986.45-1.099 1.1zm1.241 2.603c-1.223 0-2.056-.823-2.056-2.144s.777-2.24 1.904-2.24c1.146 0 1.743.834 1.743 2.068v.364h-2.861c.085.852.626 1.263 1.374 1.263a1.76 1.76 0 0 0 1.165-.383h.028v.7c-.341.267-.786.372-1.297.372zm3.305-3.646a1.1 1.1 0 0 1 1.032-.718c.181 0 .341.029.408.067v.785h-.029c-.114-.057-.303-.086-.492-.086-.426 0-.787.287-.919.765v2.747h-.786v-4.21h.786v.65zm3.978 2.928c.776 0 1.231-.621 1.231-1.474 0-.842-.455-1.473-1.231-1.473-.427 0-.824.259-1.032.67v1.617c.208.412.605.66 1.032.66zm.133-3.665c1.24 0 1.903 1.024 1.903 2.192s-.663 2.192-1.903 2.192a1.5 1.5 0 0 1-.646-.146c-.201-.096-.379-.236-.519-.41v2.087h-.787v-5.83h.787v.479c.217-.297.653-.564 1.165-.564zm3.617.737c.078-.211.218-.393.403-.522a1.1 1.1 0 0 1 .63-.196c.18 0 .341.029.407.067v.785h-.028c-.114-.057-.303-.086-.493-.086-.426 0-.786.287-.919.765v2.747h-.786v-4.21h.786v.65zm2.577-2.354a.5.5 0 0 1 .191.037c.061.025.116.061.163.107a.49.49 0 0 1 .109.162.5.5 0 0 1 .04.191c.001.099-.028.197-.084.279s-.135.146-.227.182a.5.5 0 0 1-.289.027c-.097-.02-.186-.067-.255-.137a.5.5 0 0 1-.15-.35c0-.278.237-.498.502-.498zm-.389 5.914h.787v-4.21h-.787v4.21zm3.59-2.46c.597.191 1.26.44 1.26 1.244 0 .862-.701 1.302-1.601 1.302-.549 0-1.098-.134-1.411-.383v-.755h.038c.351.325.871.468 1.364.468.445 0 .843-.173.843-.536 0-.373-.331-.46-.985-.68-.588-.19-1.241-.411-1.241-1.205 0-.814.663-1.292 1.506-1.292.492 0 .928.105 1.278.345v.765h-.028a1.88 1.88 0 0 0-1.231-.44c-.493 0-.768.22-.768.517 0 .335.303.43.976.65zm2.757-.057h2.074c-.028-.622-.331-1.1-.976-1.1-.596 0-.985.45-1.098 1.1zm1.24 2.603c-1.221 0-2.055-.823-2.055-2.144s.777-2.24 1.904-2.24c1.146 0 1.743.834 1.743 2.068v.364h-2.861c.086.852.625 1.263 1.373 1.263.465 0 .796-.105 1.165-.383h.029v.7c-.341.267-.786.372-1.298.372zM532.82 11.796c-1.014.234-3.693.364-3.693.364l-.329 1.057s1.326-.112 2.297-.017c0 0 .312-.026.347.347.017.381-.026.78-.026.78s-.026.234-.347.295c-.373.06-2.887.173-2.887.173l-.407 1.37s-.147.312.191.225c.312-.087 2.947-.59 3.294-.52.364.087.78.59.658 1.04-.138.546-2.773 2.228-4.368 2.115 0 0-.841.052-1.543-1.083-.677-1.084.234-3.121.234-3.121s-.408-.954-.104-1.3c0 0 .173-.148.693-.191l.65-1.335s-.737.043-1.17-.494c-.399-.52-.433-.745-.121-.884.329-.174 3.38-.72 5.478-.65 0 0 .737-.087 1.387 1.187 0 0 .295.52-.225.642h-.009zm-7.906 5.131c-.26.633-.979 1.3-1.846.893-.884-.416-2.28-3.259-2.28-3.259s-.52-1.058-.624-1.023c0 0-.113-.208-.173.954-.087 1.152.017 3.398-.46 3.753-.433.347-.953.2-1.248-.208-.243-.407-.347-1.387-.208-3.095.156-1.707.546-3.528 1.04-4.091.52-.572.936-.156 1.092 0 0 0 .668.607 1.795 2.401l.19.33s1.023 1.707 1.127 1.698c0 0 .087.087.156.018.104-.026.07-.581.07-.581s-.191-1.846-1.145-4.967c0 0-.138-.399-.043-.78.087-.347.46-.174.46-.174s1.439.694 2.141 3.034c.693 2.34.225 4.465-.035 5.097h-.009zm-7.056-6.007c-.139.243-.199.581-.797.676 0 0-5.808.408-6.094.815 0 0-.191.243.121.304.329.069 1.647.242 2.271.277.676 0 2.947.017 3.78 1.04 0 0 .476.486.459 1.586-.017 1.127-.217 1.526-.659 1.934-.459.381-4.395 2.15-6.935-.555 0 0-1.161-1.3.408-2.289 0 0 1.127-.693 4.013.113 0 0 .867.312.833.633-.052.347-.72.693-1.691.676-.936-.026-1.629-.477-1.491-.399.13.044-1.014-.555-1.369-.147-.347.381-.26.607.086.84.867.503 4.274.321 5.288-.814 0 0 .408-.46-.208-.832-.607-.347-2.375-.564-3.06-.59-.65-.035-3.086 0-3.45-.633 0 0-.347-.45.035-1.681.398-1.3 3.233-1.803 4.464-1.907 0 0 3.381-.139 4.013.554 0 0 .087.156-.017.39v.009zm-9.587 7.62c-.408.303-1.275.173-1.526-.174-.243-.303-.329-1.5-.286-3.38.061-1.925.087-4.283.52-4.664.434-.373.694-.043.867.208.173.26.399.546.433 1.144.052.607.2 3.728.2 3.728s.191 2.843-.2 3.138h-.008zm.867-10.142c-1.197.407-2.011.277-2.705-.026-.303.546-.485.71-.711.745-.347.035-.65-.52-.693-.693-.07-.13-.234-.364-.035-.893-.676-.607-.728-1.422-.607-1.968.156-.641 1.301-3.051 4.768-3.337 0 0 1.699-.122 1.994.78h.052s1.647 0 1.612 1.473c0 1.474-1.82 3.312-3.675 3.945v-.026zm1.543-4.196c-1.093.173-2.774 1.63-3.58 2.835 1.239.225 3.406.138 4.377-1.82 0 0 .46-1.232-.797-1.015zm-4.794.954c-.347.563-.364.901-.199 1.127.407-.607 1.126-1.56 2.21-2.306-.832.086-1.534.433-2.011 1.179zm29.534 13.323c-.798 1.96-1.474 3.944-1.864 6.918 0 0-.087.58-.564.39-.476-.174-1.257-.954-1.43-2.055-.173-1.439.468-3.866 1.777-6.657-.381-.607-.65-1.508-.433-2.774 0 0 .346-2.34 2.687-4.456 0 0 .277-.234.433-.156.191.087.113.832-.043 1.214-.139.364-1.179 2.167-1.179 2.167s-.65 1.23-.468 2.193c1.231-1.89 4.031-5.721 5.765-4.508 1.1.78 1.1 3.294.277 4.75-.65 1.154-2.488 3.538-4.941 2.983l-.017-.009zm3.623-5.886c-.641.694-1.786 2.011-2.687 3.797.953-.104 1.881-.633 2.167-.902.459-.407 1.517-1.508 1.352-2.964 0 0-.104-.764-.832.069zm-38.835 6.909c-3.069.936-5.964.503-7.542.087-.043.641-.112.91-.216 1.014-.122.139-1.127.71-1.682-.104-.243-.39-.364-1.092-.433-1.734-3.554-1.612-5.201-3.987-5.253-4.074-.087-.087-.893-.928-.087-1.968.754-.936 3.251-1.88 5.487-2.254.087-1.907.295-3.38.563-4.03.321-.78.729-.087 1.093.433.294.39.476 2.063.494 3.398 1.456-.07 2.34.035 3.961.347 2.133.364 3.554 1.456 3.442 2.687-.104 1.214-1.214 1.716-1.647 1.751s-1.127-.286-1.127-.286c-.486-.225-.044-.433.52-.676.624-.303.485-.607.485-.607-.225-.693-2.99-1.153-5.738-1.153 0 1.517.06 4.031.104 5.496 1.924.364 3.363.286 3.363.286s7.022-.2 7.221-4.68c.217-4.491-7.021-8.79-12.353-10.143-5.322-1.396-8.339-.408-8.599-.277-.286.138-.026.19-.026.19s.286.044.806.217.104.433.104.433c-.91.312-1.924.13-2.123-.286-.2-.407.13-.78.52-1.326.364-.563.78-.546.78-.546 6.588-2.297 14.632 1.82 14.632 1.82 7.525 3.797 8.808 8.261 8.669 9.995-.121 1.708-.78 4.594-5.418 5.999v-.009zm-14.476-6.198c-.746.347-.226.902-.226.902 1.405 1.5 3.121 2.444 4.768 3.034.191-2.601.173-3.528.173-4.837-2.548.173-4.022.589-4.715.901zM204.639 6l-3.77 8.065-1.418-3.056h-1.532l2.331 4.998h1.24L206.16 6h-1.521zm-16.172 14.974h3.035V15.42c0-1.27.735-2.163 1.827-2.163 1.05 0 1.597.735 1.597 1.796v5.922h3.034v-6.5c0-2.205-1.323-3.76-3.465-3.76-1.365 0-2.32.589-3.035 1.66h-.063V11.01h-2.94l.01 9.964zm-5.964-10.238c-3.171 0-5.293 2.279-5.293 5.282 0 2.982 2.122 5.282 5.293 5.282s5.292-2.3 5.292-5.282c.01-3.003-2.12-5.282-5.292-5.282zm-.021 8.317c-1.439 0-2.205-1.208-2.205-3.035 0-1.848.756-3.035 2.205-3.035 1.439 0 2.237 1.187 2.237 3.035.01 1.827-.788 3.035-2.237 3.035zm-13.924 1.921h8.526V18.58h-4.83v-.063l4.62-5.177v-2.342h-8.317v2.405h4.673v.063l-4.673 5.22.001 2.288zm-3.896 0h3.055V11.01h-3.055v9.964zm-7.089 0h3.046v-4.578c0-2.08 1.25-3.003 3.15-2.74h.063V11.03c-.157-.063-.336-.074-.62-.074-1.186 0-1.984.546-2.667 1.712h-.063v-1.66h-2.909v9.966zm-5.586-1.91c-1.344 0-2.163-.872-2.32-2.216h7.182c.02-2.143-.546-3.854-1.733-4.925-.84-.778-1.942-1.208-3.35-1.208-3.003 0-5.082 2.279-5.082 5.26 0 3.004 1.985 5.293 5.282 5.293 1.25 0 2.237-.336 3.056-.892.871-.599 1.501-1.48 1.67-2.352h-2.92c-.283.65-.893 1.04-1.785 1.04zm-.158-6.175c1.072 0 1.807.798 1.933 1.963h-4.075c.242-1.176.882-1.963 2.142-1.963zm-11.215 8.085h3.193l3.465-9.965h-3.056l-1.943 6.406h-.042l-1.942-6.406h-3.14l3.465 9.965zM164.662 7.46h3.055v2.709h-3.055V7.46zm917.668 7.956l-.55 1.567h-.05c-.14-.524-.32-1.038-.54-1.536l-2.96-7.452h-2.9v11.877h1.92v-7.33l-.02-1.628c-.01-.323-.05-.568-.06-.753h.05c.09.461.19.8.27 1.014l3.57 8.666h1.35l3.53-8.743c.08-.2.16-.599.23-.937h.05l-.09 2.136v7.528h2.04V7.965h-2.8l-3.04 7.45v.001zm7.78-4.102h1.99v8.511h-1.99v-8.511zm1.01-3.596c-.34 0-.61.123-.85.338a1.09 1.09 0 0 0-.35.83c0 .323.12.6.35.814a1.21 1.21 0 0 0 .85.323 1.2 1.2 0 0 0 .84-.323 1 1 0 0 0 .27-.369 1.13 1.13 0 0 0 .09-.445 1.11 1.11 0 0 0-.36-.83c-.19-.215-.49-.338-.84-.338zm8.07 3.519a5.65 5.65 0 0 0-1.13-.123c-.9 0-1.73.2-2.42.599s-1.25.953-1.6 1.644c-.37.707-.55 1.521-.55 2.458 0 .815.18 1.537.53 2.197.36.646.85 1.168 1.51 1.521.63.354 1.37.538 2.2.538.95 0 1.76-.2 2.41-.568l.01-.016v-1.843l-.07.061c-.29.215-.63.4-.97.507-.31.113-.63.175-.95.184-.8 0-1.43-.23-1.88-.737-.46-.492-.69-1.168-.69-2.013 0-.876.23-1.567.71-2.074.47-.507 1.1-.768 1.87-.768.65 0 1.31.215 1.91.645l.07.062v-1.952l-.01-.015c-.26-.107-.55-.23-.95-.307zm6.59-.062c-.49 0-.96.154-1.35.477-.34.276-.57.676-.77 1.152h-.02v-1.49h-2v8.511h2v-4.348c0-.737.16-1.352.49-1.797.34-.461.77-.692 1.29-.692.19 0 .37.046.6.077.22.062.37.123.48.2l.08.061V11.33l-.05-.015c-.14-.093-.41-.14-.75-.14zm5.44-.046c-1.4 0-2.52.415-3.31 1.23-.8.814-1.18 1.935-1.18 3.349 0 1.321.4 2.397 1.17 3.18.77.768 1.81 1.168 3.12 1.168 1.36 0 2.45-.415 3.24-1.245.8-.83 1.18-1.936 1.18-3.303 0-1.352-.37-2.427-1.12-3.211-.72-.784-1.78-1.168-3.1-1.168zm1.59 6.545c-.36.477-.95.707-1.67.707s-1.31-.23-1.72-.737c-.42-.477-.62-1.168-.62-2.044 0-.906.22-1.598.62-2.09.41-.491.98-.737 1.7-.737.71 0 1.26.23 1.66.707s.62 1.168.62 2.074c-.03.922-.2 1.644-.59 2.12zm7.09-2.827c-.63-.26-1.03-.46-1.22-.63-.15-.153-.23-.368-.23-.645a.72.72 0 0 1 .33-.614c.23-.154.49-.23.87-.23.34 0 .69.06 1.03.153a2.56 2.56 0 0 1 .89.415l.08.061v-1.874l-.05-.016a5.33 5.33 0 0 0-.9-.261 6.3 6.3 0 0 0-.99-.092c-.95 0-1.73.23-2.35.737-.61.477-.9 1.122-.9 1.875 0 .4.06.753.2 1.044.13.292.33.569.61.8.28.215.68.46 1.23.69.46.2.81.354 1.03.477.21.123.35.261.46.369a.8.8 0 0 1 .12.476c0 .569-.43.845-1.3.845a3.42 3.42 0 0 1-1.11-.2c-.4-.133-.78-.325-1.12-.568l-.08-.061v1.95l.05.016c.29.139.64.23 1.07.338.43.077.82.139 1.16.139 1.02 0 1.87-.231 2.47-.738.61-.492.94-1.122.94-1.936 0-.568-.16-1.075-.5-1.46-.53-.452-1.14-.81-1.79-1.06zm7.56-3.718c-1.4 0-2.52.415-3.31 1.23-.78.814-1.18 1.935-1.18 3.349 0 1.321.4 2.397 1.17 3.18.77.768 1.81 1.168 3.12 1.168 1.36 0 2.45-.415 3.24-1.245.8-.83 1.18-1.936 1.18-3.303 0-1.352-.37-2.427-1.12-3.211-.72-.784-1.78-1.168-3.1-1.168zm1.58 6.545c-.37.477-.95.707-1.68.707s-1.3-.23-1.72-.737c-.41-.477-.61-1.168-.61-2.044 0-.906.21-1.598.61-2.09.42-.491.99-.737 1.71-.737.69 0 1.26.23 1.66.707s.61 1.168.61 2.074c0 .922-.2 1.644-.58 2.12zm13.32-4.716v-1.644h-2.01v-2.52l-.06.015-1.91.569-.04.015v1.92h-3.02v-1.075c0-.492.13-.876.34-1.122.22-.245.54-.368.94-.368a2.24 2.24 0 0 1 .89.2l.08.046V7.257l-.05-.015c-.28-.092-.65-.154-1.12-.154a3.61 3.61 0 0 0-1.6.37c-.48.26-.83.614-1.09 1.09-.26.46-.4.983-.4 1.582v1.184h-1.4v1.628h1.4v6.883h2.01v-6.867h3.02v4.378c0 1.798.84 2.705 2.53 2.705.28 0 .57-.047.85-.093.29-.061.5-.138.63-.2l.01-.015V18.09l-.08.062c-.13.085-.27.147-.41.184a1.37 1.37 0 0 1-.4.061c-.4 0-.68-.092-.88-.322-.18-.215-.27-.569-.27-1.091v-4.026h2.04zM1049.57 4h9.42v9.418h-9.42V4zm10.41 0h9.41v9.418h-9.41V4zm-10.41 10.402h9.42v9.418h-9.42v-9.418zm10.41 0h9.41v9.418h-9.41v-9.418z"/></g><defs ><path id="B" d="M1663.47 13.169c0-2.604 2.11-4.715 4.72-4.715 2.6 0 4.71 2.111 4.71 4.715s-2.11 4.715-4.71 4.715c-2.61 0-4.72-2.111-4.72-4.715zm4.72 2.986c1.45 0 2.63-1.337 2.63-2.986s-1.18-2.986-2.63-2.986c-1.46 0-2.64 1.337-2.64 2.986s1.18 2.986 2.64 2.986z"/></defs></svg>