<svg xmlns="http://www.w3.org/2000/svg" width="1003" height="35" fill="#c6d2d9"  xmlns:v="https://vecta.io/nano"><path d="M26.008 6.88H1.735V2.57h24.273v4.31zM27.743.909H0V8.54h27.742V.909h.001zM1.734 21.153H0v-7.631h1.734v3.016h3.098v-3.016h1.734v7.631H4.832v-3.162H1.734v3.162h.001zm7.459-3.345h2.066c-.039-.561-.281-.952-.957-.952-.51 0-.957.208-1.109.952zm1.313 3.468c-1.759 0-2.957-1.062-2.957-2.808 0-1.698 1.173-2.87 2.728-2.87 1.695 0 2.537 1.086 2.537 2.71v.611H9.193c.204.842.893 1.061 1.581 1.061a2.8 2.8 0 0 0 1.568-.439h.064V20.8c-.459.318-1.11.477-1.9.477zm6.834-3.322l-.893 3.199H14.93l-1.734-5.373v-.061h1.658l.943 3.212.892-3.212h1.352l.905 3.212.956-3.212h1.594v.061l-1.735 5.374h-1.518l-.905-3.2zm6.973 3.322c-1.377 0-1.938-.525-1.938-1.758v-5.995h1.683v5.885c0 .379.153.513.484.513a1.32 1.32 0 0 0 .383-.073h.026v1.331c-.141.049-.383.097-.638.097zm2.755-3.468h2.066c-.039-.561-.281-.952-.957-.952-.51 0-.957.208-1.109.952zm1.313 3.468c-1.759 0-2.957-1.062-2.957-2.808 0-1.698 1.173-2.87 2.729-2.87 1.695 0 2.537 1.086 2.537 2.71v.611h-3.621c.204.842.892 1.061 1.581 1.061a2.8 2.8 0 0 0 1.569-.439h.064V20.8c-.459.318-1.109.477-1.9.477zm9.218-5.556h1.25v1.294h-1.251v2.21c0 .476.191.697.702.697a1.66 1.66 0 0 0 .51-.074h.038v1.27c-.217.074-.548.158-1.032.158-1.365 0-1.9-.598-1.9-1.978v-2.283H33.76v2.21c0 .476.191.697.7.697a1.64 1.64 0 0 0 .511-.074h.038v1.27c-.217.074-.549.158-1.033.158-1.365 0-1.9-.598-1.9-1.978v-2.283h-.867V15.72h.867v-1.49h1.683v1.489h2.154V14.23h1.683v1.489h.001zm6.92 1.55c.881 0 1.301-.476 1.301-1.16 0-.708-.42-1.184-1.3-1.184h-1.097v2.345h1.096v-.001zm3.061-1.16c0 1.661-1.161 2.565-2.92 2.565h-1.237v2.479H41.69v-7.631h2.97c1.76 0 2.92.904 2.92 2.588h.001zm3.697 3.335v-.464c-.256-.134-.586-.183-.931-.183-.548 0-.88.195-.88.634 0 .452.331.647.828.647.472 0 .829-.232.981-.636l.001.001zm.051 1.172c-.37.427-.917.634-1.505.634-1.109 0-2.014-.646-2.014-1.795 0-1.062.906-1.77 2.205-1.77a4.61 4.61 0 0 1 1.263.183v-.097c0-.586-.344-.842-1.248-.842-.575 0-1.122.158-1.594.415h-.064V16.05c.433-.243 1.199-.451 1.95-.451 1.709 0 2.64.781 2.64 2.148v3.407h-1.632v-.536zm2.486-2.174c0-1.746 1.288-2.845 2.971-2.845.599 0 1.16.122 1.581.415v1.38H58.3a2.17 2.17 0 0 0-1.3-.428c-.841 0-1.479.55-1.479 1.478s.638 1.465 1.479 1.465a2.17 2.17 0 0 0 1.3-.428h.065v1.38c-.422.293-.982.415-1.581.415-1.683 0-2.971-1.086-2.971-2.832zm7.292.243v2.466h-1.682v-7.631h1.682v4.347l1.696-2.15h1.913v.061l-2.04 2.467 2.04 2.845v.061h-1.926l-1.683-2.466zm7.383.758v-.464c-.255-.134-.587-.183-.931-.183-.548 0-.88.195-.88.634 0 .452.331.647.828.647.473 0 .83-.232.983-.636v.001zm.05 1.172c-.369.427-.918.634-1.505.634-1.109 0-2.014-.646-2.014-1.795 0-1.062.905-1.77 2.206-1.77.427.003.852.064 1.261.183v-.097c0-.586-.344-.842-1.25-.842a3.35 3.35 0 0 0-1.594.415h-.064V16.05c.434-.243 1.199-.451 1.951-.451 1.71 0 2.64.781 2.64 2.148v3.407h-1.633v-.536zm4.463-4.019c.305-.599.752-.94 1.377-.94.229 0 .459.049.547.098v1.538h-.063c-.191-.074-.421-.122-.739-.122-.523 0-.931.293-1.072.855v3.127H71.37v-5.434h1.632v.879zm6.387 2.712v-1.746c-.28-.391-.649-.561-1.071-.561-.739 0-1.236.513-1.236 1.441s.498 1.428 1.236 1.428a1.26 1.26 0 0 0 1.071-.561zm.051 1.282c-.357.44-.918.684-1.682.684-1.454 0-2.384-1.269-2.384-2.832s.931-2.845 2.384-2.845c.739 0 1.275.22 1.632.622v-2.698h1.683v7.631h-1.632v-.561zM0 23.646h4.921v.928H1.109v2.331h3.455v.904H1.109v2.54h3.812v.927H0v-7.631zm8.988 2.149c1.261 0 1.963.794 1.963 2.1v3.382H9.893v-3.358c0-.696-.37-1.196-1.173-1.196-.313-.003-.619.09-.874.266s-.444.425-.542.711v3.577H6.247v-5.372h1.058v.781c.331-.5.892-.891 1.683-.891zm4.807.11h1.44v.867h-1.44v2.894c0 .61.331.818.931.818.165 0 .344-.025.472-.074h.039v.867a1.79 1.79 0 0 1-.664.11c-1.313 0-1.835-.574-1.835-1.623v-2.992h-.969v-.867h.969v-1.428h1.057v1.428h.001zm3.213 2.16H19.8c-.038-.793-.446-1.403-1.313-1.403-.803 0-1.326.574-1.479 1.403zm1.67 3.322c-1.645 0-2.767-1.05-2.767-2.735s1.046-2.857 2.563-2.857c1.543 0 2.346 1.062 2.346 2.637v.464h-3.85c.115 1.087.842 1.611 1.848 1.611.625 0 1.071-.134 1.568-.488h.039v.892c-.459.342-1.059.476-1.747.476zm4.45-4.651a1.48 1.48 0 0 1 1.389-.916c.242 0 .459.036.548.085v1h-.038c-.154-.072-.409-.109-.663-.109-.573 0-1.058.366-1.237.977v3.504h-1.058v-5.372h1.058v.829h.001zm5.354 3.736c1.046 0 1.658-.794 1.658-1.881 0-1.074-.612-1.879-1.658-1.879-.574 0-1.109.329-1.389.854v2.064c.28.524.815.842 1.389.842zm.179-4.676c1.669 0 2.562 1.307 2.562 2.795s-.892 2.797-2.562 2.797c-.689 0-1.276-.342-1.568-.709v2.663h-1.059v-7.436h1.058v.611c.293-.378.88-.72 1.568-.72h.001zm4.87.941a1.48 1.48 0 0 1 1.39-.916c.242 0 .459.036.547.085v1h-.038c-.153-.072-.408-.109-.663-.109-.574 0-1.058.366-1.237.977v3.504h-1.057v-5.372h1.057v.83zm3.468-3.004c.37 0 .675.281.675.635a.63.63 0 0 1-.201.452.68.68 0 0 1-.474.183c-.357 0-.676-.281-.676-.635s.32-.635.676-.635zm-.523 7.546h1.059v-5.372h-1.059v5.372zm4.833-3.138c.803.243 1.695.561 1.695 1.587 0 1.099-.944 1.661-2.155 1.661-.739 0-1.479-.171-1.9-.488v-.965h.052c.471.416 1.173.599 1.835.599.599 0 1.135-.221 1.135-.684 0-.476-.446-.586-1.326-.867-.791-.244-1.669-.525-1.669-1.538 0-1.039.892-1.648 2.027-1.648.663 0 1.249.134 1.721.439v.977h-.038a2.62 2.62 0 0 0-1.658-.562c-.663 0-1.033.281-1.033.659 0 .428.407.549 1.313.831zm3.71-.074h2.791c-.038-.793-.446-1.403-1.313-1.403-.803 0-1.326.574-1.479 1.403zm1.669 3.322c-1.644 0-2.766-1.05-2.766-2.735s1.045-2.857 2.562-2.857c1.544 0 2.346 1.062 2.346 2.637v.464h-3.85c.115 1.087.841 1.611 1.849 1.611.625 0 1.071-.134 1.568-.488h.039v.892c-.459.342-1.059.476-1.747.476zm95.751-7.829c-2.79 0-5.38-.837-7.109-2.388-1.306-1.172-1.934-2.765-1.934-4.404a5.92 5.92 0 0 1 1.934-4.388c1.605-1.463 4.44-2.379 7.109-2.379 2.953 0 5.317.744 7.124 2.384 1.285 1.167 1.907 2.763 1.907 4.385a6.11 6.11 0 0 1-1.907 4.403c-1.683 1.562-4.327 2.388-7.124 2.388v-1.788c1.48 0 2.854-.511 3.813-1.466.953-.948 1.397-2.113 1.397-3.538 0-1.364-.479-2.64-1.397-3.545-.946-.932-2.353-1.457-3.813-1.457-1.466 0-2.873.519-3.82 1.457-.913.904-1.393 2.184-1.393 3.545s.485 2.635 1.393 3.538c.948.943 2.35 1.466 3.82 1.466v1.788h0zm-20.393-13.553c-1.492 0-3.187.279-4.628.922-1.33.593-2.418 1.553-2.418 3.143-.001 1.433.91 2.272.885 2.248.387.357 1.011.964 2.641 1.32.728.159 2.286.404 3.836.566l3.672.473c.49.125 1.314.295 1.314 1.219s-.868 1.201-1.019 1.262-1.191.537-3.062.537a12.98 12.98 0 0 1-3.648-.632c-.697-.248-1.429-.577-2.112-1.411a2.43 2.43 0 0 1-.438-1.339h-1.693v4.745h1.882v-.641c0-.073.091-.373.407-.23a14.84 14.84 0 0 0 2.754.89c.989.207 1.627.355 2.857.355 2.007 0 3.085-.327 3.831-.54.702-.201 1.569-.562 2.274-1.124.382-.304 1.219-1.083 1.219-2.497 0-1.357-.729-2.2-.985-2.456a4.29 4.29 0 0 0-1.22-.829 8.96 8.96 0 0 0-1.498-.523c-.97-.238-3.163-.532-4.212-.642l-3.771-.509c-.231-.072-.702-.296-.702-.843 0-.389.215-.719.641-.985.676-.424 2.041-.687 3.464-.687 1.682-.006 3.107.378 4.013.784a4.41 4.41 0 0 1 .956.569c.323.263.777.811.941 1.575h1.52v-4.13h-1.697v.48c0 .155-.16.356-.463.19-.76-.399-2.908-1.258-5.541-1.262h0zm37.201.75l8.28 7.473-.085-5.031c-.008-.66-.13-.935-.843-.935h-1.557v-1.505h7.08v1.505h-1.519c-.728 0-.773.233-.782.935l.128 9.614h-2.425l-9.537-8.512.002 6.041c.008.657.039.966.715.966h1.701v1.505h-6.953v-1.504h1.625c.607 0 .583-.579.583-1v-7.052c0-.455-.064-.991-1.017-.991h-1.319v-1.508h5.923zm20.966 10.548c.066 0 .361-.009.419-.026a.52.52 0 0 0 .325-.289c.022-.051.033-.277.033-.326l.001-2.379c0-.057-.004-.082-.101-.209a923.91 923.91 0 0 0-4.531-5.145c-.241-.262-.663-.667-1.304-.667h-1.472v-1.506h8.303v1.504h-1c-.232 0-.386.22-.188.464l2.82 3.377c.026.036.048.044.084.012s2.863-3.358 2.886-3.384a.29.29 0 0 0-.247-.466h-1.027v-1.506h6.805v1.506h-1.52c-.552 0-.776.102-1.191.571l-4.582 5.227c-.061.069-.056.165-.056.223v2.378a1.65 1.65 0 0 0 .033.325c.051.122.163.239.326.289.057.018.349.026.415.026h1.555v1.505h-8.26v-1.506l1.474.001h0zm138.862 6.324c-1.668-.063-3.031-.5-4.097-1.311-.204-.155-.689-.619-.851-.816-.433-.521-.727-1.027-.923-1.589-.604-1.731-.293-4.001.889-6.494 1.011-2.134 2.571-4.25 5.294-7.181l1.602-1.693c.003 0-.062.108-.144.239-.708 1.135-1.313 2.473-1.644 3.63-.529 1.858-.465 3.452.188 4.688a4.7 4.7 0 0 0 2.092 1.997c1.521.713 3.748.773 6.468.173.187-.041 9.465-2.4 20.617-5.241l20.281-5.162c.003.002-25.911 10.62-39.363 16.129-2.13.872-2.701 1.092-3.702 1.429-2.56.861-4.854 1.272-6.707 1.201zm141.144-9.091c-1.177.272-4.288.423-4.288.423l-.383 1.228s1.54-.13 2.668-.02c0 0 .362-.03.403.403.02.442-.03.906-.03.906s-.031.272-.403.343c-.432.07-3.352.201-3.352.201l-.474 1.591s-.17.362.222.261c.362-.101 3.422-.685 3.825-.604.423.101.906.685.766 1.208-.162.634-3.222 2.587-5.074 2.456 0 0-.977.06-1.792-1.258-.785-1.259.272-3.625.272-3.625s-.473-1.108-.121-1.51c0 0 .201-.172.805-.222l.756-1.55s-.856.05-1.36-.574c-.462-.604-.503-.865-.141-1.027.382-.202 3.927-.836 6.362-.755 0 0 .856-.101 1.611 1.378 0 0 .342.604-.261.746h-.011zm-9.18 5.959c-.302.735-1.138 1.51-2.145 1.037-1.027-.483-2.648-3.785-2.648-3.785s-.604-1.229-.725-1.188c0 0-.13-.242-.201 1.108-.101 1.338.02 3.946-.533 4.359-.504.403-1.107.232-1.45-.242-.281-.473-.402-1.611-.242-3.594.182-1.982.634-4.097 1.208-4.751.605-.664 1.088-.181 1.27 0 0 0 .774.705 2.083 2.788l.222.383 1.309 1.972s.099.101.181.021c.12-.03.08-.675.08-.675s-.222-2.144-1.329-5.768c0 0-.161-.463-.051-.906.101-.403.534-.202.534-.202s1.672.806 2.487 3.524c.805 2.717.261 5.185-.041 5.919h-.009zm-8.196-6.976c-.16.282-.231.675-.925.785 0 0-6.745.474-7.077.946 0 0-.222.282.14.353a28.98 28.98 0 0 0 2.639.322c.785 0 3.422.02 4.388 1.208 0 0 .554.564.533 1.843-.019 1.308-.25 1.771-.764 2.245-.534.442-5.104 2.497-8.053-.645 0 0-1.35-1.51.472-2.658 0 0 1.309-.805 4.662.131 0 0 1.007.362.966.735-.06.403-.836.805-1.963.785-1.088-.03-1.893-.554-1.731-.463.151.051-1.179-.644-1.591-.171-.403.443-.302.705.101.976 1.007.584 4.962.373 6.14-.945 0 0 .474-.534-.242-.966-.704-.403-2.758-.655-3.554-.685-.754-.04-3.583 0-4.006-.735 0 0-.402-.523.041-1.952.463-1.51 3.754-2.094 5.184-2.215 0 0 3.926-.162 4.661.643 0 0 .101.181-.021.453v.011zM431.71 26.37c-.473.352-1.48.201-1.772-.202-.281-.352-.382-1.742-.333-3.925.071-2.236.102-4.974.606-5.416.502-.433.804-.05 1.005.242.202.302.464.634.504 1.329l.231 4.329s.222 3.302-.231 3.644h-.01zm1.007-11.778c-1.389.473-2.336.322-3.142-.03-.352.634-.563.825-.824.865-.403.041-.756-.604-.806-.805-.08-.151-.272-.423-.041-1.037-.785-.705-.845-1.651-.704-2.286.182-.744 1.51-3.543 5.536-3.875 0 0 1.973-.142 2.316.906h.06s1.913 0 1.872 1.711c0 1.712-2.113 3.846-4.267 4.581v-.03zm1.792-4.873c-1.269.201-3.222 1.893-4.158 3.292 1.439.261 3.957.16 5.083-2.114 0 0 .534-1.431-.925-1.179zm-5.568 1.108c-.402.654-.423 1.046-.231 1.309.473-.705 1.309-1.812 2.567-2.678-.967.1-1.782.503-2.336 1.369zm34.299 15.472c-.927 2.276-1.712 4.58-2.165 8.034 0 0-.101.674-.654.453-.554-.202-1.46-1.108-1.662-2.387-.201-1.671.545-4.49 2.064-7.731-.442-.705-.755-1.751-.503-3.221 0 0 .403-2.718 3.121-5.175 0 0 .322-.272.504-.181.22.101.13.966-.051 1.41-.161.423-1.37 2.517-1.37 2.517s-.755 1.428-.543 2.547c1.429-2.195 4.681-6.644 6.695-5.235 1.278.906 1.278 3.825.322 5.516-.755 1.34-2.89 4.109-5.739 3.464l-.019-.011zm4.207-6.835c-.744.806-2.073 2.335-3.12 4.409 1.108-.121 2.184-.735 2.516-1.047.535-.473 1.762-1.751 1.572-3.442 0 0-.122-.887-.968.08zm-45.1 8.024c-3.563 1.087-6.926.584-8.757.101-.051.744-.132 1.057-.252 1.178-.141.161-1.309.825-1.954-.121-.281-.453-.422-1.268-.503-2.014-4.127-1.872-6.04-4.63-6.1-4.731-.101-.101-1.037-1.077-.101-2.285.876-1.087 3.775-2.183 6.372-2.618.101-2.215.343-3.925.655-4.68.373-.906.846-.101 1.268.503.343.453.554 2.396.574 3.946 1.691-.081 2.719.041 4.601.403 2.476.423 4.128 1.691 3.996 3.121-.12 1.41-1.41 1.993-1.912 2.034s-1.309-.332-1.309-.332c-.563-.261-.05-.503.604-.785.724-.352.564-.705.564-.705-.262-.805-3.473-1.339-6.665-1.339l.121 6.383c2.236.423 3.907.332 3.907.332s8.153-.232 8.384-5.435c.252-5.215-8.153-10.208-14.344-11.779-6.182-1.621-9.685-.474-9.986-.322-.333.16-.031.221-.031.221s.332.051.936.252.121.503.121.503c-1.057.362-2.235.151-2.466-.332-.232-.473.15-.906.603-1.54.423-.654.906-.634.906-.634 7.651-2.668 16.994 2.114 16.994 2.114 8.738 4.41 10.228 9.594 10.066 11.607-.14 1.984-.906 5.335-6.292 6.967v-.01zm-16.811-7.198c-.865.403-.261 1.048-.261 1.048 1.63 1.742 3.623 2.838 5.536 3.523.221-3.021.202-4.097.202-5.617-2.961.201-4.672.684-5.477 1.046zm251.242 5.675v1.659h.25v-.72h.282l.454.72h.282l-.486-.72c.243-.03.439-.171.439-.469 0-.327-.201-.469-.595-.469h-.626zm.25.219h.345c.169 0 .36.027.36.235 0 .259-.193.282-.407.282h-.298v-.516zm.313-.829c-.794 0-1.471.612-1.471 1.44 0 .834.677 1.455 1.471 1.455.784 0 1.44-.622 1.44-1.455s-.656-1.44-1.44-1.44zm0 .235c.648 0 1.158.523 1.158 1.205 0 .693-.51 1.205-1.158 1.205-.659 0-1.189-.512-1.189-1.205 0-.681.53-1.205 1.189-1.205z"/><path fill-rule="evenodd" d="M628 28.239V6h44.959L650.72 28.239H628zm25.965-11.599h.974c1.301 0 2.337-.431 2.337-1.805 0-1.33-1.036-1.759-2.337-1.759h-.974v3.564zm-10.932 2.296a4.05 4.05 0 0 0 1.418.251h.001a4.13 4.13 0 0 0 1.389-.239l-1.374-4.439h-.03l-1.404 4.427zm7.223-8.756h4.425l-.001.005c4.231 0 6.218 1.507 6.218 4.792 0 2.951-2.046 4.71-5.501 4.71h-1.431v4.252h-6.557l-.649-2.033c-.694.228-1.477.354-2.308.354-.851 0-1.656-.134-2.362-.373l-.675 2.053h-4.018l.442-1.19-.162.142c-1.002.805-2.256 1.248-3.808 1.278h-.231c-1.784 0-3.532-.492-5.009-1.333l1.366-2.716c1.482.875 2.412 1.071 3.665 1.046.651-.015 1.121-.132 1.427-.45.186-.19.282-.431.292-.688.011-.706-.992-1.037-2.222-1.416-.996-.312-2.125-.73-3.009-1.378-1.045-.77-1.544-1.732-1.519-3.088a3.74 3.74 0 0 1 1.059-2.582c.973-1.005 2.543-1.619 4.426-1.619h.01c1.615.004 3.588.46 5.012 1.188l-1.537 2.678c-1.561-.755-2.347-.827-3.238-.872-1.323-.071-1.994.402-2.004.912-.011.624 1.256 1.186 2.446 1.569 1.806.572 4.103 1.34 4.452 3.557l3.303-8.797h3.832l3.866 10.522V10.18z"/><path d="M722.29 6h.616c2.136.047 4.238.918 5.749 2.461l-1.673 1.708c-.847-.777-1.87-1.378-2.985-1.59-1.649-.353-3.425-.035-4.808.918-1.51 1.001-2.532 2.697-2.753 4.51-.243 1.79.256 3.674 1.406 5.063 1.103 1.354 2.787 2.202 4.529 2.261 1.626.094 3.321-.412 4.506-1.566.93-.813 1.359-2.049 1.499-3.25h-5.784V14.09h8.118c.419 2.602-.185 5.535-2.136 7.395-1.302 1.319-3.102 2.096-4.937 2.249-1.777.177-3.612-.165-5.192-1.036a9.03 9.03 0 0 1-4.145-4.793c-.697-1.872-.708-3.992-.058-5.876a8.95 8.95 0 0 1 3.194-4.298c1.405-1.048 3.112-1.625 4.854-1.731zm46.57.612h2.486v16.816c-.824 0-1.661.012-2.486-.012V6.612zm-32.621 5.829c1.533-.294 3.193.035 4.459.966a5.54 5.54 0 0 1 2.195 3.533c.314 1.637-.082 3.427-1.126 4.722-1.127 1.448-2.974 2.226-4.773 2.108-1.649-.094-3.253-.93-4.228-2.296-1.104-1.507-1.371-3.58-.766-5.346.603-1.896 2.311-3.344 4.239-3.686zm.348 2.237c-.627.165-1.208.53-1.627 1.048-1.126 1.366-1.056 3.592.186 4.863a3.07 3.07 0 0 0 2.765.872c.917-.165 1.718-.789 2.161-1.613.765-1.401.544-3.332-.629-4.428a3.1 3.1 0 0 0-2.856-.742zm11.962-2.236c1.754-.341 3.669.153 4.982 1.401 2.137 1.943 2.37 5.582.546 7.819-1.104 1.413-2.892 2.19-4.657 2.108-1.684-.047-3.345-.895-4.343-2.296-1.127-1.543-1.371-3.662-.732-5.464.638-1.837 2.31-3.238 4.204-3.568zm.348 2.237a3.17 3.17 0 0 0-1.625 1.036c-1.115 1.343-1.069 3.533.127 4.816.708.765 1.812 1.142 2.834.93a3.19 3.19 0 0 0 2.16-1.613c.755-1.413.535-3.344-.65-4.439-.755-.707-1.859-.989-2.846-.73zm10.092-1.555c1.336-.848 3.114-1.083 4.553-.353.453.2.825.541 1.185.883l.011-.977 2.346.012v10.386c-.012 1.566-.407 3.226-1.521 4.369-1.219 1.26-3.089 1.649-4.773 1.39-1.801-.271-3.368-1.602-4.065-3.285l2.149-.93c.405.965 1.23 1.79 2.264 1.978s2.23-.071 2.904-.942c.72-.895.72-2.12.685-3.215-.535.53-1.15 1.001-1.894 1.177-1.614.459-3.39-.106-4.634-1.213-1.254-1.107-1.997-2.814-1.927-4.51.035-1.919 1.104-3.768 2.717-4.769zm2.405 1.507c-.71.118-1.371.518-1.824 1.072-1.092 1.319-1.092 3.427.011 4.722.628.765 1.638 1.189 2.614 1.083.917-.094 1.765-.683 2.218-1.495.766-1.378.639-3.25-.395-4.451-.639-.742-1.661-1.107-2.624-.93zm12.937-.906c1.394-1.319 3.543-1.766 5.331-1.072 1.695.648 2.775 2.285 3.321 3.968l-7.548 3.168c.348.671.882 1.284 1.603 1.531 1.009.365 2.217.235 3.064-.447.338-.259.605-.601.861-.93l1.916 1.295c-.907 1.378-2.427 2.343-4.065 2.496-1.812.224-3.74-.483-4.913-1.919-1.928-2.261-1.741-6.053.43-8.09zm1.243 2.178c-.395.577-.558 1.284-.546 1.978l5.052-2.131c-.279-.659-.952-1.06-1.637-1.166-1.104-.2-2.254.401-2.869 1.319z"/><path d="M246.201 28.422l-.009 2.037.149.026c.464.087.932.148 1.404.182.412.039.828.047 1.241.024.395-.028.786-.103 1.165-.221a3.22 3.22 0 0 0 1.208-.648 2.44 2.44 0 0 0 .704-1.016c.251-.659.247-1.389-.013-2.045a2.3 2.3 0 0 0-.632-.881 2.61 2.61 0 0 0-.926-.542l-1.526-.57c-.182-.078-.331-.22-.416-.4a.53.53 0 0 1-.047-.235.53.53 0 0 1 .063-.231.64.64 0 0 1 .102-.138c.065-.067.142-.123.226-.164a1.61 1.61 0 0 1 .544-.16c.322-.047.652-.043.973.011a8.13 8.13 0 0 1 1.128.203l.079.018v-1.879l-.145-.032a9.93 9.93 0 0 0-1.148-.206 5.87 5.87 0 0 0-1.51-.007c-.635.059-1.24.303-1.737.704a2.31 2.31 0 0 0-.743 1.03c-.222.619-.222 1.296 0 1.915a2.13 2.13 0 0 0 .533.811 3.02 3.02 0 0 0 .691.504c.332.18.684.319 1.049.415l.359.115.181.067.052.021a1.35 1.35 0 0 1 .479.297c.095.09.168.2.213.323.029.112.029.229.002.342a.73.73 0 0 1-.35.422 1.72 1.72 0 0 1-.582.183 4.19 4.19 0 0 1-.902.046 10.3 10.3 0 0 1-1.178-.158l-.605-.143-.076-.019zm-8.297 1.963V28.02l-.046.02c-.531.258-1.106.405-1.694.433a2.48 2.48 0 0 1-1.705-.506 2.2 2.2 0 0 1-.742-1.061c-.15-.459-.167-.95-.049-1.419.108-.479.375-.906.756-1.214a2.25 2.25 0 0 1 1.186-.515 3.89 3.89 0 0 1 2.243.423l.051.026v-2.379l-.107-.029c-.691-.223-1.415-.319-2.138-.282a4.92 4.92 0 0 0-1.91.44 4.38 4.38 0 0 0-1.563 1.216c-.643.817-.997 1.824-1.014 2.865a4.75 4.75 0 0 0 .927 2.894c.625.804 1.501 1.371 2.486 1.609a5.79 5.79 0 0 0 3.146-.111l.173-.048zm3.063.156h2.222v-8.872h-2.222v8.872zM226.618 14.54a1.11 1.11 0 0 0 .213.575 1.1 1.1 0 0 0 .484.373c.193.076.403.096.607.058a1.09 1.09 0 0 0 .544-.276c.204-.191.329-.452.35-.731V12.08a1.11 1.11 0 0 0-.33-.768c-.205-.203-.482-.316-.769-.316s-.564.113-.769.316a1.11 1.11 0 0 0-.33.768v2.459zm6.082 0c.022.279.146.54.351.73a1.1 1.1 0 0 0 .75.297c.277 0 .545-.106.748-.296s.33-.451.349-.73V9.027a1.1 1.1 0 0 0-.335-.757c-.204-.199-.478-.31-.763-.31s-.559.111-.764.31-.325.47-.336.757v5.513h0zm6.052 2.22a1.11 1.11 0 0 0 .348.732c.203.191.472.297.751.297a1.1 1.1 0 0 0 .751-.297 1.11 1.11 0 0 0 .348-.732V4.836a1.11 1.11 0 0 0-.341-.747c-.205-.196-.475-.305-.758-.305a1.09 1.09 0 0 0-.757.305c-.206.196-.328.463-.342.747V16.76zm6.083-2.22c.019.28.143.542.348.733a1.1 1.1 0 0 0 1.501 0 1.11 1.11 0 0 0 .349-.733V9.027a1.11 1.11 0 0 0-.338-.754c-.204-.198-.477-.309-.762-.309s-.557.111-.762.309-.326.469-.336.755v5.512zm6.055 0a1.12 1.12 0 0 0 .212.575c.124.168.291.298.485.374s.402.096.607.057a1.1 1.1 0 0 0 .544-.276c.205-.191.33-.452.35-.731V12.08c-.009-.213-.079-.419-.201-.593a1.1 1.1 0 0 0-.488-.389c-.197-.08-.411-.1-.62-.06a1.09 1.09 0 0 0-.553.288c-.205.198-.325.468-.336.754v2.459zm6.078 0c.022.278.147.538.35.727a1.1 1.1 0 0 0 1.496 0 1.11 1.11 0 0 0 .352-.727V9.027a1.11 1.11 0 0 0-.34-.75c-.205-.197-.477-.307-.76-.307s-.554.11-.759.307a1.11 1.11 0 0 0-.339.75v5.513h0zm6.053 2.22c.019.28.144.541.348.732s.472.297.75.297a1.1 1.1 0 0 0 .751-.297 1.11 1.11 0 0 0 .348-.732V4.836a1.12 1.12 0 0 0-.2-.594c-.122-.174-.291-.31-.489-.389a1.09 1.09 0 0 0-.619-.06 1.11 1.11 0 0 0-.553.288c-.206.198-.325.469-.336.755V16.76zm6.072-2.22c.021.279.146.54.35.731s.471.296.749.296a1.1 1.1 0 0 0 .75-.296 1.11 1.11 0 0 0 .349-.731V9.027a1.11 1.11 0 0 0-.337-.754c-.204-.198-.478-.309-.762-.309a1.1 1.1 0 0 0-.763.309c-.204.198-.325.469-.336.755v5.512zm6.058 0c.02.28.145.542.349.733a1.1 1.1 0 0 0 1.502 0 1.11 1.11 0 0 0 .348-.733v-2.459a1.11 1.11 0 0 0-.337-.754 1.1 1.1 0 0 0-.762-.309c-.284 0-.558.111-.762.309a1.12 1.12 0 0 0-.338.755v2.458zm-14.03 15.845V28.02l-.045.02a4.34 4.34 0 0 1-1.695.433 2.48 2.48 0 0 1-1.704-.506 2.2 2.2 0 0 1-.742-1.061c-.15-.459-.166-.95-.05-1.419a2.18 2.18 0 0 1 .756-1.214c.337-.284.749-.463 1.187-.515a3.9 3.9 0 0 1 2.244.423l.049.026v-2.379l-.106-.029a5.97 5.97 0 0 0-2.139-.282 4.92 4.92 0 0 0-1.909.439 4.37 4.37 0 0 0-1.564 1.216c-.641.817-.997 1.824-1.012 2.866a4.75 4.75 0 0 0 .927 2.895 4.48 4.48 0 0 0 2.486 1.609 5.79 5.79 0 0 0 3.145-.111l.172-.048zm5.568-6.096a2.3 2.3 0 0 1 .805-.428 2.29 2.29 0 0 1 .905-.083 2.31 2.31 0 0 1 1.564.864 2.34 2.34 0 0 1 .418.814c.084.296.109.607.073.913a2.33 2.33 0 0 1-.873 1.566 2.31 2.31 0 0 1-3.228-.39c-.381-.478-.557-1.088-.494-1.697a2.34 2.34 0 0 1 .83-1.559h0zm-3.227 1.82c.012.692.175 1.374.479 1.995a4.65 4.65 0 0 0 1.283 1.595 4.63 4.63 0 0 0 1.838.887c.67.155 1.368.157 2.039.008a4.51 4.51 0 0 0 2.377-1.271c.646-.657 1.078-1.496 1.239-2.406a4.58 4.58 0 0 0-.338-2.688 4.54 4.54 0 0 0-1.795-2.019 4.65 4.65 0 0 0-2.326-.701 4.64 4.64 0 0 0-2.359.569c-.724.396-1.329.977-1.758 1.685a4.74 4.74 0 0 0-.679 2.346zm295.984.692c-4.352 3.23-10.66 4.953-16.092 4.953-7.616 0-14.472-2.836-19.659-7.552-.407-.371-.042-.876.447-.588 5.598 3.279 12.518 5.251 19.669 5.251 4.821 0 10.125-1.004 15.002-3.088.737-.315 1.354.486.633 1.024zm1.809-2.084c-.554-.716-3.678-.338-5.079-.171-.427.052-.492-.322-.107-.591 2.487-1.762 6.568-1.254 7.045-.663s-.124 4.713-2.462 6.679c-.358.302-.701.141-.541-.259.525-1.319 1.702-4.276 1.144-4.995zm-4.982-13.203V9.8a.42.42 0 0 1 .431-.433h7.619c.244 0 .441.177.441.433v1.467c-.005.246-.209.568-.575 1.077l-3.947 5.675c1.467-.036 3.015.184 4.345.939.3.171.381.42.404.666v1.828c0 .249-.273.542-.56.391-2.344-1.237-5.458-1.372-8.049.013-.265.144-.542-.144-.542-.394v-1.736c0-.279.003-.755.281-1.178l4.574-6.603h-3.981c-.244 0-.441-.174-.441-.43zm-27.792 10.69h-2.319c-.222-.016-.397-.184-.413-.397V9.83c0-.24.198-.43.447-.43h2.161a.44.44 0 0 1 .421.4v1.566h.042c.563-1.513 1.623-2.219 3.051-2.219 1.451 0 2.357.706 3.009 2.219.561-1.513 1.836-2.219 3.202-2.219.971 0 2.034.404 2.684 1.31.732 1.008.583 2.471.583 3.755l-.003 7.558a.44.44 0 0 1-.448.433h-2.314c-.232-.016-.417-.204-.417-.433v-6.347c0-.506.045-1.766-.066-2.245-.173-.804-.691-1.031-1.362-1.031-.561 0-1.148.377-1.386.981s-.215 1.615-.215 2.294v6.347a.44.44 0 0 1-.447.433h-2.315c-.235-.016-.416-.204-.416-.433l-.004-6.347c0-1.336.219-3.302-1.428-3.302-1.666 0-1.601 1.917-1.601 3.302v6.347a.44.44 0 0 1-.446.433zm42.842-13.057c3.44 0 5.301 2.974 5.301 6.754 0 3.653-2.057 6.551-5.301 6.551-3.378 0-5.217-2.974-5.217-6.679 0-3.728 1.862-6.626 5.217-6.626zm.02 2.445c-1.709 0-1.816 2.343-1.816 3.804s-.023 4.588 1.796 4.588c1.796 0 1.881-2.52 1.881-4.057 0-1.011-.042-2.219-.345-3.177-.261-.834-.78-1.159-1.516-1.159zm9.743 10.612h-2.308c-.233-.016-.419-.204-.419-.433l-.003-11.979c.021-.22.213-.391.447-.391h2.149c.202.01.368.148.414.335v1.831h.042c.649-1.638 1.559-2.419 3.159-2.419 1.04 0 2.054.377 2.706 1.411.606.958.606 2.57.606 3.728v7.539c-.025.21-.218.377-.447.377h-2.323a.44.44 0 0 1-.411-.377v-6.505c0-1.309.15-3.226-1.45-3.226-.565 0-1.083.381-1.342.958-.325.732-.368 1.46-.368 2.268v6.449c-.003.24-.205.433-.452.433zm-30.887-5.721c0 .909.023 1.667-.433 2.475-.369.656-.956 1.06-1.605 1.06-.89 0-1.411-.683-1.411-1.69 0-1.989 1.77-2.35 3.449-2.35v.506zm2.338 5.688a.48.48 0 0 1-.547.056c-.771-.643-.911-.942-1.331-1.556-1.272 1.306-2.175 1.697-3.821 1.697-1.954 0-3.469-1.211-3.469-3.637 0-1.894 1.017-3.183 2.471-3.814 1.259-.558 3.015-.656 4.359-.811v-.302c0-.554.043-1.211-.283-1.69-.281-.43-.822-.607-1.301-.607-.883 0-1.67.456-1.861 1.402-.041.21-.193.417-.405.427l-2.247-.243c-.188-.043-.401-.197-.345-.489.515-2.744 2.979-3.571 5.184-3.571 1.127 0 2.601.302 3.491 1.162 1.128 1.06 1.021 2.475 1.021 4.014v3.637c0 1.093.45 1.572.874 2.163.146.21.179.463-.011.62l-1.776 1.549-.003-.007zm-32.725-5.688c0 .909.023 1.667-.434 2.475-.368.656-.951 1.06-1.604 1.06-.891 0-1.408-.683-1.408-1.69 0-1.989 1.771-2.35 3.446-2.35v.506zm2.337 5.688a.48.48 0 0 1-.547.056c-.77-.643-.907-.942-1.331-1.556-1.271 1.306-2.17 1.697-3.82 1.697-1.95 0-3.469-1.211-3.469-3.637 0-1.894 1.02-3.183 2.471-3.814 1.258-.558 3.016-.656 4.359-.811v-.302c0-.554.043-1.211-.281-1.69-.283-.43-.825-.607-1.301-.607-.883 0-1.672.456-1.864 1.402-.04.21-.192.417-.401.427l-2.25-.243c-.189-.043-.397-.197-.345-.489.519-2.744 2.98-3.571 5.183-3.571 1.128 0 2.603.302 3.491 1.162 1.13 1.06 1.021 2.475 1.021 4.014v3.637c0 1.093.45 1.572.874 2.163.15.21.183.463-.006.62l-1.778 1.549-.006-.007z" fill-rule="evenodd"/><path d="M821.549 8v1.241h9.227V8h-9.227zm10.535 0v1.241h13.15S843.892 8 842.113 8h-10.029zm15.731 0v1.241h7.956L855.299 8h-7.484zm13.659 0l-.472 1.241h7.884V8h-7.412zm-39.925 2.413v1.241h9.227v-1.241h-9.227zm10.535.002v1.239h14.677s-.171-.955-.47-1.239h-14.207zm15.731 0v1.239h8.828l-.437-1.239h-8.391zm12.715 0l-.437 1.239h8.793v-1.239h-8.356zm-36.329 2.411v1.243h3.996v-1.243h-3.996zm10.535 0v1.243h3.997v-1.243h-3.997zm7.885 0v1.243h3.996s.253-.656.253-1.243h-4.249zm7.845 0v1.243h7.086l-.471-1.243h-6.615zm9.193 0l-.474 1.243h7.121v-1.243h-6.647zm-35.458 2.415v1.241h3.996v-1.241h-3.996zm10.535 0v1.241h10.208s.854-.637 1.126-1.241h-11.334zm15.73 0v1.241h3.997v-.691l.254.691h7.32l.273-.691v.691h3.996v-1.241h-7.502l-.399 1.051-.399-1.051h-7.54zm-26.265 2.413v1.241h3.996v-1.241h-3.996zm10.535 0v1.241h11.334c-.272-.602-1.126-1.241-1.126-1.241h-10.208zm15.73 0v1.241h3.997v-1.241h-3.997zm4.723 0l.483 1.241h5.489l.46-1.241h-6.432zm7.121 0v1.241h3.996v-1.241h-3.996zm-38.109 2.413v1.241h3.996v-1.241h-3.996zm10.535 0v1.241h3.997v-1.241h-3.997zm7.885 0v1.241h4.249c0-.585-.253-1.241-.253-1.241h-3.996zm7.845 0v1.241h3.997v-1.241h-3.997zm5.631 0l.468 1.241h3.68l.473-1.241h-4.621zm6.213 0v1.241h3.996v-1.241h-3.996zm-40.69 2.413v1.243h9.229V22.48h-9.229zm10.464 0v1.243h14.207c.299-.284.47-1.243.47-1.243h-14.677zm15.802 0v1.243h6.577V22.48h-6.577zm9.12 0l.481 1.243h1.873l.452-1.243h-2.806zm5.304 0v1.243h6.648V22.48h-6.648zm-40.69 2.415v1.241h9.229v-1.241h-9.229zm10.464 0v1.239h10.029c1.779 0 3.121-1.239 3.121-1.239h-13.15zm15.802 0v1.241h6.577v-1.241h-6.577zm10.033 0l.463 1.237.079.002.471-1.239h-1.013zm4.391 0v1.241h6.648v-1.241h-6.648zm79.86-6.335l-.56 1.586h-.047a11.4 11.4 0 0 0-.545-1.555l-3.003-7.545h-2.939v12.026h1.944v-7.42l-.015-1.65-.063-.762h.046c.094.466.203.808.281 1.027l3.609 8.774h1.369l3.579-8.853c.077-.201.155-.606.234-.949h.046l-.094 2.163v7.624h2.07V11.015h-2.832l-3.08 7.545zm7.872-4.153h2.022v8.619h-2.022v-8.619zm1.027-3.641a1.21 1.21 0 0 0-.856.342c-.116.106-.209.237-.27.382a1.11 1.11 0 0 0-.087.459 1.09 1.09 0 0 0 .357.824 1.2 1.2 0 0 0 .856.326c.342 0 .638-.125.855-.326.115-.104.206-.232.268-.374a1.09 1.09 0 0 0 .091-.451c0-.327-.125-.607-.359-.841-.202-.217-.497-.342-.855-.342zm8.168 3.563a5.63 5.63 0 0 0-1.136-.125c-.918 0-1.758.204-2.458.608a4.06 4.06 0 0 0-1.618 1.664c-.373.716-.56 1.54-.56 2.49a4.63 4.63 0 0 0 .544 2.225c.359.653.856 1.183 1.525 1.54.637.359 1.384.545 2.225.545.964 0 1.789-.202 2.442-.575l.016-.016v-1.867l-.078.063c-.295.217-.637.405-.98.513-.358.125-.684.187-.965.187-.808 0-1.447-.234-1.898-.747-.467-.498-.7-1.183-.7-2.039 0-.887.233-1.586.715-2.1s1.121-.778 1.899-.778c.653 0 1.323.217 1.929.653l.078.063v-1.976l-.016-.015c-.265-.11-.559-.234-.964-.312zm6.674-.062a2.14 2.14 0 0 0-1.369.483c-.342.28-.576.685-.778 1.167h-.015v-1.509h-2.023v8.619h2.023v-4.403c0-.747.155-1.369.497-1.82.342-.467.778-.7 1.308-.7.186 0 .373.046.606.078.218.062.373.125.482.202l.078.063v-2.024l-.047-.015c-.14-.094-.42-.141-.762-.141zm5.507-.046c-1.415 0-2.552.421-3.345 1.245-.808.824-1.198 1.96-1.198 3.391 0 1.338.405 2.427 1.183 3.22.778.778 1.837 1.183 3.158 1.183 1.385 0 2.49-.421 3.283-1.262.809-.839 1.198-1.96 1.198-3.344 0-1.369-.374-2.458-1.136-3.252-.73-.793-1.805-1.183-3.143-1.183zm1.618 6.628c-.373.482-.964.716-1.695.716s-1.323-.234-1.742-.747c-.42-.482-.623-1.182-.623-2.068 0-.918.218-1.619.623-2.116.419-.498.995-.747 1.726-.747.716 0 1.276.234 1.68.716s.623 1.183.623 2.1c-.031.934-.202 1.664-.592 2.147zm7.173-2.863c-.639-.264-1.042-.466-1.229-.637-.155-.156-.234-.375-.234-.653 0-.234.094-.467.327-.623s.497-.232.887-.232c.342 0 .7.063 1.042.155s.653.234.903.42l.078.063V14.58l-.047-.015a5.58 5.58 0 0 0-.918-.264 6.23 6.23 0 0 0-.995-.094c-.966 0-1.759.234-2.381.747a2.3 2.3 0 0 0-.918 1.899c0 .404.062.762.202 1.057a2.37 2.37 0 0 0 .622.809c.28.217.685.466 1.245.7l1.042.482a2.05 2.05 0 0 1 .467.375c.087.145.129.312.124.481 0 .576-.435.856-1.322.856-.342 0-.7-.062-1.12-.202a4.34 4.34 0 0 1-1.136-.575l-.077-.062v1.976l.046.015c.296.14.654.234 1.09.342.436.078.824.14 1.166.14 1.042 0 1.898-.234 2.505-.747a2.38 2.38 0 0 0 .949-1.96c0-.575-.156-1.089-.498-1.478a6.3 6.3 0 0 0-1.82-1.074zm7.654-3.765c-1.416 0-2.552.421-3.345 1.245s-1.198 1.96-1.198 3.391c0 1.338.405 2.427 1.183 3.22.777.778 1.835 1.183 3.158 1.183 1.384 0 2.49-.421 3.283-1.262.809-.839 1.198-1.96 1.198-3.344 0-1.369-.374-2.458-1.136-3.252-.732-.793-1.805-1.183-3.143-1.183zm1.603 6.628c-.373.482-.964.716-1.696.716-.747 0-1.323-.234-1.743-.747-.419-.482-.622-1.182-.622-2.068 0-.918.217-1.619.622-2.116.42-.498.996-.747 1.728-.747.699 0 1.275.234 1.68.716s.622 1.183.622 2.1c0 .934-.202 1.664-.591 2.147zm13.484-4.777v-1.663h-2.03v-2.552l-.07.016-1.925.575-.047.016v1.945h-3.049V13.32c0-.498.124-.887.342-1.137s.545-.372.95-.372c.28 0 .575.063.902.202l.077.046V10.3l-.046-.016a3.61 3.61 0 0 0-1.135-.155 3.64 3.64 0 0 0-1.619.373 2.7 2.7 0 0 0-1.105 1.104c-.273.489-.413 1.042-.404 1.603v1.198h-1.416v1.649h1.416v6.97h2.038v-6.958h3.049v4.434c0 1.82.856 2.738 2.572 2.738.28 0 .57-.046.85-.094.3-.062.51-.14.64-.202l.01-.015v-1.665l-.07.063a1.34 1.34 0 0 1-.42.187 1.5 1.5 0 0 1-.41.062c-.4 0-.68-.094-.88-.327-.19-.219-.28-.575-.28-1.104v-4.077h2.06v.001zM909.001 7h9.537v9.537h-9.537V7zm10.531 0h9.537v9.537h-9.537V7zM909 17.533h9.537v9.537H909v-9.537zm10.532 0h9.537v9.537h-9.537v-9.537z"/></svg>