<svg xmlns="http://www.w3.org/2000/svg" width="523" height="375" fill="none"  xmlns:v="https://vecta.io/nano"><style><![CDATA[.B{fill:#3d4853}.C{fill:#ff80ab}.D{fill:#f2f6f8}.E{color-interpolation-filters:sRGB}]]></style><g filter="url(#A)"><path d="M50 54a4 4 0 0 1 4-4h415a4 4 0 0 1 4 4v267a4 4 0 0 1-4 4H54a4 4 0 0 1-4-4V54z" fill="#fff"/></g><path d="M77.404 310.612h.986v.738h-.986V313h-.908v-1.65h-3.237v-.533l3.184-4.926h.962v4.721zm-3.12 0h2.212v-3.486l-.107.195-2.105 3.291zm9.478-.195c0 .804-.184 1.452-.552 1.943s-.866.738-1.494.738c-.641 0-1.146-.204-1.514-.611v2.544h-.903v-7.314h.825l.044.586c.368-.456.879-.684 1.533-.684.635 0 1.136.239 1.504.718s.557 1.144.557 1.997v.083zm-.903-.103c0-.595-.127-1.066-.381-1.411s-.602-.517-1.045-.517c-.547 0-.957.242-1.23.727v2.525a1.33 1.33 0 0 0 1.24.722c.433 0 .776-.171 1.03-.512s.386-.856.386-1.534zm2.905-2.597l.024.586c.387-.456.91-.684 1.567-.684.739 0 1.242.283 1.509.85.176-.254.404-.459.684-.615s.617-.235 1.001-.235c1.159 0 1.748.614 1.768 1.841V313h-.903v-3.486c0-.378-.086-.66-.259-.845s-.462-.283-.869-.283c-.335 0-.614.101-.835.302s-.35.468-.386.806V313h-.908v-3.462c0-.768-.376-1.152-1.128-1.152-.592 0-.998.252-1.216.757V313h-.903v-5.283h.855zm-10.86-72.711h.679c.426-.007.762-.119 1.006-.337s.366-.513.366-.884c0-.833-.415-1.25-1.245-1.25-.391 0-.703.112-.937.337s-.347.516-.347.884h-.903a1.81 1.81 0 0 1 .615-1.402c.413-.374.938-.561 1.572-.561.671 0 1.196.177 1.577.532s.571.848.571 1.48c0 .309-.101.608-.303.898s-.47.506-.816.65c.391.123.692.328.903.615s.322.636.322 1.05c0 .638-.208 1.144-.625 1.518s-.959.562-1.626.562-1.211-.181-1.631-.542-.625-.839-.625-1.431h.908c0 .374.122.674.366.898s.571.337.981.337c.436 0 .77-.114 1.001-.341s.347-.555.347-.982c0-.413-.127-.731-.381-.952s-.62-.335-1.099-.342h-.679v-.737zm8.857 1.411c0 .804-.184 1.452-.552 1.943s-.866.738-1.494.738c-.641 0-1.146-.204-1.514-.611v2.544h-.903v-7.314h.825l.044.586c.368-.456.879-.684 1.533-.684.635 0 1.136.239 1.504.718s.557 1.144.557 1.997v.083zm-.903-.103c0-.595-.127-1.066-.381-1.411s-.602-.517-1.045-.517c-.547 0-.957.242-1.23.727v2.525a1.33 1.33 0 0 0 1.24.722c.433 0 .776-.171 1.03-.512s.386-.856.386-1.534zm2.905-2.597l.024.586c.387-.456.91-.684 1.567-.684.739 0 1.242.283 1.509.85.176-.254.404-.459.684-.615s.617-.235 1.001-.235c1.159 0 1.748.614 1.768 1.841V239h-.903v-3.486c0-.378-.086-.66-.259-.845s-.462-.283-.869-.283c-.335 0-.614.101-.835.302s-.35.468-.386.806V239h-.908v-3.462c0-.768-.376-1.152-1.128-1.152-.592 0-.998.252-1.216.757V239h-.903v-5.283h.855zM78.249 165h-4.658v-.649l2.461-2.735c.365-.413.615-.748.752-1.006a1.68 1.68 0 0 0 .21-.805c0-.371-.112-.676-.337-.913s-.524-.357-.898-.357c-.449 0-.799.129-1.05.386s-.371.609-.371 1.064h-.903c0-.654.21-1.183.63-1.587s.988-.605 1.694-.605c.661 0 1.183.174 1.567.522s.576.806.576 1.382c0 .7-.446 1.533-1.338 2.5l-1.904 2.066h3.569V165zm5.513-2.583c0 .804-.184 1.452-.552 1.943s-.866.738-1.494.738c-.641 0-1.146-.204-1.514-.611v2.544h-.903v-7.314h.825l.044.586c.368-.456.879-.684 1.533-.684.635 0 1.136.239 1.504.718s.557 1.144.557 1.997v.083zm-.903-.103c0-.595-.127-1.066-.381-1.411s-.602-.517-1.045-.517c-.547 0-.957.242-1.23.727v2.525a1.33 1.33 0 0 0 1.24.722c.433 0 .776-.171 1.03-.512s.386-.856.386-1.534zm2.905-2.597l.024.586c.387-.456.91-.684 1.567-.684.739 0 1.242.283 1.509.85.176-.254.404-.459.684-.615s.617-.235 1.001-.235c1.159 0 1.748.614 1.768 1.841V165h-.903v-3.486c0-.378-.086-.66-.259-.845s-.462-.283-.869-.283c-.335 0-.614.101-.835.302s-.35.468-.386.806V165h-.908v-3.462c0-.768-.376-1.152-1.128-1.152-.592 0-.998.252-1.216.757V165h-.903v-5.283h.855zM76.56 91h-.908v-6.02l-1.821.669v-.82l2.588-.972h.142V91zm7.202-2.583c0 .804-.184 1.452-.552 1.943s-.866.737-1.494.737c-.641 0-1.146-.204-1.514-.61v2.544h-.903v-7.314h.825l.044.586c.368-.456.879-.684 1.533-.684.635 0 1.136.239 1.504.718s.557 1.144.557 1.997v.083zm-.903-.103c0-.596-.127-1.066-.381-1.411s-.602-.518-1.045-.518c-.547 0-.957.243-1.23.728v2.524c.27.482.684.723 1.24.723.433 0 .776-.171 1.03-.513s.386-.856.386-1.533zm2.905-2.598l.024.586c.387-.456.91-.684 1.567-.684.739 0 1.242.283 1.509.85.176-.254.404-.459.684-.615s.617-.234 1.001-.234c1.159 0 1.748.614 1.768 1.841V91h-.903v-3.486c0-.378-.086-.659-.259-.845s-.462-.283-.869-.283c-.335 0-.614.101-.835.303s-.35.467-.386.806V91h-.908v-3.462c0-.768-.376-1.152-1.128-1.152-.592 0-.998.252-1.216.757V91h-.903v-5.283h.855zm58.709-24.247l2.789 6.961 2.789-6.961h1.459V70h-1.125v-3.322l.105-3.586L147.689 70h-.861l-2.795-6.891.112 3.568V70h-1.125v-8.531h1.453zm8.566 5.303c0-.621.121-1.18.363-1.676s.586-.879 1.02-1.148.935-.404 1.494-.404c.863 0 1.561.299 2.092.896s.803 1.392.803 2.385v.076c0 .617-.12 1.172-.358 1.664s-.572.869-1.014 1.142-.941.41-1.511.41c-.86 0-1.557-.299-2.092-.897s-.797-1.389-.797-2.373v-.076zm1.09.129c0 .703.162 1.268.486 1.693a1.57 1.57 0 0 0 1.313.639c.547 0 .988-.215 1.312-.644s.487-1.039.487-1.816c0-.695-.166-1.258-.498-1.687a1.58 1.58 0 0 0-1.313-.65c-.535 0-.967.213-1.295.639s-.492 1.035-.492 1.828zm7.066-3.24l.035.797a2.31 2.31 0 0 1 1.899-.914c1.34 0 2.016.756 2.027 2.268V70h-1.084v-4.195c-.004-.457-.109-.795-.316-1.014s-.522-.328-.955-.328c-.352 0-.66.094-.926.281s-.473.434-.621.738V70h-1.084v-6.34h1.025zm111.899-1.266h-2.742V70h-1.12v-7.605h-2.736v-.926h6.598v.926zm4.447 6.979c-.422.496-1.041.744-1.857.744-.676 0-1.192-.195-1.547-.586s-.53-.977-.533-1.746V63.66h1.084v4.096c0 .961.39 1.441 1.171 1.441.829 0 1.379-.309 1.653-.926V63.66h1.084V70h-1.032l-.023-.627zm5.338.744c-.859 0-1.559-.281-2.098-.844s-.808-1.322-.808-2.267v-.199c0-.629.119-1.189.357-1.682a2.8 2.8 0 0 1 1.008-1.16 2.56 2.56 0 0 1 1.406-.422c.824 0 1.465.272 1.922.814s.686 1.32.686 2.332v.451h-4.295c.015.625.197 1.131.545 1.518s.796.574 1.336.574c.382 0 .707-.078.972-.234a2.44 2.44 0 0 0 .697-.621l.663.516c-.532.816-1.329 1.225-2.391 1.225zm-.135-5.684a1.44 1.44 0 0 0-1.101.481c-.297.316-.481.762-.551 1.336h3.176v-.082c-.032-.551-.18-.977-.446-1.277s-.625-.457-1.078-.457zm102.285 2.877l.164 1.125.241-1.014 1.687-5.953h.949l1.647 5.953.234 1.031.182-1.148 1.324-5.836h1.131L390.52 70h-1.026l-1.758-6.217-.134-.65-.135.65L385.645 70h-1.026l-2.062-8.531h1.125l1.347 5.842zm11.086 2.807c-.859 0-1.558-.281-2.097-.844s-.809-1.322-.809-2.267v-.199c0-.629.119-1.189.357-1.682s.579-.883 1.008-1.16a2.56 2.56 0 0 1 1.406-.422c.825 0 1.465.272 1.922.814s.686 1.32.686 2.332v.451h-4.295c.016.625.197 1.131.545 1.518s.797.574 1.336.574c.383 0 .707-.078.972-.234s.499-.363.698-.621l.662.516c-.531.816-1.328 1.225-2.391 1.225zm-.135-5.684a1.44 1.44 0 0 0-1.101.481c-.297.316-.481.762-.551 1.336h3.176v-.082c-.031-.551-.18-.977-.445-1.277s-.625-.457-1.079-.457zm3.604 2.344c0-.973.23-1.754.691-2.344s1.065-.891 1.811-.891 1.33.254 1.764.762V61h1.084v9h-.996l-.053-.68c-.434.531-1.037.797-1.811.797-.734 0-1.334-.301-1.799-.902s-.691-1.387-.691-2.355v-.082zm1.084.123c0 .719.148 1.281.445 1.688s.707.609 1.231.609a1.58 1.58 0 0 0 1.506-.926V65.36a1.59 1.59 0 0 0-1.495-.896c-.531 0-.945.205-1.242.615s-.445 1.018-.445 1.822z" fill="#78909c"/><path d="M221 86a4 4 0 0 1 4-4h102a4 4 0 0 1 4 4v149a4 4 0 0 1-4 4H225a4 4 0 0 1-4-4V86z" class="D"/><path d="M221 82h4v157h-4zm22.812 34.345c0 .975-.165 1.827-.493 2.556s-.793 1.279-1.394 1.661-1.304.575-2.106.575c-.784 0-1.479-.192-2.085-.575s-1.077-.936-1.415-1.647c-.332-.715-.503-1.543-.512-2.481v-.718c0-.957.166-1.803.499-2.536s.802-1.295 1.408-1.682 1.308-.588 2.092-.588c.797 0 1.499.194 2.105.581s1.08.941 1.408 1.675.493 1.579.493 2.55v.629zm-1.306-.643c0-1.18-.237-2.085-.711-2.714s-1.137-.95-1.989-.95c-.83 0-1.484.317-1.962.95s-.718 1.504-.732 2.625v.732c0 1.144.24 2.044.718 2.7s1.146.977 1.989.977 1.504-.307 1.969-.922.704-1.507.718-2.66v-.738zm3.698 5.298v-6.419h-1.169v-.977h1.169v-.759c0-.793.212-1.406.636-1.839s1.023-.65 1.798-.65a3.3 3.3 0 0 1 .868.117l-.068 1.025a3.65 3.65 0 0 0-.684-.061c-.41 0-.727.12-.95.362s-.335.579-.335 1.025v.78h2.734v-.629c0-.825.235-1.468.704-1.928s1.142-.691 2.003-.691c.511 0 1.155.139 1.935.417l-.212 1.067c-.57-.228-1.114-.342-1.634-.342-.542 0-.934.121-1.176.362s-.355.609-.355 1.101v.643h1.517v.977h-1.517V121h-1.265v-6.419h-2.734V121h-1.265zm9.263 0h-1.265v-7.396h1.265V121zm5.031-.896a1.82 1.82 0 0 0 1.183-.41 1.44 1.44 0 0 0 .56-1.025h1.197c-.023.424-.169.827-.438 1.21s-.629.688-1.08.916a3.1 3.1 0 0 1-1.422.342c-1.007 0-1.809-.335-2.406-1.005s-.889-1.595-.889-2.762v-.212c0-.72.132-1.36.397-1.921s.642-.995 1.134-1.305 1.083-.465 1.757-.465c.83 0 1.518.248 2.065.745s.845 1.142.882 1.934h-1.197a1.72 1.72 0 0 0-.547-1.175c-.323-.31-.724-.465-1.203-.465-.642 0-1.141.232-1.497.697-.351.46-.526 1.128-.526 2.003v.239c0 .853.175 1.509.526 1.969s.852.69 1.504.69zm7.431 1.033c-1.003 0-1.819-.328-2.448-.985s-.943-1.542-.943-2.645v-.233c0-.733.139-1.387.417-1.962.283-.578.675-1.029 1.176-1.353a2.96 2.96 0 0 1 1.64-.492c.962 0 1.709.317 2.243.95s.799 1.54.799 2.721v.526h-5.01c.018.729.23 1.319.635 1.771.411.446.93.669 1.559.669.447 0 .825-.091 1.135-.273s.581-.424.813-.725l.773.602c-.62.952-1.55 1.429-2.789 1.429zm-.158-6.631c-.51 0-.938.187-1.285.56s-.56.889-.642 1.559h3.705v-.096c-.037-.642-.21-1.139-.52-1.49s-.729-.533-1.258-.533z" fill="#40c4ff"/><path d="M241.781 95.399h-4.313v3.527h5.011V100h-6.324v-9.953h6.255v1.08h-4.942v3.199h4.313v1.073zm3.323-2.796l.034.82c.542-.638 1.273-.957 2.194-.957 1.035 0 1.739.396 2.112 1.189a2.81 2.81 0 0 1 .957-.861c.397-.219.864-.328 1.402-.328 1.622 0 2.447.859 2.474 2.577V100h-1.264v-4.881c0-.529-.121-.923-.363-1.183s-.647-.396-1.216-.396c-.47 0-.859.141-1.169.424s-.49.654-.54 1.128V100h-1.272v-4.847c0-1.076-.526-1.613-1.579-1.613-.829 0-1.397.353-1.702 1.06v5.4h-1.265v-7.397h1.197zM260.758 100c-.073-.146-.132-.406-.178-.779a2.82 2.82 0 0 1-2.105.916c-.73 0-1.329-.205-1.798-.615s-.698-.939-.698-1.572c0-.77.292-1.367.875-1.791.588-.428 1.413-.643 2.475-.643h1.231v-.581c0-.442-.133-.793-.397-1.053s-.654-.396-1.169-.396c-.451 0-.829.114-1.135.342s-.458.504-.458.827h-1.271c0-.369.13-.725.39-1.066s.619-.62 1.066-.82.946-.301 1.483-.301c.853 0 1.52.214 2.003.643s.734 1.009.752 1.757v3.404c0 .679.087 1.219.26 1.62V100h-1.326zm-2.099-.964a2.22 2.22 0 0 0 1.128-.308c.356-.205.613-.472.773-.8v-1.518h-.992c-1.549 0-2.324.453-2.324 1.36 0 .397.132.706.397.93s.603.335 1.018.335zm6.522.964h-1.265v-7.397h1.265V100zm-1.368-9.358c0-.205.062-.378.185-.519s.314-.212.561-.212.433.071.56.212.192.314.192.519a.72.72 0 0 1-.192.513c-.127.137-.314.205-.56.205s-.433-.068-.561-.205-.185-.308-.185-.513zm4.772 9.358h-1.265V89.5h1.265V100zm6.337-1.962c0-.342-.13-.606-.39-.793s-.704-.355-1.346-.492-1.147-.301-1.525-.492-.652-.419-.834-.684-.266-.579-.266-.943c0-.606.255-1.119.765-1.538s1.171-.629 1.969-.629c.838 0 1.517.216 2.037.649s.786.987.786 1.661h-1.271c0-.346-.148-.645-.445-.895-.291-.251-.66-.376-1.107-.376-.46 0-.82.1-1.08.301s-.39.463-.39.786c0 .305.121.535.363.69s.676.303 1.305.444 1.146.31 1.538.506.682.433.868.711c.192.273.288.608.288 1.005a1.9 1.9 0 0 1-.793 1.593c-.529.397-1.215.595-2.058.595-.593 0-1.117-.105-1.572-.315s-.814-.501-1.074-.875-.382-.786-.382-1.224h1.264c.023.424.192.761.506 1.012.319.246.738.369 1.258.369.478 0 .861-.096 1.148-.287.292-.196.438-.456.438-.779z" class="B"/><path d="M101 86a4 4 0 0 1 4-4h102a4 4 0 0 1 4 4v77H101V86z" class="D"/><path fill="#ffd740" d="M101 82h4v81h-4z"/><path d="M120.032 112.127h-3.199V121h-1.306v-8.873h-3.192v-1.08h7.697v1.08zm2.653 8.873h-1.265v-7.396h1.265V121zm-1.368-9.358c0-.205.062-.379.185-.52.128-.141.314-.212.56-.212s.433.071.561.212.191.315.191.52-.063.376-.191.512-.314.205-.561.205-.432-.068-.56-.205c-.123-.136-.185-.307-.185-.512zm4.587 1.962l.034.82c.543-.638 1.274-.957 2.195-.957 1.034 0 1.738.396 2.112 1.189.246-.355.565-.642.957-.861s.864-.328 1.402-.328c1.622 0 2.447.859 2.474 2.577V121h-1.265v-4.881c0-.529-.12-.923-.362-1.182-.241-.265-.647-.397-1.217-.397-.469 0-.859.141-1.169.424s-.489.654-.54 1.128V121h-1.271v-4.847c0-1.075-.526-1.613-1.579-1.613-.83 0-1.397.353-1.702 1.06v5.4h-1.265v-7.396h1.196zm14.158 7.533c-1.003 0-1.819-.328-2.448-.985s-.943-1.542-.943-2.645v-.233c0-.733.139-1.387.417-1.962a3.28 3.28 0 0 1 1.176-1.353c.506-.328 1.052-.492 1.64-.492.962 0 1.709.317 2.242.95s.8 1.54.8 2.721v.526h-5.01c.018.729.23 1.319.635 1.771.41.446.93.669 1.559.669.446 0 .825-.091 1.135-.273s.581-.424.813-.725l.773.602c-.62.952-1.55 1.429-2.789 1.429zm-.158-6.631c-.51 0-.939.187-1.285.56s-.56.889-.642 1.559h3.705v-.096c-.037-.642-.21-1.139-.52-1.49s-.729-.533-1.258-.533zm7.144 2.782h-3.336v-1.032h3.336v1.032zm.902-.055c0-.724.141-1.376.424-1.955a3.23 3.23 0 0 1 1.189-1.34c.511-.314 1.092-.471 1.744-.471 1.007 0 1.82.348 2.44 1.046s.937 1.624.937 2.782v.089c0 .72-.139 1.367-.417 1.941s-.668 1.014-1.183 1.333-1.098.479-1.764.479c-1.002 0-1.816-.349-2.44-1.046s-.93-1.62-.93-2.769v-.089zm1.272.151c0 .82.189 1.479.567 1.975.383.497.893.745 1.531.745s1.153-.25 1.532-.751.567-1.213.567-2.12c0-.811-.194-1.467-.581-1.968a1.82 1.82 0 0 0-1.531-.759c-.625 0-1.128.248-1.511.745s-.574 1.208-.574 2.133zm7.67 3.616v-6.419h-1.169v-.977h1.169v-.759c0-.793.212-1.406.635-1.839s1.023-.65 1.798-.65c.292 0 .581.039.868.117l-.068 1.025c-.214-.041-.442-.061-.684-.061-.41 0-.726.12-.95.362-.223.237-.335.579-.335 1.025v.78h1.579v.977h-1.579V121h-1.264zm4.867 0v-6.419h-1.169v-.977h1.169v-.759c0-.793.212-1.406.636-1.839s1.023-.65 1.797-.65c.292 0 .581.039.869.117l-.069 1.025a3.63 3.63 0 0 0-.683-.061c-.411 0-.727.12-.951.362-.223.237-.335.579-.335 1.025v.78h1.58v.977h-1.58V121h-1.264z" fill="#fcb316"/><path d="M112.155 100v-9.953h3.254c1.08 0 1.891.223 2.434.67s.82 1.107.82 1.982c0 .465-.132.877-.396 1.237a2.59 2.59 0 0 1-1.08.827c.537.15.961.438 1.271.861s.472.921.472 1.504c0 .893-.29 1.595-.868 2.105s-1.397.766-2.455.766h-3.452zm1.313-4.655v3.582h2.167c.61 0 1.091-.157 1.442-.472.356-.319.533-.757.533-1.312 0-1.199-.651-1.798-1.955-1.798h-2.187zm0-1.053h1.982c.574 0 1.032-.144 1.374-.431.347-.287.52-.677.52-1.169 0-.547-.16-.943-.479-1.19s-.804-.376-1.456-.376h-1.941v3.165zm10.787-.554c-.192-.032-.399-.048-.622-.048-.83 0-1.392.353-1.689 1.06V100h-1.264v-7.397h1.23l.021.855c.414-.661 1.002-.991 1.763-.991.246 0 .433.032.561.096v1.176zm4.101 6.399c-1.002 0-1.818-.328-2.447-.985s-.943-1.543-.943-2.645v-.232c0-.734.139-1.388.417-1.962s.674-1.03 1.176-1.353 1.052-.492 1.64-.492c.962 0 1.709.317 2.242.95s.8 1.54.8 2.721v.526h-5.011c.019.729.231 1.319.636 1.77s.93.67 1.559.67c.446 0 .825-.091 1.135-.273s.581-.424.813-.725l.773.602c-.62.953-1.55 1.429-2.79 1.429zm-.157-6.631a1.68 1.68 0 0 0-1.285.561c-.346.369-.56.889-.643 1.559h3.706v-.096c-.037-.643-.21-1.139-.52-1.49s-.729-.533-1.258-.533zm9.078 6.494c-.073-.146-.132-.406-.177-.779-.588.611-1.29.916-2.106.916-.729 0-1.328-.205-1.798-.615s-.697-.939-.697-1.572c0-.77.292-1.367.875-1.791s1.413-.643 2.475-.643h1.23v-.581c0-.442-.132-.793-.396-1.053s-.654-.396-1.169-.396c-.452 0-.83.114-1.135.342s-.458.504-.458.827h-1.272c0-.369.13-.725.39-1.066s.62-.62 1.066-.82c.452-.201.946-.301 1.484-.301.852 0 1.52.214 2.003.643s.734 1.009.752 1.757v3.404c0 .679.086 1.219.26 1.62V100h-1.327zm-2.098-.964c.396 0 .772-.103 1.128-.308s.613-.472.772-.8v-1.518h-.991c-1.55 0-2.324.453-2.324 1.36 0 .397.132.706.396.93s.604.335 1.019.335zm7.212-2.461l-.793.827V100h-1.265V89.5h1.265v6.351l.676-.814 2.304-2.434h1.538l-2.878 3.09 3.213 4.307h-1.483l-2.577-3.425z" class="B"/><path d="M341 86a4 4 0 0 1 4-4h102a4 4 0 0 1 4 4v65a4 4 0 0 1-4 4H345a4 4 0 0 1-4-4V86z" class="D"/><path d="M341 82h4v73h-4z" class="C"/><path d="M355.302 96.862l.191 1.313.28-1.183 1.969-6.945h1.108l1.921 6.945.273 1.203.212-1.34 1.545-6.809h1.319L361.707 100h-1.196l-2.051-7.253-.157-.759-.157.759L356.02 100h-1.197l-2.406-9.953h1.312l1.573 6.815zm9.529-.629c0-.725.141-1.376.424-1.955s.683-1.025 1.189-1.34 1.092-.472 1.744-.472c1.007 0 1.82.349 2.44 1.046s.936 1.625.936 2.782v.089c0 .72-.139 1.367-.417 1.941a3.11 3.11 0 0 1-1.182 1.333c-.511.319-1.098.479-1.764.479-1.002 0-1.816-.349-2.44-1.046s-.93-1.62-.93-2.769v-.089zm1.272.15c0 .82.189 1.479.567 1.976s.893.745 1.531.745 1.153-.251 1.531-.752.568-1.212.568-2.119c0-.811-.194-1.467-.581-1.969a1.82 1.82 0 0 0-1.531-.759c-.625 0-1.128.248-1.511.745s-.574 1.208-.574 2.133zm10.623-2.645c-.192-.032-.399-.048-.622-.048-.83 0-1.393.353-1.689 1.06V100h-1.265v-7.397h1.231l.02.855c.415-.661 1.003-.991 1.764-.991.246 0 .433.032.561.096v1.176zm3.233 2.837l-.793.827V100h-1.265V89.5h1.265v6.351l.677-.814 2.303-2.434h1.539l-2.878 3.09L384.02 100h-1.484l-2.577-3.425z" class="B"/><path d="M354.468 117.104V121h-1.313v-9.953h3.671c1.089 0 1.942.278 2.557.834s.929 1.292.929 2.208c0 .966-.303 1.711-.909 2.235s-1.465.78-2.591.78h-2.344zm0-1.074h2.358c.702 0 1.24-.164 1.613-.492s.561-.811.561-1.435c0-.593-.187-1.067-.561-1.422s-.886-.54-1.538-.554h-2.433v3.903zm10.896-1.292c-.191-.032-.399-.048-.622-.048-.829 0-1.392.354-1.688 1.06V121h-1.265v-7.396h1.231l.02.854c.415-.661 1.003-.991 1.764-.991.246 0 .433.032.56.095v1.176zm.698 2.495c0-.724.141-1.376.423-1.955s.684-1.025 1.19-1.34 1.091-.471 1.743-.471c1.007 0 1.821.348 2.44 1.046.625.697.937 1.624.937 2.782v.089c0 .72-.139 1.367-.417 1.941s-.668 1.014-1.183 1.333-1.098.479-1.763.479c-1.003 0-1.816-.349-2.441-1.046s-.929-1.62-.929-2.769v-.089zm1.271.151c0 .82.189 1.479.567 1.975.383.497.894.745 1.532.745s1.153-.25 1.531-.751.567-1.213.567-2.12c0-.811-.193-1.467-.581-1.968a1.82 1.82 0 0 0-1.531-.759c-.624 0-1.128.248-1.511.745s-.574 1.208-.574 2.133zm8.354-3.78v8.25c0 1.422-.645 2.133-1.935 2.133a2.35 2.35 0 0 1-.773-.123v-1.011c.146.036.338.054.575.054.282 0 .496-.077.642-.232s.226-.415.226-.793v-8.278h1.265zm-1.395-1.962c0-.201.062-.372.185-.513.127-.146.312-.219.553-.219.246 0 .433.071.561.212a.75.75 0 0 1 .191.52c0 .205-.064.376-.191.512s-.315.205-.561.205-.43-.068-.553-.205-.185-.307-.185-.512zm6.508 9.495c-1.003 0-1.819-.328-2.447-.985s-.944-1.542-.944-2.645v-.233c0-.733.139-1.387.417-1.962s.675-1.029 1.176-1.353a2.96 2.96 0 0 1 1.641-.492c.961 0 1.709.317 2.242.95s.8 1.54.8 2.721v.526h-5.011c.018.729.23 1.319.636 1.771.41.446.929.669 1.558.669.447 0 .825-.091 1.135-.273s.581-.424.813-.725l.773.602c-.62.952-1.55 1.429-2.789 1.429zm-.157-6.631c-.511 0-.939.187-1.286.56s-.56.889-.642 1.559h3.705v-.096c-.037-.642-.21-1.139-.52-1.49s-.729-.533-1.257-.533zm7.478 5.598a1.82 1.82 0 0 0 1.183-.41 1.44 1.44 0 0 0 .56-1.025h1.197c-.023.424-.169.827-.438 1.21s-.629.688-1.08.916-.921.342-1.422.342c-1.007 0-1.809-.335-2.406-1.005-.593-.675-.889-1.595-.889-2.762v-.212c0-.72.132-1.36.397-1.921s.642-.995 1.134-1.305 1.083-.465 1.757-.465c.83 0 1.518.248 2.065.745s.845 1.142.882 1.934h-1.197c-.036-.478-.218-.87-.547-1.175-.323-.31-.724-.465-1.203-.465-.642 0-1.141.232-1.497.697-.351.46-.526 1.128-.526 2.003v.239c0 .853.175 1.509.526 1.969s.852.69 1.504.69zm6.077-8.292v1.792h1.381v.977h-1.381v4.587c0 .296.062.52.185.67s.332.219.629.219c.146 0 .346-.028.601-.082V121c-.332.091-.656.137-.97.137-.566 0-.992-.171-1.279-.513s-.43-.827-.43-1.456v-4.587h-1.347v-.977h1.347v-1.792h1.264zm9.782 3.049l2.386-3.814h1.545l-3.144 4.935 3.219 5.018h-1.558l-2.448-3.883-2.46 3.883h-1.552l3.226-5.018-3.151-4.935h1.538l2.399 3.814z" class="C"/><path d="M101 163h110v146a4 4 0 0 1-4 4H105a4 4 0 0 1-4-4V163z" class="D"/><path d="M101 163h4v150h-4z" class="C"/><path d="M115.302 176.862l.191 1.313.28-1.183 1.969-6.945h1.108l1.921 6.945.273 1.203.212-1.34 1.545-6.808h1.319L121.707 180h-1.196l-2.051-7.253-.157-.759-.157.759L116.02 180h-1.197l-2.406-9.953h1.312l1.573 6.815zm9.529-.629c0-.724.141-1.376.424-1.955s.683-1.025 1.189-1.34 1.092-.471 1.744-.471c1.007 0 1.82.348 2.44 1.046s.936 1.624.936 2.782v.089c0 .72-.139 1.367-.417 1.941-.273.57-.667 1.014-1.182 1.333s-1.098.479-1.764.479c-1.002 0-1.816-.349-2.44-1.046s-.93-1.62-.93-2.769v-.089zm1.272.151c0 .82.189 1.479.567 1.975s.893.745 1.531.745c.643 0 1.153-.25 1.531-.751s.568-1.213.568-2.12c0-.811-.194-1.467-.581-1.968a1.82 1.82 0 0 0-1.531-.759c-.625 0-1.128.248-1.511.745s-.574 1.208-.574 2.133zm10.623-2.646c-.192-.032-.399-.048-.622-.048-.83 0-1.393.354-1.689 1.06V180h-1.265v-7.396h1.231l.02.854c.415-.661 1.003-.991 1.764-.991.246 0 .433.032.561.095v1.176zm3.233 2.837l-.793.827V180h-1.265v-10.5h1.265v6.351l.677-.814 2.303-2.433h1.539l-2.878 3.089L144.02 180h-1.484l-2.577-3.425z" class="B"/><path d="M114.468 197.104V201h-1.313v-9.953h3.671c1.089 0 1.942.278 2.557.834.62.556.929 1.292.929 2.208 0 .966-.303 1.711-.909 2.235s-1.465.78-2.591.78h-2.344zm0-1.074h2.358c.702 0 1.24-.164 1.613-.492s.561-.811.561-1.435c0-.593-.187-1.067-.561-1.422s-.886-.54-1.538-.554h-2.433v3.903zm10.896-1.292c-.191-.032-.399-.048-.622-.048-.829 0-1.392.354-1.688 1.06V201h-1.265v-7.396h1.231l.02.854c.415-.661 1.003-.991 1.764-.991.246 0 .433.032.56.095v1.176zm.698 2.495c0-.724.141-1.376.423-1.955.287-.578.684-1.025 1.19-1.34s1.091-.471 1.743-.471c1.007 0 1.821.348 2.44 1.046.625.697.937 1.624.937 2.782v.089c0 .72-.139 1.367-.417 1.941s-.668 1.014-1.183 1.333c-.51.319-1.098.479-1.763.479-1.003 0-1.816-.349-2.441-1.046s-.929-1.62-.929-2.769v-.089zm1.271.151c0 .82.189 1.479.567 1.975s.894.745 1.532.745 1.153-.25 1.531-.751.567-1.213.567-2.12c0-.811-.193-1.467-.581-1.968a1.82 1.82 0 0 0-1.531-.759c-.624 0-1.128.248-1.511.745s-.574 1.208-.574 2.133zm8.354-3.78v8.25c0 1.422-.645 2.133-1.935 2.133a2.35 2.35 0 0 1-.773-.123v-1.011c.146.036.338.054.575.054.282 0 .496-.077.642-.232.151-.151.226-.415.226-.793v-8.278h1.265zm-1.395-1.962c0-.201.062-.372.185-.513s.312-.219.553-.219.433.071.561.212a.75.75 0 0 1 .191.52c0 .205-.064.376-.191.512s-.315.205-.561.205-.43-.068-.553-.205-.185-.307-.185-.512zm6.508 9.495c-1.003 0-1.819-.328-2.447-.985s-.944-1.542-.944-2.645v-.233c0-.733.139-1.387.417-1.962.283-.578.675-1.029 1.176-1.353a2.96 2.96 0 0 1 1.641-.492c.961 0 1.709.317 2.242.95s.8 1.54.8 2.721v.526h-5.011c.018.729.23 1.319.636 1.771.41.446.929.669 1.558.669.447 0 .825-.091 1.135-.273s.581-.424.813-.725l.773.602c-.62.952-1.55 1.429-2.789 1.429zm-.157-6.631c-.511 0-.939.187-1.286.56s-.56.889-.642 1.559h3.705v-.096c-.037-.642-.21-1.139-.52-1.49s-.729-.533-1.257-.533zm7.478 5.598a1.82 1.82 0 0 0 1.183-.41 1.44 1.44 0 0 0 .56-1.025h1.197c-.023.424-.169.827-.438 1.21s-.629.688-1.08.916-.921.342-1.422.342c-1.007 0-1.809-.335-2.406-1.005-.593-.675-.889-1.595-.889-2.762v-.212c0-.72.132-1.36.397-1.921s.642-.995 1.134-1.305c.497-.31 1.083-.465 1.757-.465.83 0 1.518.248 2.065.745s.845 1.142.882 1.934h-1.197c-.036-.478-.218-.87-.547-1.175-.323-.31-.724-.465-1.203-.465-.642 0-1.141.232-1.497.697-.351.46-.526 1.128-.526 2.003v.239c0 .853.175 1.509.526 1.969s.852.69 1.504.69zm6.077-8.292v1.792h1.381v.977h-1.381v4.587c0 .296.062.52.185.67s.332.219.629.219c.146 0 .346-.028.601-.082V201c-.332.091-.656.137-.97.137-.566 0-.992-.171-1.279-.513s-.43-.827-.43-1.456v-4.587h-1.347v-.977h1.347v-1.792h1.264zm9.782 3.049l2.386-3.814h1.545l-3.144 4.935 3.219 5.018h-1.558l-2.448-3.883-2.46 3.883h-1.552l3.226-5.018-3.151-4.935h1.538l2.399 3.814z" class="C"/><g filter="url(#B)"><rect x="248" y="268" width="215" height="45" rx="4" fill="#fff"/></g><path d="M269.302 291.862l.191 1.313.28-1.183 1.969-6.945h1.108l1.921 6.945.273 1.203.212-1.34 1.545-6.808h1.319L275.707 295h-1.196l-2.051-7.253-.157-.759-.157.759L270.02 295h-1.197l-2.406-9.953h1.312l1.573 6.815zm9.529-.629c0-.724.141-1.376.424-1.955s.683-1.025 1.189-1.34 1.092-.471 1.744-.471c1.007 0 1.82.348 2.44 1.046s.936 1.624.936 2.782v.089c0 .72-.139 1.367-.417 1.941-.273.57-.667 1.014-1.182 1.333s-1.098.479-1.764.479c-1.002 0-1.816-.349-2.44-1.046s-.93-1.62-.93-2.769v-.089zm1.272.151c0 .82.189 1.479.567 1.975s.893.745 1.531.745 1.153-.25 1.531-.751c.379-.506.568-1.213.568-2.12 0-.811-.194-1.467-.581-1.968a1.82 1.82 0 0 0-1.531-.759c-.625 0-1.128.248-1.511.745s-.574 1.208-.574 2.133zm10.623-2.646c-.192-.032-.399-.048-.622-.048-.83 0-1.393.354-1.689 1.06V295h-1.265v-7.396h1.231l.02.854c.415-.661 1.003-.991 1.764-.991.246 0 .433.032.561.095v1.176zm3.233 2.837l-.793.827V295h-1.265v-10.5h1.265v6.351l.677-.814 2.303-2.433h1.539l-2.878 3.089L298.02 295h-1.484l-2.577-3.425z" class="B"/><g class="C"><path d="M327.468 292.104V296h-1.313v-9.953h3.671c1.089 0 1.942.278 2.557.834s.929 1.292.929 2.208c0 .966-.303 1.711-.909 2.235s-1.465.78-2.591.78h-2.344zm0-1.074h2.358c.702 0 1.24-.164 1.613-.492.374-.333.561-.811.561-1.435 0-.593-.187-1.067-.561-1.422s-.886-.54-1.538-.554h-2.433v3.903zm10.896-1.292c-.191-.032-.399-.048-.622-.048-.829 0-1.392.354-1.688 1.06V296h-1.265v-7.396h1.231l.02.854c.415-.661 1.003-.991 1.764-.991.246 0 .433.032.56.095v1.176zm.698 2.495c0-.724.141-1.376.423-1.955s.684-1.025 1.19-1.34 1.091-.471 1.743-.471c1.007 0 1.821.348 2.44 1.046.625.697.937 1.624.937 2.782v.089c0 .72-.139 1.367-.417 1.941s-.668 1.014-1.183 1.333-1.098.479-1.763.479c-1.003 0-1.816-.349-2.441-1.046s-.929-1.62-.929-2.769v-.089zm1.271.151c0 .82.189 1.479.567 1.975.383.497.894.745 1.532.745s1.153-.25 1.531-.751c.378-.506.567-1.213.567-2.12 0-.811-.193-1.467-.581-1.968a1.82 1.82 0 0 0-1.531-.759c-.624 0-1.128.248-1.511.745s-.574 1.208-.574 2.133zm8.354-3.78v8.25c0 1.422-.645 2.133-1.935 2.133a2.35 2.35 0 0 1-.773-.123v-1.011c.146.036.338.054.575.054.282 0 .496-.077.642-.232s.226-.415.226-.793v-8.278h1.265zm-1.395-1.962c0-.201.062-.372.185-.513.127-.146.312-.219.553-.219.246 0 .433.071.561.212a.75.75 0 0 1 .191.52c0 .205-.064.376-.191.512s-.315.205-.561.205-.43-.068-.553-.205-.185-.307-.185-.512zm6.508 9.495c-1.003 0-1.819-.328-2.447-.985s-.944-1.542-.944-2.645v-.233c0-.733.139-1.387.417-1.962s.675-1.029 1.176-1.353a2.96 2.96 0 0 1 1.641-.492c.961 0 1.709.317 2.242.95s.8 1.54.8 2.721v.526h-5.011c.018.729.23 1.319.636 1.771.41.446.929.669 1.558.669.447 0 .825-.091 1.135-.273s.581-.424.813-.725l.773.602c-.62.952-1.55 1.429-2.789 1.429zm-.157-6.631c-.511 0-.939.187-1.286.56s-.56.889-.642 1.559h3.705v-.096c-.037-.642-.21-1.139-.52-1.49s-.729-.533-1.257-.533zm7.478 5.598a1.82 1.82 0 0 0 1.183-.41 1.44 1.44 0 0 0 .56-1.025h1.197c-.023.424-.169.827-.438 1.21s-.629.688-1.08.916-.921.342-1.422.342c-1.007 0-1.809-.335-2.406-1.005s-.889-1.595-.889-2.762v-.212c0-.72.132-1.36.397-1.921s.642-.995 1.134-1.305 1.083-.465 1.757-.465c.83 0 1.518.248 2.065.745s.845 1.142.882 1.934h-1.197c-.036-.478-.218-.87-.547-1.175-.323-.31-.724-.465-1.203-.465-.642 0-1.141.232-1.497.697s-.526 1.128-.526 2.003v.239c0 .853.175 1.509.526 1.969s.852.69 1.504.69zm6.077-8.292v1.792h1.381v.977h-1.381v4.587c0 .296.062.52.185.67s.332.219.629.219c.146 0 .346-.028.601-.082V296c-.332.091-.656.137-.97.137-.566 0-.992-.171-1.279-.513s-.43-.827-.43-1.456v-4.587h-1.347v-.977h1.347v-1.792h1.264zm9.782 3.049l2.386-3.814h1.545l-3.144 4.935 3.219 5.018h-1.558l-2.448-3.883-2.46 3.883h-1.552l3.226-5.018-3.151-4.935h1.538l2.399 3.814z"/><circle cx="319.5" cy="291.5" r="2.5"/></g><path fill-rule="evenodd" d="M448.845 290.698l.004-.005-.071-.04c-.011-.005-.019-.013-.03-.016l-13.095-6.55-.004.004c-.068-.054-.152-.091-.247-.091-.222 0-.402.177-.402.394v13.213c0 .217.18.393.402.393.095 0 .179-.036.247-.09l.004.004 13.095-6.55c.011-.004.019-.011.029-.017l.072-.039-.004-.005c.092-.072.155-.178.155-.303s-.063-.231-.155-.302z" fill="#03a9f4"/><path d="M398.243 296h-1.654v-7.991l-2.441.834v-1.402l3.883-1.428h.212V296zm4.567-1.75c.309 0 .549.089.717.267a.9.9 0 0 1 .253.656.89.89 0 0 1-.253.649c-.168.169-.408.253-.717.253-.297 0-.531-.084-.705-.253s-.259-.385-.259-.649a.9.9 0 0 1 .253-.656c.168-.178.405-.267.711-.267zm0-5.804c.309 0 .549.089.717.267a.9.9 0 0 1 .253.656c0 .26-.084.476-.253.65-.168.168-.408.252-.717.252-.297 0-.531-.084-.705-.252s-.259-.386-.259-.65a.9.9 0 0 1 .253-.656c.168-.178.405-.267.711-.267zm9.098 3.364c0 1.431-.269 2.511-.806 3.24s-1.347 1.087-2.441 1.087c-1.075 0-1.887-.353-2.433-1.06s-.821-1.761-.834-3.151v-1.723c0-1.431.266-2.504.799-3.22.538-.715 1.356-1.073 2.454-1.073 1.09 0 1.901.349 2.434 1.046s.814 1.741.827 3.131v1.723zm-1.661-1.86c0-.934-.128-1.618-.383-2.051s-.661-.656-1.217-.656c-.542 0-.941.208-1.196.622s-.389 1.053-.403 1.928v2.256c0 .93.13 1.622.39 2.078s.667.684 1.223.684c.533 0 .928-.21 1.183-.629.255-.424.389-1.085.403-1.983v-2.249zm9.618 1.86c0 1.431-.269 2.511-.806 3.24s-1.347 1.087-2.441 1.087c-1.075 0-1.887-.353-2.433-1.06s-.821-1.761-.834-3.151v-1.723c0-1.431.266-2.504.799-3.22.538-.715 1.356-1.073 2.454-1.073 1.09 0 1.901.349 2.434 1.046s.814 1.741.827 3.131v1.723zm-1.661-1.86c0-.934-.128-1.618-.383-2.051s-.661-.656-1.217-.656c-.542 0-.941.208-1.196.622s-.389 1.053-.403 1.928v2.256c0 .93.13 1.622.39 2.078s.667.684 1.223.684c.533 0 .928-.21 1.183-.629.255-.424.389-1.085.403-1.983v-2.249z" class="B"/><defs><filter id="A" x="0" y="0" width="523" height="375" filterUnits="userSpaceOnUse" class="E"><feFlood flood-opacity="0" result="A"/><feColorMatrix in="SourceAlpha" values="0 0 0 0 0 0 0 0 0 0 0 0 0 0 0 0 0 0 127 0"/><feOffset/><feGaussianBlur stdDeviation="25"/><feColorMatrix values="0 0 0 0 0.00392157 0 0 0 0 0.341176 0 0 0 0 0.607843 0 0 0 0.1 0"/><feBlend in2="A"/><feBlend in="SourceGraphic"/></filter><filter id="B" x="198" y="218" width="315" height="145" filterUnits="userSpaceOnUse" class="E"><feFlood flood-opacity="0" result="A"/><feColorMatrix in="SourceAlpha" values="0 0 0 0 0 0 0 0 0 0 0 0 0 0 0 0 0 0 127 0"/><feOffset/><feGaussianBlur stdDeviation="25"/><feColorMatrix values="0 0 0 0 0.00392157 0 0 0 0 0.341176 0 0 0 0 0.607843 0 0 0 0.1 0"/><feBlend in2="A"/><feBlend in="SourceGraphic"/></filter></defs></svg>