<svg xmlns="http://www.w3.org/2000/svg" xmlns:xlink="http://www.w3.org/1999/xlink" width="522" height="420" fill="none" xmlns:v="https://vecta.io/nano"><style><![CDATA[.B{stroke:#3d4853}.C{fill:#fff}.D{fill:#3d4853}.E{fill:#84d2f6}]]></style><g filter="url(#F)" class="C"><path d="M50 54a4 4 0 0 1 4-4h414a4 4 0 0 1 4 4v312a4 4 0 0 1-4 4H54a4 4 0 0 1-4-4V54z"/></g><path d="M140.096 211.727l.192 1.312.28-1.182 1.969-6.946h1.107l1.921 6.946.273 1.203.212-1.34 1.545-6.809h1.32l-2.414 9.954h-1.196l-2.051-7.253-.157-.759-.157.759-2.126 7.253h-1.196l-2.407-9.954h1.313l1.572 6.816zm13.508-3.124c-.191-.032-.399-.048-.622-.048-.829 0-1.392.353-1.689 1.06v5.25h-1.264v-7.397h1.23l.021.855c.414-.661 1.002-.992 1.763-.992.247 0 .433.032.561.096v1.176zm2.543 6.262h-1.265v-7.397h1.265v7.397zm-1.367-9.359a.76.76 0 0 1 .184-.519c.128-.142.315-.212.561-.212s.433.07.56.212.192.314.192.519-.064.376-.192.513-.314.205-.56.205-.433-.068-.561-.205c-.123-.137-.184-.308-.184-.513zm5.113.171v1.791h1.381v.978h-1.381v4.586c0 .297.062.52.185.67s.332.219.629.219c.145 0 .346-.027.601-.082v1.026a3.67 3.67 0 0 1-.971.136c-.565 0-.991-.171-1.278-.512s-.431-.828-.431-1.457v-4.586h-1.346v-.978h1.346v-1.791h1.265zm4.238 9.188h-1.264v-7.397h1.264v7.397zm-1.367-9.359c0-.205.062-.378.185-.519s.314-.212.56-.212.433.07.561.212.191.314.191.519-.064.376-.191.513-.315.205-.561.205-.433-.068-.56-.205a.74.74 0 0 1-.185-.513zm4.594 1.962l.041.93c.565-.711 1.303-1.067 2.215-1.067 1.563 0 2.351.882 2.365 2.646v4.888h-1.265v-4.895c-.004-.533-.127-.927-.369-1.183s-.608-.382-1.114-.382c-.41 0-.77.109-1.08.328s-.552.506-.725.861v5.271h-1.264v-7.397h1.196zm6.227 3.637c0-1.153.267-2.069.8-2.748a2.55 2.55 0 0 1 2.119-1.026c.903 0 1.607.319 2.113.957l.061-.82h1.155v7.219c0 .957-.284 1.711-.854 2.262s-1.326.828-2.283.828c-.533 0-1.055-.114-1.566-.342s-.9-.54-1.169-.937l.657-.758c.542.669 1.205 1.004 1.989 1.004.615 0 1.094-.173 1.435-.519.347-.347.52-.834.52-1.463v-.636c-.506.584-1.196.875-2.071.875-.866 0-1.568-.348-2.106-1.046-.533-.697-.8-1.647-.8-2.85zm1.272.143c0 .834.171 1.491.513 1.969s.82.711 1.435.711c.798 0 1.383-.362 1.757-1.087v-3.377c-.387-.706-.968-1.059-1.743-1.059-.615 0-1.096.239-1.443.717s-.519 1.187-.519 2.126zm14.93 3.617c-.073-.146-.133-.406-.178-.78-.588.611-1.29.916-2.106.916-.729 0-1.328-.205-1.797-.615s-.698-.939-.698-1.572c0-.77.292-1.367.875-1.791s1.413-.643 2.475-.643h1.23v-.581c0-.442-.132-.793-.396-1.053s-.654-.396-1.169-.396c-.451 0-.829.114-1.135.342s-.458.503-.458.827h-1.271c0-.369.13-.725.389-1.067.265-.346.62-.619 1.067-.82s.945-.301 1.483-.301c.852 0 1.52.214 2.003.643s.734 1.009.752 1.757v3.404c0 .679.087 1.219.26 1.62v.11h-1.326zm-2.099-.964c.396 0 .772-.103 1.128-.308a1.86 1.86 0 0 0 .772-.8v-1.517h-.991c-1.549 0-2.324.453-2.324 1.36 0 .396.132.706.396.93s.604.335 1.019.335zm8.723-5.298c-.192-.032-.399-.048-.622-.048-.83 0-1.393.353-1.689 1.06v5.25h-1.265v-7.397h1.231l.02.855c.415-.661 1.003-.992 1.764-.992.246 0 .433.032.561.096v1.176zm3.226-2.926v1.791h1.381v.978h-1.381v4.586c0 .297.062.52.185.67s.332.219.629.219a3.03 3.03 0 0 0 .601-.082v1.026c-.332.091-.656.136-.97.136-.566 0-.992-.171-1.279-.512s-.43-.828-.43-1.457v-4.586h-1.347v-.978h1.347v-1.791h1.264zm4.238 9.188h-1.264v-7.397h1.264v7.397zm-1.367-9.359c0-.205.062-.378.185-.519s.314-.212.56-.212.433.07.561.212.191.314.191.519a.72.72 0 0 1-.191.513c-.128.137-.314.205-.561.205s-.433-.068-.56-.205a.74.74 0 0 1-.185-.513zm6.365 8.463a1.82 1.82 0 0 0 1.182-.41c.337-.274.524-.615.561-1.026h1.196c-.023.424-.169.828-.437 1.21s-.629.689-1.081.916a3.08 3.08 0 0 1-1.421.342c-1.008 0-1.81-.335-2.407-1.005s-.888-1.595-.888-2.761v-.212c0-.72.132-1.361.396-1.921s.643-.996 1.135-1.306 1.082-.465 1.757-.465c.829 0 1.517.249 2.064.745s.846 1.142.882 1.935h-1.196c-.037-.479-.219-.87-.547-1.176s-.725-.465-1.203-.465c-.643 0-1.142.233-1.497.698-.351.46-.527 1.128-.527 2.003v.239c0 .852.176 1.508.527 1.969s.852.69 1.504.69zm5.735.896h-1.265v-10.5h1.265v10.5zm5.1.136c-1.003 0-1.819-.328-2.448-.984s-.943-1.543-.943-2.646v-.232c0-.734.139-1.388.417-1.962s.674-1.03 1.176-1.354 1.052-.492 1.64-.492c.962 0 1.709.317 2.242.95s.8 1.541.8 2.721v.527h-5.01c.018.729.23 1.319.635 1.77s.93.67 1.559.67c.446 0 .825-.091 1.135-.273a2.85 2.85 0 0 0 .813-.725l.773.602c-.62.952-1.55 1.428-2.789 1.428zm-.158-6.631a1.68 1.68 0 0 0-1.285.561c-.346.369-.56.889-.642 1.559h3.705v-.096c-.037-.643-.21-1.14-.52-1.49-.31-.356-.729-.534-1.258-.534z" class="D"/><mask id="A" mask-type="alpha" maskUnits="userSpaceOnUse" x="80" y="136" width="30" height="30"><circle cx="95" cy="151" r="14.5" class="B E"/></mask><g mask="url(#A)"><use xlink:href="#G" class="B C"/><circle cx="95" cy="151" r="5.5" class="B C"/><path d="M99.742 143v5h-9.359v-5a1 1 0 0 1 1-1h7.359a1 1 0 0 1 1 1z" class="C"/><path d="M99.742 148v-5a1 1 0 0 0-1-1h-7.359a1 1 0 0 0-1 1v5m9.359 0h-9.359m9.359 0H102m-11.617 0H88" class="B"/><circle cx="95" cy="151" r="14.5" class="B"/></g><path d="M145.271 153.401c-.123 1.053-.513 1.866-1.169 2.441-.652.569-1.52.854-2.604.854-1.176 0-2.12-.422-2.831-1.265s-1.059-1.971-1.059-3.383v-.957c0-.926.164-1.739.492-2.441s.802-1.239 1.408-1.613 1.308-.568 2.106-.568c1.057 0 1.905.297 2.543.889s1.009 1.404 1.114 2.447h-1.319c-.114-.793-.363-1.367-.745-1.722s-.91-.533-1.593-.533c-.839 0-1.497.309-1.976.929s-.711 1.502-.711 2.646v.964c0 1.08.226 1.939.677 2.577s1.082.957 1.894.957c.729 0 1.287-.164 1.674-.492s.652-.91.78-1.73h1.319zm2.974 3.158h-1.265v-10.5h1.265v10.5zm3.404 0h-1.265v-7.396h1.265v7.396zm-1.367-9.358c0-.205.061-.378.184-.52s.315-.212.561-.212.433.071.56.212.192.315.192.52-.064.376-.192.513-.314.205-.56.205-.433-.069-.561-.205-.184-.308-.184-.513zm6.467 9.495c-1.003 0-1.819-.328-2.448-.984s-.943-1.543-.943-2.646v-.232c0-.734.139-1.388.417-1.962.282-.579.674-1.03 1.176-1.354s1.052-.492 1.64-.492c.962 0 1.709.317 2.242.95s.8 1.541.8 2.721v.526h-5.01c.018.73.23 1.32.635 1.771s.93.67 1.559.67c.447 0 .825-.091 1.135-.274s.581-.423.813-.724l.773.601c-.62.953-1.55 1.429-2.789 1.429zm-.158-6.631a1.68 1.68 0 0 0-1.285.561c-.346.369-.56.888-.642 1.558h3.705v-.095c-.037-.643-.21-1.14-.52-1.491s-.729-.533-1.258-.533zm5.708-.902l.041.93c.565-.711 1.304-1.067 2.215-1.067 1.563 0 2.352.882 2.365 2.646v4.887h-1.264v-4.894c-.005-.533-.128-.928-.369-1.183s-.609-.383-1.115-.383a1.83 1.83 0 0 0-1.08.328c-.31.219-.551.506-.724.862v5.27h-1.265v-7.396h1.196zm8.244-1.791v1.791h1.381v.977h-1.381v4.587c0 .297.062.52.185.67s.333.219.629.219a3.03 3.03 0 0 0 .601-.082v1.025c-.332.091-.656.137-.97.137-.565 0-.991-.171-1.279-.513s-.43-.827-.43-1.456v-4.587h-1.347v-.977h1.347v-1.791h1.264zm7.527 1.791l.034.82c.542-.638 1.274-.957 2.194-.957 1.035 0 1.739.397 2.113 1.19a2.81 2.81 0 0 1 .957-.862c.396-.219.863-.328 1.401-.328 1.622 0 2.447.859 2.475 2.577v4.956h-1.265v-4.881c0-.528-.121-.922-.362-1.182s-.647-.397-1.217-.397c-.469 0-.859.142-1.169.424s-.49.654-.54 1.128v4.908h-1.272v-4.846c0-1.076-.526-1.614-1.579-1.614-.829 0-1.396.354-1.702 1.06v5.4h-1.264v-7.396h1.196zm14.157 7.533c-1.003 0-1.818-.328-2.447-.984s-.944-1.543-.944-2.646v-.232c0-.734.139-1.388.417-1.962.283-.579.675-1.03 1.176-1.354a2.96 2.96 0 0 1 1.641-.492c.961 0 1.709.317 2.242.95s.8 1.541.8 2.721v.526h-5.011c.018.73.23 1.32.636 1.771s.93.67 1.558.67c.447 0 .825-.091 1.135-.274a2.85 2.85 0 0 0 .814-.724l.772.601c-.62.953-1.549 1.429-2.789 1.429zm-.157-6.631a1.68 1.68 0 0 0-1.285.561c-.347.369-.561.888-.643 1.558h3.705v-.095c-.036-.643-.209-1.14-.519-1.491s-.73-.533-1.258-.533zm7.581 6.631c-1.003 0-1.818-.328-2.447-.984s-.944-1.543-.944-2.646v-.232c0-.734.139-1.388.417-1.962.283-.579.675-1.03 1.176-1.354a2.96 2.96 0 0 1 1.641-.492c.961 0 1.709.317 2.242.95s.8 1.541.8 2.721v.526h-5.011c.018.73.23 1.32.636 1.771a2.02 2.02 0 0 0 1.558.67c.447 0 .825-.091 1.135-.274s.581-.423.813-.724l.773.601c-.62.953-1.55 1.429-2.789 1.429zm-.157-6.631a1.68 1.68 0 0 0-1.286.561c-.346.369-.56.888-.642 1.558h3.705v-.095c-.036-.643-.21-1.14-.52-1.491s-.729-.533-1.257-.533zm6.227-2.693v1.791h1.381v.977h-1.381v4.587c0 .297.062.52.185.67s.332.219.629.219a3.03 3.03 0 0 0 .601-.082v1.025c-.332.091-.656.137-.97.137-.566 0-.992-.171-1.279-.513s-.43-.827-.43-1.456v-4.587h-1.347v-.977h1.347v-1.791h1.264zm4.238 9.187h-1.264v-7.396h1.264v7.396zm-1.367-9.358c0-.205.062-.378.185-.52s.314-.212.56-.212.433.071.561.212.191.315.191.52a.72.72 0 0 1-.191.513c-.128.136-.315.205-.561.205s-.433-.069-.56-.205a.74.74 0 0 1-.185-.513zm4.594 1.962l.041.93c.565-.711 1.303-1.067 2.215-1.067 1.563 0 2.351.882 2.365 2.646v4.887h-1.265v-4.894c-.004-.533-.127-.928-.369-1.183s-.608-.383-1.114-.383a1.83 1.83 0 0 0-1.08.328c-.31.219-.551.506-.725.862v5.27h-1.264v-7.396h1.196zm6.228 3.637c0-1.153.266-2.069.799-2.748s1.24-1.026 2.12-1.026c.902 0 1.606.319 2.112.957l.061-.82h1.156v7.219c0 .957-.285 1.711-.855 2.262-.565.552-1.326.827-2.283.827-.533 0-1.055-.113-1.566-.341s-.9-.54-1.168-.937l.656-.759c.542.67 1.205 1.005 1.989 1.005.615 0 1.094-.173 1.436-.519s.519-.834.519-1.463v-.636c-.506.583-1.196.875-2.071.875-.866 0-1.568-.349-2.106-1.046-.533-.697-.799-1.647-.799-2.85zm1.271.143c0 .834.171 1.49.513 1.969.342.474.82.711 1.435.711.798 0 1.383-.363 1.757-1.087v-3.377c-.387-.706-.968-1.06-1.743-1.06-.615 0-1.096.24-1.442.718s-.52 1.187-.52 2.126z" class="D"/><mask id="B" mask-type="alpha" maskUnits="userSpaceOnUse" x="80" y="78" width="30" height="30"><circle cx="95" cy="93" r="14.5" class="B E"/></mask><g mask="url(#B)" class="B"><use xlink:href="#G" y="-60" class="C"/><circle cx="95" cy="91" r="5.5" class="C"/><circle cx="95" cy="93" r="14.5"/></g><mask id="C" mask-type="alpha" maskUnits="userSpaceOnUse" x="80" y="195" width="30" height="30"><circle cx="95" cy="210" r="14.5" class="B E"/></mask><g mask="url(#C)" class="B"><path d="M88 216.5h14a1.5 1.5 0 0 1 1.5 1.5v14a1.5 1.5 0 0 1-1.5 1.5H88a1.5 1.5 0 0 1-1.5-1.5v-14a1.5 1.5 0 0 1 1.5-1.5zm3-14h8a1.5 1.5 0 0 1 1.5 1.5v8a1.5 1.5 0 0 1-1.5 1.5h-8a1.5 1.5 0 0 1-1.5-1.5v-8a1.5 1.5 0 0 1 1.5-1.5z" class="C"/><path d="M98 207H93"/><circle cx="95" cy="210" r="14.5"/></g><path d="M139.269 97.181h4.717v1.073h-6.036v-9.953h1.319v8.88zm10.281.342c-.492.579-1.214.868-2.167.868-.788 0-1.39-.228-1.804-.684s-.618-1.139-.622-2.037v-4.812h1.264v4.778c0 1.121.456 1.682 1.367 1.682.967 0 1.609-.36 1.928-1.08v-5.38h1.265v7.397h-1.203l-.028-.731zm4.355-6.665l.041.93a2.69 2.69 0 0 1 2.215-1.067c1.563 0 2.351.882 2.365 2.646v4.888h-1.265V93.36c-.004-.533-.127-.927-.369-1.183s-.608-.383-1.114-.383c-.41 0-.77.109-1.08.328a2.23 2.23 0 0 0-.725.861v5.271h-1.265v-7.397h1.197zm9.495 6.501c.451 0 .845-.137 1.183-.41a1.44 1.44 0 0 0 .56-1.025h1.196c-.022.424-.168.827-.437 1.21s-.629.688-1.08.916a3.09 3.09 0 0 1-1.422.342c-1.007 0-1.809-.335-2.406-1.005s-.889-1.595-.889-2.762v-.212c0-.72.132-1.36.396-1.921s.643-.996 1.135-1.306c.497-.31 1.083-.465 1.757-.465.829 0 1.518.248 2.065.745s.845 1.142.881 1.935h-1.196c-.036-.478-.219-.87-.547-1.176s-.724-.465-1.203-.465c-.643 0-1.142.232-1.497.697s-.526 1.128-.526 2.003v.239c0 .852.175 1.508.526 1.969s.852.69 1.504.69zm5.626-5.605c.56-.688 1.29-1.032 2.187-1.032 1.564 0 2.352.882 2.366 2.646v4.888h-1.265V93.36c-.005-.533-.128-.927-.369-1.183s-.609-.383-1.114-.383c-.411 0-.771.109-1.081.328a2.23 2.23 0 0 0-.724.861v5.271h-1.265v-10.5h1.265v3.999zm16.181 2.885c0 1.13-.26 2.039-.78 2.728a2.49 2.49 0 0 1-2.092 1.025c-.934 0-1.656-.33-2.167-.991l-.061.855h-1.162v-10.5h1.264v3.917c.511-.633 1.215-.95 2.113-.95s1.602.34 2.112 1.019.773 1.609.773 2.789v.109zm-1.265-.144c0-.861-.166-1.527-.499-1.996s-.811-.704-1.436-.704c-.834 0-1.433.387-1.798 1.162v3.199c.388.775.992 1.162 1.812 1.162.606 0 1.078-.235 1.415-.704s.506-1.176.506-2.119zm6.439-2.502a3.78 3.78 0 0 0-.622-.048c-.829 0-1.392.353-1.688 1.06v5.25h-1.265v-7.397h1.231l.02.855c.415-.661 1.003-.991 1.764-.991.246 0 .433.032.56.096v1.176zm4.102 6.398c-1.003 0-1.818-.328-2.447-.984s-.944-1.543-.944-2.645v-.232c0-.734.139-1.388.417-1.962s.675-1.03 1.176-1.354a2.96 2.96 0 0 1 1.641-.492c.961 0 1.709.317 2.242.95s.8 1.54.8 2.721v.526h-5.011c.018.729.23 1.319.636 1.77s.929.67 1.558.67c.447 0 .825-.091 1.135-.273a2.86 2.86 0 0 0 .814-.725l.772.602c-.62.952-1.55 1.429-2.789 1.429zm-.157-6.631a1.68 1.68 0 0 0-1.285.561c-.347.369-.561.889-.643 1.559h3.705v-.096c-.036-.642-.21-1.139-.52-1.49s-.729-.533-1.257-.533zm9.078 6.494c-.073-.146-.132-.406-.178-.779a2.82 2.82 0 0 1-2.105.916c-.73 0-1.329-.205-1.798-.615s-.698-.939-.698-1.572c0-.77.292-1.367.875-1.791s1.413-.643 2.475-.643h1.231v-.581c0-.442-.133-.793-.397-1.053s-.654-.396-1.169-.396c-.451 0-.829.114-1.135.342s-.458.504-.458.827h-1.271c0-.369.13-.725.39-1.066a2.71 2.71 0 0 1 1.066-.82c.447-.2.946-.301 1.483-.301.853 0 1.52.214 2.003.643s.734 1.01.752 1.757v3.404c0 .679.087 1.219.26 1.62v.109h-1.326zm-2.099-.964a2.22 2.22 0 0 0 1.128-.308c.356-.205.613-.472.773-.8v-1.518h-.992c-1.549 0-2.324.453-2.324 1.36 0 .397.132.706.397.93s.603.335 1.018.335zm7.212-2.461l-.793.827v2.598h-1.265v-10.5h1.265v6.35l.677-.813 2.304-2.434h1.538l-2.878 3.09 3.213 4.307h-1.484l-2.577-3.425zm-68.421 175.203l.192 1.312.28-1.182 1.969-6.946h1.107l1.921 6.946.273 1.203.212-1.34 1.545-6.809h1.32l-2.414 9.953h-1.196l-2.051-7.252-.157-.759-.157.759-2.126 7.252h-1.196l-2.407-9.953h1.313l1.572 6.816zm12.934 3.274c-1.003 0-1.819-.328-2.447-.984s-.944-1.543-.944-2.646v-.232c0-.734.139-1.388.417-1.962s.675-1.03 1.176-1.354a2.96 2.96 0 0 1 1.641-.492c.961 0 1.709.317 2.242.95s.8 1.541.8 2.721v.526h-5.011c.018.73.23 1.32.636 1.771a2.02 2.02 0 0 0 1.558.67c.447 0 .825-.091 1.135-.274s.581-.423.813-.724l.773.601c-.62.953-1.55 1.429-2.789 1.429zm-.157-6.631a1.68 1.68 0 0 0-1.286.561c-.346.369-.56.889-.642 1.558h3.705v-.095c-.037-.643-.21-1.14-.52-1.491s-.729-.533-1.257-.533zm10.773 2.878c0 1.13-.26 2.04-.779 2.728s-1.217 1.025-2.092 1.025c-.934 0-1.657-.33-2.167-.991l-.062.854h-1.162v-10.5h1.265v3.917c.51-.633 1.214-.95 2.112-.95s1.602.34 2.113 1.019.772 1.609.772 2.789v.109zm-1.265-.143c0-.862-.166-1.527-.499-1.996s-.811-.705-1.435-.705c-.834 0-1.433.388-1.798 1.163v3.199c.387.775.991 1.162 1.811 1.162a1.64 1.64 0 0 0 1.415-.704c.338-.47.506-1.176.506-2.119zm6.03 0c0-1.135.269-2.047.806-2.735s1.242-1.039 2.113-1.039c.865 0 1.551.296 2.057.889v-3.856h1.265v10.5h-1.162l-.062-.793c-.506.62-1.21.93-2.112.93-.857 0-1.556-.351-2.099-1.053-.537-.701-.806-1.617-.806-2.748v-.095zm1.264.143c0 .839.173 1.495.52 1.969s.825.711 1.435.711c.802 0 1.388-.36 1.757-1.08v-3.398c-.378-.697-.959-1.046-1.743-1.046-.62 0-1.103.24-1.449.718s-.52 1.187-.52 2.126zm10.015 3.753c-1.003 0-1.818-.328-2.447-.984s-.944-1.543-.944-2.646v-.232c0-.734.139-1.388.417-1.962s.675-1.03 1.176-1.354a2.96 2.96 0 0 1 1.641-.492c.961 0 1.709.317 2.242.95s.8 1.541.8 2.721v.526h-5.011c.018.73.23 1.32.636 1.771a2.02 2.02 0 0 0 1.558.67c.447 0 .825-.091 1.135-.274a2.85 2.85 0 0 0 .814-.724l.772.601c-.62.953-1.549 1.429-2.789 1.429zm-.157-6.631a1.68 1.68 0 0 0-1.285.561c-.347.369-.561.889-.643 1.558h3.705v-.095c-.036-.643-.21-1.14-.519-1.491s-.73-.533-1.258-.533zm8.818 4.533c0-.342-.13-.607-.39-.793-.255-.192-.704-.356-1.346-.493s-1.146-.3-1.525-.492c-.373-.191-.651-.419-.834-.683-.177-.265-.266-.579-.266-.944 0-.606.255-1.119.765-1.538s1.172-.629 1.969-.629c.839 0 1.518.217 2.037.65a2.07 2.07 0 0 1 .786 1.661h-1.271c0-.347-.148-.645-.444-.896s-.661-.376-1.108-.376c-.46 0-.82.101-1.08.301s-.39.463-.39.786c0 .306.121.536.363.691s.676.303 1.305.444 1.147.31 1.538.506.682.433.869.711a1.75 1.75 0 0 1 .287 1.005 1.9 1.9 0 0 1-.793 1.592c-.529.397-1.215.595-2.058.595-.592 0-1.116-.105-1.572-.314s-.814-.502-1.073-.875a2.14 2.14 0 0 1-.383-1.224h1.264c.023.424.192.761.506 1.012s.739.369 1.258.369c.479 0 .861-.096 1.149-.287.291-.196.437-.456.437-.779zm4.286 1.961h-1.264v-7.396h1.264v7.396zm-1.367-9.358c0-.205.062-.378.185-.519s.314-.212.56-.212.433.07.561.212.191.314.191.519-.064.376-.191.513-.315.205-.561.205-.433-.069-.56-.205a.74.74 0 0 1-.185-.513zm3.097 5.599c0-1.153.266-2.069.8-2.748a2.55 2.55 0 0 1 2.119-1.026c.902 0 1.606.319 2.112.957l.061-.82h1.156v7.219c0 .957-.285 1.711-.855 2.262s-1.326.828-2.283.828a3.8 3.8 0 0 1-1.565-.342c-.511-.228-.9-.54-1.169-.937l.656-.759c.542.67 1.205 1.005 1.989 1.005.615 0 1.094-.173 1.436-.519s.519-.834.519-1.463v-.636c-.506.583-1.196.875-2.071.875a2.53 2.53 0 0 1-2.105-1.046c-.534-.697-.8-1.647-.8-2.85zm1.271.143c0 .834.171 1.49.513 1.969s.82.711 1.435.711c.798 0 1.384-.362 1.757-1.087v-3.377c-.387-.706-.968-1.06-1.743-1.06-.615 0-1.096.24-1.442.718s-.52 1.187-.52 2.126zm8.087-3.78l.041.93c.565-.711 1.303-1.067 2.215-1.067 1.563 0 2.352.882 2.365 2.646v4.887h-1.264v-4.894c-.005-.533-.128-.928-.37-1.183-.237-.255-.608-.383-1.114-.383-.41 0-.77.11-1.08.329s-.551.505-.725.861v5.27h-1.264v-7.396h1.196z" class="D"/><mask id="D" mask-type="alpha" maskUnits="userSpaceOnUse" x="80" y="311" width="30" height="30"><circle cx="95" cy="326" r="14.5" class="B E"/></mask><g mask="url(#D)" class="B"><path d="M105 341l-4.521-5.5L105 330l-4.521-3.5m0 0l.294-8.5-4.747 5.053m4.453 3.447l-4.453-3.447m0 0L89.5 318v17.5 5.5l-3.5 5v-20.5"/><circle cx="95" cy="326" r="14.5"/></g><mask id="E" mask-type="alpha" maskUnits="userSpaceOnUse" x="80" y="253" width="30" height="30"><circle cx="95" cy="268" r="14.5" class="B E"/></mask><g mask="url(#E)" class="B"><circle cx="95" cy="269" r="5.5" class="C"/><path d="M101.5 260c0 .022-.02.155-.33.364-.293.198-.749.396-1.358.569-1.211.346-2.912.567-4.812.567s-3.602-.221-4.812-.567c-.609-.173-1.065-.371-1.358-.569-.31-.209-.33-.342-.33-.364s.02-.155.33-.364c.293-.198.749-.396 1.358-.569 1.211-.346 2.912-.567 4.812-.567s3.602.221 4.812.567c.609.173 1.065.371 1.358.569.31.209.33.342.33.364z" class="C"/><use xlink:href="#G" y="118" class="C"/><path d="M90.5 277.5l-3.086-3.086c-1.26-1.26-3.414-.367-3.414 1.414v3.672m15.5-2l3.086-3.086c1.26-1.26 3.414-.367 3.414 1.414v3.672"/><circle cx="95" cy="268" r="14.5"/></g><path d="M141.245 328.731l2.843-8.21h1.436l-3.691 9.954h-1.163l-3.684-9.954h1.429l2.83 8.21zm9.672 1.744c-.072-.146-.132-.406-.177-.78-.588.611-1.29.916-2.106.916-.729 0-1.328-.205-1.798-.615-.464-.415-.697-.939-.697-1.572 0-.77.292-1.367.875-1.791s1.413-.643 2.475-.643h1.23v-.581c0-.442-.132-.793-.396-1.053s-.654-.396-1.169-.396c-.451 0-.83.114-1.135.342s-.458.503-.458.827h-1.271c0-.369.129-.725.389-1.067s.62-.619 1.067-.82.945-.301 1.483-.301c.852 0 1.52.215 2.003.643s.734 1.009.752 1.757v3.404c0 .679.086 1.219.26 1.62v.11h-1.327zm-2.098-.964c.396 0 .772-.103 1.128-.308a1.86 1.86 0 0 0 .772-.8v-1.517h-.991c-1.549 0-2.324.453-2.324 1.36 0 .397.132.706.396.93s.604.335 1.019.335zm8.114.068c.451 0 .845-.137 1.183-.41a1.44 1.44 0 0 0 .56-1.025h1.197c-.023.423-.169.827-.438 1.21s-.629.688-1.08.916a3.1 3.1 0 0 1-1.422.341c-1.007 0-1.809-.335-2.406-1.005s-.889-1.595-.889-2.761v-.212c0-.72.132-1.361.397-1.921s.642-.996 1.134-1.306 1.083-.465 1.757-.465c.83 0 1.518.249 2.065.746s.845 1.141.882 1.934h-1.197a1.72 1.72 0 0 0-.547-1.176c-.323-.31-.724-.465-1.203-.465-.642 0-1.141.233-1.497.698s-.526 1.128-.526 2.003v.239c0 .852.175 1.508.526 1.969s.852.69 1.504.69zm8.928.896c-.073-.146-.132-.406-.178-.78-.588.611-1.29.916-2.105.916-.73 0-1.329-.205-1.798-.615s-.697-.939-.697-1.572c0-.77.291-1.367.875-1.791s1.412-.643 2.474-.643h1.231v-.581c0-.442-.133-.793-.397-1.053s-.654-.396-1.169-.396c-.451 0-.829.114-1.135.342s-.458.503-.458.827h-1.271c0-.369.13-.725.39-1.067s.619-.619 1.066-.82a3.62 3.62 0 0 1 1.483-.301c.853 0 1.52.215 2.003.643s.734 1.009.752 1.757v3.404c0 .679.087 1.219.26 1.62v.11h-1.326zm-2.099-.964a2.22 2.22 0 0 0 1.128-.308c.356-.205.613-.472.773-.8v-1.517h-.992c-1.549 0-2.324.453-2.324 1.36 0 .397.132.706.397.93s.603.335 1.018.335zm6.863-8.224v1.791h1.381v.978h-1.381v4.587c0 .296.062.519.185.669s.333.219.629.219c.146 0 .346-.027.602-.082v1.026c-.333.091-.657.136-.971.136-.565 0-.991-.171-1.278-.512s-.431-.828-.431-1.456v-4.587h-1.347v-.978h1.347v-1.791h1.264zm4.239 9.188h-1.265v-7.397h1.265v7.397zm-1.367-9.359a.76.76 0 0 1 .184-.519c.128-.142.315-.212.561-.212s.433.07.56.212.192.314.192.519-.064.376-.192.513-.314.205-.56.205-.433-.068-.561-.205-.184-.308-.184-.513zm3.062 5.592c0-.725.141-1.376.424-1.955s.684-1.025 1.189-1.34c.511-.314 1.092-.472 1.744-.472 1.007 0 1.82.349 2.44 1.046s.936 1.625.936 2.783v.088c0 .72-.139 1.368-.417 1.942s-.667 1.014-1.182 1.333-1.098.478-1.764.478c-1.002 0-1.816-.348-2.44-1.046s-.93-1.62-.93-2.768v-.089zm1.272.15c0 .821.189 1.479.567 1.976.383.497.893.745 1.531.745s1.153-.251 1.531-.752.568-1.212.568-2.119c0-.811-.194-1.467-.581-1.969a1.82 1.82 0 0 0-1.531-.759c-.625 0-1.128.249-1.511.746s-.574 1.207-.574 2.132zm8.244-3.78l.041.93c.565-.711 1.303-1.067 2.215-1.067 1.563 0 2.351.882 2.365 2.646v4.888h-1.265v-4.895c-.004-.533-.127-.927-.369-1.183s-.608-.382-1.114-.382c-.41 0-.77.109-1.08.328a2.23 2.23 0 0 0-.725.861v5.271h-1.265v-7.397h1.197z" class="D"/><g fill="#78909c"><path d="M317.552 214.865h-1.272v-8.429l-2.55.936v-1.148l3.624-1.36h.198v10.001zm8.572-6.501c.561-.689 1.29-1.033 2.188-1.033 1.563 0 2.351.882 2.365 2.646v4.888h-1.265v-4.895c-.004-.533-.127-.927-.369-1.183s-.608-.382-1.114-.382c-.41 0-.77.109-1.08.328a2.23 2.23 0 0 0-.725.861v5.271h-1.265v-10.5h1.265v3.999zm6.111 2.734c0-.725.142-1.376.424-1.955s.684-1.026 1.19-1.34 1.091-.472 1.743-.472c1.007 0 1.82.349 2.44 1.046s.937 1.625.937 2.782v.089c0 .72-.139 1.367-.417 1.942-.274.569-.668 1.014-1.183 1.333s-1.098.478-1.764.478c-1.002 0-1.816-.348-2.44-1.046s-.93-1.62-.93-2.768v-.089zm1.272.15c0 .821.189 1.479.567 1.976s.893.745 1.531.745a1.82 1.82 0 0 0 1.532-.752c.378-.506.567-1.212.567-2.119 0-.811-.194-1.468-.581-1.969a1.82 1.82 0 0 0-1.531-.759c-.625 0-1.128.249-1.511.745s-.574 1.208-.574 2.133zm11.614 2.885c-.492.579-1.214.868-2.167.868-.788 0-1.39-.228-1.805-.683-.41-.461-.617-1.14-.622-2.037v-4.813h1.265v4.778c0 1.121.456 1.682 1.367 1.682.966 0 1.609-.36 1.928-1.08v-5.38h1.265v7.397h-1.204l-.027-.732zm6.733-5.53c-.191-.032-.398-.048-.622-.048-.829 0-1.392.353-1.688 1.06v5.25h-1.265v-7.397h1.231l.02.855c.415-.661 1.003-.992 1.764-.992.246 0 .433.032.56.096v1.176zm9.208 6.262c-.072-.146-.132-.406-.177-.78-.588.611-1.29.916-2.106.916-.729 0-1.328-.205-1.798-.615-.464-.415-.697-.939-.697-1.572 0-.77.292-1.367.875-1.791s1.413-.643 2.475-.643h1.23v-.581c0-.442-.132-.793-.396-1.053s-.654-.396-1.169-.396c-.451 0-.83.114-1.135.342s-.458.503-.458.827h-1.271c0-.369.129-.725.389-1.067s.62-.619 1.067-.82.945-.301 1.483-.301c.852 0 1.52.214 2.003.643s.734 1.009.752 1.757v3.404c0 .679.086 1.219.26 1.62v.11h-1.327zm-2.098-.964c.396 0 .772-.103 1.128-.308a1.86 1.86 0 0 0 .772-.8v-1.517h-.991c-1.549 0-2.324.453-2.324 1.36 0 .396.132.706.396.93s.604.335 1.019.335zm4.847-2.796c0-1.153.266-2.069.799-2.748s1.24-1.026 2.119-1.026c.903 0 1.607.319 2.113.957l.061-.82h1.156v7.219c0 .957-.285 1.711-.855 2.262s-1.326.828-2.283.828c-.533 0-1.055-.114-1.566-.342s-.9-.54-1.168-.937l.656-.758c.542.669 1.205 1.004 1.989 1.004.615 0 1.094-.173 1.436-.519s.519-.834.519-1.463v-.636c-.506.584-1.196.875-2.071.875-.866 0-1.568-.348-2.106-1.046s-.799-1.647-.799-2.85zm1.271.143c0 .834.171 1.491.513 1.969s.82.711 1.435.711c.798 0 1.383-.362 1.757-1.087v-3.377c-.387-.706-.968-1.059-1.743-1.059-.615 0-1.096.239-1.442.717s-.52 1.187-.52 2.126zm6.556-.15c0-.725.141-1.376.424-1.955s.683-1.026 1.189-1.34 1.091-.472 1.743-.472c1.007 0 1.821.349 2.441 1.046s.936 1.625.936 2.782v.089c0 .72-.139 1.367-.417 1.942-.273.569-.668 1.014-1.183 1.333s-1.098.478-1.763.478c-1.003 0-1.816-.348-2.441-1.046-.619-.697-.929-1.62-.929-2.768v-.089zm1.271.15c0 .821.189 1.479.568 1.976a1.83 1.83 0 0 0 1.531.745c.642 0 1.153-.251 1.531-.752s.567-1.212.567-2.119c0-.811-.193-1.468-.581-1.969a1.82 1.82 0 0 0-1.531-.759c-.624 0-1.128.249-1.511.745s-.574 1.208-.574 2.133zm-60.211 61.921h-6.521v-.909l3.445-3.828c.51-.579.861-1.048 1.053-1.408s.294-.741.294-1.128c0-.52-.157-.946-.472-1.278s-.734-.499-1.258-.499c-.629 0-1.119.18-1.469.54s-.52.852-.52 1.49h-1.265c0-.916.294-1.657.882-2.222s1.383-.847 2.372-.847c.925 0 1.657.243 2.195.731s.806 1.128.806 1.935c0 .979-.624 2.146-1.873 3.5l-2.666 2.891h4.997v1.032zm6.207-6.501c.561-.688 1.29-1.032 2.188-1.032 1.563 0 2.351.882 2.365 2.646v4.887h-1.265v-4.894c-.004-.533-.127-.928-.369-1.183s-.608-.383-1.114-.383c-.41 0-.77.11-1.08.329s-.552.505-.725.861v5.27h-1.264v-10.5h1.264v3.999zm6.112 2.735c0-.725.141-1.376.423-1.955a3.22 3.22 0 0 1 1.19-1.34c.51-.315 1.091-.472 1.743-.472 1.007 0 1.821.349 2.44 1.046.625.697.937 1.625.937 2.782v.089c0 .72-.139 1.367-.417 1.942-.273.569-.668 1.014-1.183 1.333s-1.098.478-1.763.478c-1.003 0-1.816-.348-2.441-1.046s-.929-1.62-.929-2.768v-.089zm1.271.15c0 .821.189 1.479.567 1.976s.894.745 1.532.745 1.153-.251 1.531-.752.567-1.212.567-2.119c0-.811-.193-1.468-.581-1.969a1.82 1.82 0 0 0-1.531-.759c-.624 0-1.128.249-1.511.745s-.574 1.208-.574 2.133zm11.614 2.885c-.492.579-1.214.868-2.167.868-.788 0-1.39-.228-1.804-.683-.41-.461-.618-1.14-.622-2.038v-4.812h1.264v4.778c0 1.121.456 1.682 1.367 1.682.967 0 1.609-.36 1.928-1.08v-5.38h1.265v7.396h-1.203l-.028-.731zm6.734-5.53c-.192-.032-.399-.048-.622-.048-.83 0-1.393.353-1.689 1.059v5.25h-1.264v-7.396h1.23l.021.854c.414-.66 1.002-.991 1.763-.991.246 0 .433.032.561.096v1.176zm5.475 4.3c0-.342-.13-.607-.389-.793-.256-.192-.704-.356-1.347-.493s-1.146-.3-1.524-.492-.652-.419-.834-.683-.267-.579-.267-.944c0-.606.255-1.119.766-1.538s1.171-.629 1.968-.629c.839 0 1.518.217 2.037.65.525.433.787.986.787 1.661h-1.272c0-.347-.148-.645-.444-.896s-.661-.376-1.108-.376c-.46 0-.82.101-1.08.301a.95.95 0 0 0-.389.786c0 .306.12.536.362.691s.677.303 1.306.444 1.146.31 1.538.506.681.433.868.711a1.75 1.75 0 0 1 .287 1.005 1.9 1.9 0 0 1-.793 1.592c-.529.397-1.215.595-2.058.595-.592 0-1.116-.105-1.572-.314s-.813-.502-1.073-.875a2.15 2.15 0 0 1-.383-1.224h1.265c.023.424.191.761.506 1.012s.738.369 1.257.369c.479 0 .862-.096 1.149-.287.291-.196.437-.456.437-.779zm10.951 1.961c-.072-.145-.132-.405-.177-.779-.588.611-1.29.916-2.106.916-.729 0-1.328-.205-1.798-.615-.464-.415-.697-.939-.697-1.572 0-.771.292-1.368.875-1.791.588-.429 1.413-.643 2.475-.643h1.23v-.581c0-.442-.132-.793-.396-1.053s-.654-.396-1.169-.396c-.451 0-.83.114-1.135.342s-.458.503-.458.827h-1.271c0-.369.129-.725.389-1.067s.62-.619 1.067-.82a3.6 3.6 0 0 1 1.483-.301c.852 0 1.52.214 2.003.643s.734 1.009.752 1.757v3.404c0 .679.086 1.219.26 1.62v.109h-1.327zm-2.098-.963c.396 0 .772-.103 1.128-.308a1.86 1.86 0 0 0 .772-.8v-1.517h-.991c-1.549 0-2.324.453-2.324 1.36 0 .396.132.706.396.93s.604.335 1.019.335zm4.847-2.796c0-1.153.266-2.069.799-2.748s1.24-1.026 2.119-1.026c.903 0 1.607.319 2.113.957l.061-.82h1.156v7.219c0 .957-.285 1.711-.855 2.262s-1.326.828-2.283.828c-.533 0-1.055-.114-1.566-.342s-.9-.54-1.168-.937l.656-.759c.542.67 1.205 1.005 1.989 1.005.615 0 1.094-.173 1.436-.519s.519-.834.519-1.463v-.636c-.506.583-1.196.875-2.071.875-.866 0-1.568-.348-2.106-1.046s-.799-1.647-.799-2.85zm1.271.143c0 .834.171 1.49.513 1.969s.82.711 1.435.711c.798 0 1.383-.362 1.757-1.087v-3.377c-.387-.706-.968-1.06-1.743-1.06-.615 0-1.096.24-1.442.718s-.52 1.187-.52 2.126zm6.556-.15c0-.725.141-1.376.424-1.955s.683-1.026 1.189-1.34 1.091-.472 1.743-.472c1.007 0 1.821.349 2.441 1.046s.936 1.625.936 2.782v.089c0 .72-.139 1.367-.417 1.942-.273.569-.668 1.014-1.183 1.333s-1.098.478-1.763.478c-1.003 0-1.816-.348-2.441-1.046-.619-.697-.929-1.62-.929-2.768v-.089zm1.271.15c0 .821.189 1.479.568 1.976a1.83 1.83 0 0 0 1.531.745c.642 0 1.153-.251 1.531-.752s.567-1.212.567-2.119c0-.811-.193-1.468-.581-1.969a1.82 1.82 0 0 0-1.531-.759c-.624 0-1.128.249-1.511.745s-.574 1.208-.574 2.133z"/><path d="M324.463 330.475c-.073-.146-.132-.406-.178-.78-.588.611-1.29.916-2.105.916-.729 0-1.329-.205-1.798-.615s-.697-.939-.697-1.572c0-.77.291-1.367.875-1.791s1.412-.643 2.474-.643h1.231v-.581c0-.442-.133-.793-.397-1.053s-.654-.396-1.169-.396c-.451 0-.829.114-1.135.342s-.458.503-.458.827h-1.271c0-.369.13-.725.39-1.067s.619-.619 1.066-.82a3.62 3.62 0 0 1 1.483-.301c.853 0 1.52.215 2.003.643s.734 1.009.752 1.757v3.404c0 .679.087 1.219.26 1.62v.11h-1.326zm-2.099-.964a2.22 2.22 0 0 0 1.128-.308c.356-.205.613-.472.773-.8v-1.517h-.992c-1.549 0-2.324.453-2.324 1.36 0 .397.132.706.397.93s.604.335 1.018.335zm8.313-2.796c0-1.135.269-2.046.806-2.735s1.242-1.039 2.113-1.039 1.551.297 2.057.889v-3.855h1.265v10.5h-1.162l-.062-.793c-.506.619-1.21.929-2.112.929-.857 0-1.556-.351-2.099-1.052-.537-.702-.806-1.618-.806-2.748v-.096zm1.264.143c0 .839.174 1.495.52 1.969s.825.711 1.435.711a1.84 1.84 0 0 0 1.757-1.08v-3.397c-.378-.698-.959-1.046-1.743-1.046-.62 0-1.103.239-1.449.717s-.52 1.188-.52 2.126zm11.512 3.617c-.073-.146-.132-.406-.178-.78-.587.611-1.289.916-2.105.916-.729 0-1.329-.205-1.798-.615s-.697-.939-.697-1.572c0-.77.291-1.367.875-1.791s1.413-.643 2.474-.643h1.231v-.581c0-.442-.132-.793-.397-1.053s-.654-.396-1.169-.396c-.451 0-.829.114-1.134.342s-.458.503-.458.827h-1.272c0-.369.13-.725.39-1.067s.62-.619 1.066-.82a3.62 3.62 0 0 1 1.484-.301c.852 0 1.52.215 2.003.643s.733 1.009.752 1.757v3.404c0 .679.086 1.219.259 1.62v.11h-1.326zm-2.099-.964a2.22 2.22 0 0 0 1.128-.308c.356-.205.613-.472.773-.8v-1.517h-.991c-1.55 0-2.325.453-2.325 1.36 0 .397.133.706.397.93s.604.335 1.018.335zm7.458-.889l1.723-5.544h1.354l-2.974 8.538c-.46 1.231-1.192 1.846-2.194 1.846l-.24-.021-.471-.088v-1.026l.342.027c.428 0 .761-.086.998-.259s.439-.49.594-.95l.281-.752-2.639-7.315h1.381l1.845 5.544zm12.25 1.853c-.072-.146-.132-.406-.177-.78-.588.611-1.29.916-2.106.916-.729 0-1.328-.205-1.798-.615-.464-.415-.697-.939-.697-1.572 0-.77.292-1.367.875-1.791s1.413-.643 2.475-.643h1.23v-.581c0-.442-.132-.793-.396-1.053s-.654-.396-1.169-.396c-.451 0-.83.114-1.135.342s-.458.503-.458.827h-1.271c0-.369.129-.725.389-1.067s.62-.619 1.067-.82.945-.301 1.483-.301c.852 0 1.52.215 2.003.643s.734 1.009.752 1.757v3.404c0 .679.086 1.219.26 1.62v.11h-1.327zm-2.098-.964c.396 0 .772-.103 1.128-.308a1.86 1.86 0 0 0 .772-.8v-1.517h-.991c-1.549 0-2.324.453-2.324 1.36 0 .397.132.706.396.93s.604.335 1.019.335zm4.847-2.796c0-1.153.266-2.069.799-2.748s1.24-1.026 2.119-1.026c.903 0 1.607.319 2.113.957l.061-.82h1.156v7.219c0 .957-.285 1.711-.855 2.263s-1.326.827-2.283.827c-.533 0-1.055-.114-1.566-.342s-.9-.54-1.168-.937l.656-.758c.542.67 1.205 1.004 1.989 1.004.615 0 1.094-.173 1.436-.519s.519-.834.519-1.463v-.636c-.506.584-1.196.875-2.071.875-.866 0-1.568-.348-2.106-1.046s-.799-1.647-.799-2.85zm1.271.143c0 .834.171 1.491.513 1.969s.82.711 1.435.711c.798 0 1.383-.362 1.757-1.087v-3.377c-.387-.706-.968-1.059-1.743-1.059-.615 0-1.096.239-1.442.717s-.52 1.188-.52 2.126zm6.556-.15c0-.725.141-1.376.424-1.955a3.19 3.19 0 0 1 1.189-1.34c.506-.315 1.091-.472 1.743-.472 1.007 0 1.821.349 2.441 1.046s.936 1.625.936 2.783v.088c0 .72-.139 1.368-.417 1.942a3.12 3.12 0 0 1-1.183 1.333c-.515.319-1.098.478-1.763.478-1.003 0-1.816-.348-2.441-1.046-.619-.697-.929-1.62-.929-2.768v-.089zm1.271.15c0 .821.189 1.479.568 1.976a1.83 1.83 0 0 0 1.531.745c.642 0 1.153-.251 1.531-.752s.567-1.212.567-2.119c0-.811-.193-1.467-.581-1.969a1.82 1.82 0 0 0-1.531-.759c-.624 0-1.128.249-1.511.746s-.574 1.207-.574 2.132zm-61.14-228.604h-1.313v-9.953h1.313v9.953zm3.404-7.397l.041.93a2.69 2.69 0 0 1 2.215-1.066c1.563 0 2.351.882 2.365 2.645v4.888h-1.265V93.36c-.004-.533-.127-.927-.369-1.183s-.608-.383-1.114-.383c-.41 0-.77.109-1.08.328a2.23 2.23 0 0 0-.725.861v5.27h-1.264v-7.397h1.196zm16.249 3.78c0 1.126-.258 2.032-.773 2.721a2.47 2.47 0 0 1-2.091 1.032c-.898 0-1.605-.285-2.12-.854v3.561h-1.264v-10.24h1.155l.062.82c.515-.638 1.23-.957 2.146-.957.889 0 1.591.335 2.106 1.005s.779 1.602.779 2.796v.116zm-1.265-.144c0-.834-.178-1.493-.533-1.976s-.843-.725-1.463-.725c-.765 0-1.34.34-1.723 1.019v3.534a1.86 1.86 0 0 0 1.737 1.012 1.7 1.7 0 0 0 1.442-.718c.36-.483.54-1.199.54-2.146zm6.453-2.502a3.78 3.78 0 0 0-.622-.048c-.829 0-1.392.353-1.688 1.06v5.25h-1.265v-7.397h1.231l.02.855c.415-.661 1.003-.991 1.764-.991.246 0 .433.032.56.096v1.176zm.698 2.495c0-.725.141-1.376.423-1.955.288-.579.684-1.025 1.19-1.34s1.091-.472 1.743-.472c1.007 0 1.821.349 2.44 1.046.625.697.937 1.625.937 2.782v.089c0 .72-.139 1.367-.417 1.941a3.12 3.12 0 0 1-1.183 1.333c-.51.319-1.098.478-1.763.478-1.003 0-1.816-.349-2.441-1.046-.619-.697-.929-1.62-.929-2.769v-.089zm1.271.15c0 .82.189 1.479.567 1.976s.894.745 1.532.745 1.153-.251 1.531-.752.567-1.212.567-2.119c0-.811-.193-1.467-.581-1.969a1.82 1.82 0 0 0-1.531-.759c-.624 0-1.128.248-1.511.745s-.574 1.208-.574 2.133zm6.747-.144c0-1.153.267-2.069.8-2.748s1.24-1.025 2.119-1.025c.902 0 1.607.319 2.112.957l.062-.82h1.155v7.219c0 .957-.285 1.711-.854 2.262s-1.326.828-2.283.828c-.534 0-1.055-.114-1.566-.342s-.9-.54-1.169-.937l.656-.759c.543.67 1.206 1.005 1.99 1.005.615 0 1.093-.173 1.435-.519s.52-.834.52-1.463v-.636c-.506.583-1.197.875-2.072.875-.865 0-1.567-.349-2.105-1.046s-.8-1.647-.8-2.851zm1.272.144c0 .834.171 1.49.512 1.969s.821.711 1.436.711c.797 0 1.383-.362 1.757-1.087v-3.377c-.388-.706-.969-1.06-1.743-1.06a1.68 1.68 0 0 0-1.443.718c-.346.478-.519 1.187-.519 2.126zm10.465-2.645a3.78 3.78 0 0 0-.622-.048c-.829 0-1.392.353-1.688 1.06v5.25h-1.265v-7.397h1.231l.02.855c.415-.661 1.003-.991 1.764-.991.246 0 .433.032.56.096v1.176zm4.102 6.398c-1.003 0-1.818-.328-2.447-.984s-.944-1.543-.944-2.645v-.232c0-.734.139-1.388.417-1.962.283-.579.675-1.03 1.176-1.354a2.96 2.96 0 0 1 1.641-.492c.961 0 1.709.317 2.242.95s.8 1.54.8 2.721v.526h-5.011c.018.729.23 1.319.636 1.77s.929.67 1.558.67c.447 0 .825-.091 1.135-.273s.581-.424.814-.725l.772.602c-.62.953-1.549 1.429-2.789 1.429zm-.157-6.631a1.68 1.68 0 0 0-1.285.561c-.347.369-.561.889-.643 1.559h3.705v-.096c-.036-.643-.209-1.139-.519-1.49s-.73-.533-1.258-.533zm8.818 4.532a.92.92 0 0 0-.389-.793c-.256-.191-.705-.355-1.347-.492s-1.146-.301-1.525-.492c-.373-.191-.651-.419-.834-.684-.177-.264-.266-.579-.266-.943 0-.606.255-1.119.765-1.538s1.172-.629 1.969-.629c.839 0 1.518.217 2.037.649a2.07 2.07 0 0 1 .786 1.661h-1.271c0-.346-.148-.645-.444-.895s-.661-.376-1.108-.376c-.46 0-.82.1-1.08.301s-.39.463-.39.786c0 .305.121.535.363.69s.677.303 1.305.444c.634.141 1.147.31 1.539.506s.681.433.868.711a1.75 1.75 0 0 1 .287 1.005 1.9 1.9 0 0 1-.793 1.593c-.529.396-1.215.595-2.058.595-.592 0-1.116-.105-1.572-.314s-.814-.501-1.073-.875a2.11 2.11 0 0 1-.383-1.224h1.265a1.32 1.32 0 0 0 .505 1.012c.319.246.739.369 1.258.369.479 0 .862-.096 1.149-.287s.437-.456.437-.779zm7.219 0c0-.342-.13-.606-.39-.793s-.704-.355-1.346-.492-1.147-.301-1.525-.492-.652-.419-.834-.684-.266-.579-.266-.943c0-.606.255-1.119.765-1.538s1.171-.629 1.969-.629c.839 0 1.518.217 2.037.649a2.07 2.07 0 0 1 .786 1.661h-1.271c0-.346-.148-.645-.445-.895-.291-.251-.66-.376-1.107-.376-.46 0-.82.1-1.08.301s-.39.463-.39.786c0 .305.121.535.363.69s.676.303 1.305.444 1.146.31 1.538.506.682.433.868.711c.192.273.288.608.288 1.005a1.9 1.9 0 0 1-.793 1.593c-.529.396-1.215.595-2.058.595-.592 0-1.117-.105-1.572-.314s-.814-.501-1.074-.875a2.1 2.1 0 0 1-.382-1.224h1.264c.023.424.192.761.506 1.012s.738.369 1.258.369c.479 0 .861-.096 1.148-.287s.438-.456.438-.779z"/></g><circle cx="296.713" cy="94.746" r="2.712" fill="#ff272d"/><path d="M311.769 156.559h-1.313v-9.953h1.313v9.953zm3.404-7.396l.041.93c.565-.711 1.303-1.067 2.215-1.067 1.563 0 2.351.882 2.365 2.646v4.887h-1.265v-4.894c-.004-.533-.127-.928-.369-1.183s-.608-.383-1.114-.383a1.83 1.83 0 0 0-1.08.328c-.31.219-.552.506-.725.862v5.27h-1.264v-7.396h1.196zm16.249 3.78c0 1.126-.258 2.033-.773 2.721s-1.212 1.032-2.091 1.032c-.898 0-1.605-.285-2.12-.854v3.561h-1.264v-10.24h1.155l.062.82c.515-.638 1.23-.957 2.146-.957.889 0 1.591.335 2.106 1.005s.779 1.602.779 2.796v.116zm-1.265-.143c0-.834-.178-1.493-.533-1.976s-.843-.725-1.463-.725c-.765 0-1.34.34-1.723 1.019v3.534a1.86 1.86 0 0 0 1.737 1.012 1.7 1.7 0 0 0 1.442-.718c.36-.483.54-1.199.54-2.146zm6.453-2.502c-.191-.032-.398-.048-.622-.048-.829 0-1.392.353-1.688 1.059v5.25h-1.265v-7.396h1.231l.02.854c.415-.66 1.003-.991 1.764-.991.246 0 .433.032.56.096v1.176zm.698 2.495c0-.725.141-1.377.423-1.955a3.22 3.22 0 0 1 1.19-1.34c.51-.315 1.091-.472 1.743-.472 1.007 0 1.821.349 2.44 1.046.625.697.937 1.625.937 2.782v.089c0 .72-.139 1.367-.417 1.942-.273.569-.668 1.014-1.183 1.333-.51.319-1.098.478-1.763.478-1.003 0-1.816-.349-2.441-1.046-.619-.697-.929-1.62-.929-2.768v-.089zm1.271.15c0 .82.189 1.479.567 1.976s.894.745 1.532.745 1.153-.251 1.531-.752.567-1.212.567-2.119c0-.811-.193-1.468-.581-1.969a1.82 1.82 0 0 0-1.531-.759c-.624 0-1.128.249-1.511.745s-.574 1.208-.574 2.133zm6.747-.143c0-1.153.267-2.069.8-2.748a2.55 2.55 0 0 1 2.119-1.026c.902 0 1.607.319 2.112.957l.062-.82h1.155v7.219c0 .957-.285 1.711-.854 2.262s-1.326.827-2.283.827c-.534 0-1.055-.113-1.566-.341s-.9-.54-1.169-.937l.656-.759c.543.67 1.206 1.005 1.99 1.005.615 0 1.093-.173 1.435-.519s.52-.834.52-1.463v-.636c-.506.583-1.197.875-2.072.875-.865 0-1.567-.349-2.105-1.046-.533-.697-.8-1.647-.8-2.85zm1.272.143c0 .834.171 1.49.512 1.969.342.474.821.711 1.436.711a1.85 1.85 0 0 0 1.757-1.087v-3.377c-.388-.706-.969-1.06-1.743-1.06-.616 0-1.096.24-1.443.718s-.519 1.187-.519 2.126zm10.465-2.645c-.191-.032-.398-.048-.622-.048-.829 0-1.392.353-1.688 1.059v5.25h-1.265v-7.396h1.231l.02.854c.415-.66 1.003-.991 1.764-.991.246 0 .433.032.56.096v1.176zm4.102 6.398c-1.003 0-1.818-.328-2.447-.984s-.944-1.543-.944-2.646v-.232c0-.734.139-1.388.417-1.962.283-.579.675-1.03 1.176-1.354a2.96 2.96 0 0 1 1.641-.492c.961 0 1.709.317 2.242.95s.8 1.541.8 2.721v.526h-5.011c.018.73.23 1.32.636 1.771a2.02 2.02 0 0 0 1.558.67c.447 0 .825-.091 1.135-.274a2.85 2.85 0 0 0 .814-.724l.772.601c-.62.953-1.549 1.429-2.789 1.429zm-.157-6.631a1.68 1.68 0 0 0-1.285.561c-.347.369-.561.888-.643 1.558h3.705v-.095c-.036-.643-.209-1.14-.519-1.491s-.73-.533-1.258-.533zm8.818 4.532a.92.92 0 0 0-.389-.793c-.256-.191-.705-.355-1.347-.492s-1.146-.301-1.525-.492c-.373-.191-.651-.419-.834-.684-.177-.264-.266-.578-.266-.943 0-.606.255-1.119.765-1.538s1.172-.629 1.969-.629c.839 0 1.518.217 2.037.65s.786.986.786 1.661h-1.271c0-.347-.148-.645-.444-.896s-.661-.376-1.108-.376c-.46 0-.82.1-1.08.301s-.39.463-.39.786c0 .305.121.536.363.691s.677.303 1.305.444c.634.141 1.147.31 1.539.506s.681.433.868.711.287.608.287 1.005a1.9 1.9 0 0 1-.793 1.592c-.529.397-1.215.595-2.058.595-.592 0-1.116-.105-1.572-.314s-.814-.502-1.073-.875a2.15 2.15 0 0 1-.383-1.224h1.265c.022.424.191.761.505 1.012s.739.369 1.258.369c.479 0 .862-.096 1.149-.287s.437-.456.437-.78zm7.219 0c0-.341-.13-.606-.39-.793-.255-.191-.704-.355-1.346-.492s-1.147-.301-1.525-.492-.652-.419-.834-.684-.266-.578-.266-.943c0-.606.255-1.119.765-1.538s1.171-.629 1.969-.629c.839 0 1.518.217 2.037.65s.786.986.786 1.661h-1.271c0-.347-.148-.645-.445-.896-.291-.25-.66-.376-1.107-.376-.46 0-.82.1-1.08.301s-.39.463-.39.786c0 .305.121.536.363.691s.676.303 1.305.444c.634.141 1.146.31 1.538.506s.682.433.868.711c.192.273.288.608.288 1.005a1.9 1.9 0 0 1-.793 1.592c-.529.397-1.215.595-2.058.595-.592 0-1.117-.105-1.572-.314s-.814-.502-1.074-.875a2.15 2.15 0 0 1-.382-1.224h1.264c.023.424.192.761.506 1.012s.738.369 1.258.369c.479 0 .861-.096 1.148-.287s.438-.456.438-.78z" fill="#78909c"/><circle cx="296.712" cy="151.696" r="2.712" fill="#ff272d"/><path d="M407.232 93.81c0 1.431-.268 2.511-.806 3.24s-1.347 1.087-2.441 1.087c-1.075 0-1.886-.353-2.433-1.06s-.821-1.761-.834-3.151v-1.723c0-1.431.266-2.504.8-3.22s1.355-1.073 2.454-1.073c1.089 0 1.9.349 2.433 1.046s.814 1.741.827 3.131v1.723zm-1.661-1.859c0-.934-.127-1.618-.383-2.051s-.66-.656-1.216-.656c-.543 0-.941.207-1.197.622s-.389 1.053-.403 1.928v2.256c0 .93.13 1.622.39 2.078s.667.684 1.223.684c.534 0 .928-.21 1.183-.629s.39-1.085.403-1.982V91.95zm4.239 4.3c.309 0 .549.089.717.267a.9.9 0 0 1 .253.656.89.89 0 0 1-.253.649c-.169.173-.408.253-.717.253-.297 0-.531-.084-.705-.253s-.259-.385-.259-.649a.9.9 0 0 1 .253-.656c.168-.178.405-.267.711-.267zm0-5.804c.309 0 .549.089.717.267a.9.9 0 0 1 .253.656c0 .26-.084.476-.253.65s-.408.253-.717.253c-.297 0-.531-.084-.705-.253s-.259-.385-.259-.65a.9.9 0 0 1 .253-.656c.168-.178.405-.267.711-.267zm9.098 3.363c0 1.431-.269 2.511-.806 3.24s-1.347 1.087-2.441 1.087c-1.075 0-1.887-.353-2.433-1.06s-.821-1.761-.834-3.151v-1.723c0-1.431.266-2.504.799-3.22.538-.716 1.356-1.073 2.454-1.073 1.09 0 1.901.349 2.434 1.046s.814 1.741.827 3.131v1.723zm-1.661-1.859c0-.934-.128-1.618-.383-2.051s-.661-.656-1.217-.656c-.542 0-.941.207-1.196.622s-.389 1.053-.403 1.928v2.256c0 .93.13 1.622.39 2.078s.667.684 1.223.684c.533 0 .928-.21 1.183-.629s.389-1.085.403-1.982V91.95zm3.575 1.114l.54-5.018h5.346v1.436h-3.965l-.273 2.379c.46-.264.98-.397 1.558-.397.948 0 1.684.303 2.208.909s.793 1.422.793 2.447c0 1.012-.291 1.818-.875 2.42s-1.383.895-2.399.895c-.912 0-1.668-.258-2.27-.772s-.92-1.203-.97-2.051h1.606c.064.483.237.855.52 1.114s.651.383 1.107.383c.51 0 .907-.182 1.19-.547s.43-.861.43-1.49c0-.606-.157-1.085-.472-1.435s-.747-.533-1.298-.533a2.11 2.11 0 0 0-.766.123c-.21.078-.437.233-.684.465l-1.326-.328zM405.243 158h-1.654v-7.991l-2.441.834v-1.402l3.883-1.428h.212V158zm4.567-1.75c.309 0 .549.089.717.267a.9.9 0 0 1 .253.656.89.89 0 0 1-.253.649c-.168.169-.408.253-.717.253-.297 0-.531-.084-.705-.253s-.259-.385-.259-.649a.9.9 0 0 1 .253-.656c.168-.178.405-.267.711-.267zm0-5.804c.309 0 .549.089.717.267a.9.9 0 0 1 .253.656c0 .26-.084.476-.253.65-.168.168-.408.252-.717.252-.297 0-.531-.084-.705-.252s-.259-.386-.259-.65a.9.9 0 0 1 .253-.656c.168-.178.405-.267.711-.267zm9.098 3.364c0 1.431-.269 2.511-.806 3.24-.534.724-1.347 1.087-2.441 1.087-1.075 0-1.887-.353-2.433-1.06s-.821-1.761-.834-3.151v-1.723c0-1.431.266-2.504.799-3.22.538-.715 1.356-1.073 2.454-1.073 1.09 0 1.901.349 2.434 1.046s.814 1.741.827 3.131v1.723zm-1.661-1.86c0-.934-.128-1.618-.383-2.051s-.661-.656-1.217-.656c-.542 0-.941.208-1.196.622s-.389 1.053-.403 1.928v2.256c0 .93.13 1.622.39 2.078s.667.684 1.223.684c.533 0 .928-.21 1.183-.629s.389-1.085.403-1.983v-2.249zm9.618 1.86c0 1.431-.269 2.511-.806 3.24-.534.724-1.347 1.087-2.441 1.087-1.075 0-1.887-.353-2.433-1.06s-.821-1.761-.834-3.151v-1.723c0-1.431.266-2.504.799-3.22.538-.715 1.356-1.073 2.454-1.073 1.09 0 1.901.349 2.434 1.046s.814 1.741.827 3.131v1.723zm-1.661-1.86c0-.934-.128-1.618-.383-2.051s-.661-.656-1.217-.656c-.542 0-.941.208-1.196.622s-.389 1.053-.403 1.928v2.256c0 .93.13 1.622.39 2.078s.667.684 1.223.684c.533 0 .928-.21 1.183-.629s.389-1.085.403-1.983v-2.249zM407.438 216h-6.693v-1.142l3.316-3.616c.478-.533.818-.977 1.018-1.333s.308-.72.308-1.08c0-.474-.135-.857-.404-1.148s-.622-.438-1.073-.438c-.538 0-.955.164-1.251.492s-.444.777-.444 1.347h-1.661c0-.606.136-1.151.41-1.634s.672-.866 1.182-1.135 1.108-.403 1.778-.403c.966 0 1.727.244 2.283.732s.841 1.153.841 2.009c0 .497-.141 1.019-.424 1.566s-.736 1.16-1.374 1.852l-2.434 2.605h4.622V216zm2.372-1.75c.309 0 .549.089.717.267a.9.9 0 0 1 .253.656.89.89 0 0 1-.253.649c-.168.169-.408.253-.717.253-.297 0-.531-.084-.705-.253s-.259-.385-.259-.649a.9.9 0 0 1 .253-.656c.168-.178.405-.267.711-.267zm0-5.804c.309 0 .549.089.717.267a.9.9 0 0 1 .253.656c0 .26-.084.476-.253.65-.168.168-.408.252-.717.252-.297 0-.531-.084-.705-.252s-.259-.386-.259-.65a.9.9 0 0 1 .253-.656c.168-.178.405-.267.711-.267zm9.098 3.364c0 1.431-.269 2.511-.806 3.24-.534.724-1.347 1.087-2.441 1.087-1.075 0-1.887-.353-2.433-1.06s-.821-1.761-.834-3.151v-1.723c0-1.431.266-2.504.799-3.22.538-.715 1.356-1.073 2.454-1.073 1.09 0 1.901.349 2.434 1.046s.814 1.741.827 3.131v1.723zm-1.661-1.86c0-.934-.128-1.618-.383-2.051s-.661-.656-1.217-.656c-.542 0-.941.208-1.196.622s-.389 1.053-.403 1.928v2.256c0 .93.13 1.622.39 2.078s.667.684 1.223.684c.533 0 .928-.21 1.183-.629s.389-1.085.403-1.983v-2.249zm9.618 1.86c0 1.431-.269 2.511-.806 3.24-.534.724-1.347 1.087-2.441 1.087-1.075 0-1.887-.353-2.433-1.06s-.821-1.761-.834-3.151v-1.723c0-1.431.266-2.504.799-3.22.538-.715 1.356-1.073 2.454-1.073 1.09 0 1.901.349 2.434 1.046s.814 1.741.827 3.131v1.723zm-1.661-1.86c0-.934-.128-1.618-.383-2.051s-.661-.656-1.217-.656c-.542 0-.941.208-1.196.622s-.389 1.053-.403 1.928v2.256c0 .93.13 1.622.39 2.078s.667.684 1.223.684c.533 0 .928-.21 1.183-.629s.389-1.085.403-1.983v-2.249zM405.243 276h-1.654v-7.991l-2.441.834v-1.402l3.883-1.428h.212V276zm4.567-1.75c.309 0 .549.089.717.267a.9.9 0 0 1 .253.656.89.89 0 0 1-.253.649c-.168.169-.408.253-.717.253-.297 0-.531-.084-.705-.253s-.259-.385-.259-.649a.9.9 0 0 1 .253-.656c.168-.178.405-.267.711-.267zm0-5.804c.309 0 .549.089.717.267a.9.9 0 0 1 .253.656c0 .26-.084.476-.253.65-.168.168-.408.252-.717.252-.297 0-.531-.084-.705-.252s-.259-.386-.259-.65a.9.9 0 0 1 .253-.656c.168-.178.405-.267.711-.267zm9.098 3.364c0 1.431-.269 2.511-.806 3.24s-1.347 1.087-2.441 1.087c-1.075 0-1.887-.353-2.433-1.06s-.821-1.761-.834-3.151v-1.723c0-1.431.266-2.504.799-3.22.538-.715 1.356-1.073 2.454-1.073 1.09 0 1.901.349 2.434 1.046s.814 1.741.827 3.131v1.723zm-1.661-1.86c0-.934-.128-1.618-.383-2.051s-.661-.656-1.217-.656c-.542 0-.941.208-1.196.622s-.389 1.053-.403 1.928v2.256c0 .93.13 1.622.39 2.078s.667.684 1.223.684c.533 0 .928-.21 1.183-.629s.389-1.085.403-1.983v-2.249zm9.618 1.86c0 1.431-.269 2.511-.806 3.24s-1.347 1.087-2.441 1.087c-1.075 0-1.887-.353-2.433-1.06s-.821-1.761-.834-3.151v-1.723c0-1.431.266-2.504.799-3.22.538-.715 1.356-1.073 2.454-1.073 1.09 0 1.901.349 2.434 1.046s.814 1.741.827 3.131v1.723zm-1.661-1.86c0-.934-.128-1.618-.383-2.051s-.661-.656-1.217-.656c-.542 0-.941.208-1.196.622s-.389 1.053-.403 1.928v2.256c0 .93.13 1.622.39 2.078s.667.684 1.223.684c.533 0 .928-.21 1.183-.629s.389-1.085.403-1.983v-2.249zm-18.19 52.722c0 .488-.126.923-.376 1.306s-.593.676-1.026.895c.52.242.919.572 1.197.991a2.49 2.49 0 0 1 .423 1.422c0 .875-.296 1.57-.888 2.085s-1.381.766-2.365.766-1.782-.258-2.379-.773-.889-1.207-.889-2.078c0-.533.141-1.012.424-1.435s.679-.75 1.189-.978c-.428-.219-.768-.517-1.018-.895s-.369-.818-.369-1.306c0-.848.273-1.52.82-2.017s1.285-.745 2.215-.745 1.674.249 2.221.745.821 1.169.821 2.017zm-1.443 4.532c0-.492-.148-.889-.444-1.189-.292-.306-.679-.458-1.162-.458s-.871.15-1.162.451-.431.699-.431 1.196c0 .488.141.877.424 1.169s.681.438 1.183.438.89-.142 1.168-.424.424-.677.424-1.183zm-.212-4.471c0-.433-.125-.788-.376-1.066s-.587-.424-1.011-.424-.759.135-1.005.403-.369.627-.369 1.087.123.818.369 1.087.588.404 1.012.404.758-.135 1.004-.404.376-.631.376-1.087zm4.451 5.517c.309 0 .549.089.717.267a.9.9 0 0 1 .253.656.89.89 0 0 1-.253.649c-.168.169-.408.253-.717.253-.297 0-.531-.084-.705-.253s-.259-.385-.259-.649a.9.9 0 0 1 .253-.656c.168-.178.405-.267.711-.267zm0-5.804c.309 0 .549.089.717.267a.9.9 0 0 1 .253.656c0 .26-.084.476-.253.65-.168.168-.408.252-.717.252-.297 0-.531-.084-.705-.252s-.259-.386-.259-.65a.9.9 0 0 1 .253-.656c.168-.178.405-.267.711-.267zm9.098 3.364c0 1.431-.269 2.511-.806 3.24s-1.347 1.087-2.441 1.087c-1.075 0-1.887-.353-2.433-1.06s-.821-1.761-.834-3.151v-1.723c0-1.431.266-2.504.799-3.22.538-.715 1.356-1.073 2.454-1.073 1.09 0 1.901.349 2.434 1.046s.814 1.741.827 3.131v1.723zm-1.661-1.86c0-.934-.128-1.618-.383-2.051s-.661-.656-1.217-.656c-.542 0-.941.208-1.196.622s-.389 1.053-.403 1.928v2.256c0 .93.13 1.622.39 2.078s.667.684 1.223.684c.533 0 .928-.21 1.183-.629s.389-1.085.403-1.983v-2.249zm9.618 1.86c0 1.431-.269 2.511-.806 3.24s-1.347 1.087-2.441 1.087c-1.075 0-1.887-.353-2.433-1.06s-.821-1.761-.834-3.151v-1.723c0-1.431.266-2.504.799-3.22.538-.715 1.356-1.073 2.454-1.073 1.09 0 1.901.349 2.434 1.046s.814 1.741.827 3.131v1.723zm-1.661-1.86c0-.934-.128-1.618-.383-2.051s-.661-.656-1.217-.656c-.542 0-.941.208-1.196.622s-.389 1.053-.403 1.928v2.256c0 .93.13 1.622.39 2.078s.667.684 1.223.684c.533 0 .928-.21 1.183-.629s.389-1.085.403-1.983v-2.249z" class="D"/><defs><filter id="F" x="0" y="0" width="522" height="420" filterUnits="userSpaceOnUse" color-interpolation-filters="sRGB"><feFlood flood-opacity="0" result="A"/><feColorMatrix in="SourceAlpha" values="0 0 0 0 0 0 0 0 0 0 0 0 0 0 0 0 0 0 127 0"/><feOffset/><feGaussianBlur stdDeviation="25"/><feColorMatrix values="0 0 0 0 0.00392157 0 0 0 0 0.341176 0 0 0 0 0.607843 0 0 0 0.1 0"/><feBlend in2="A"/><feBlend in="SourceGraphic"/></filter><path id="G" d="M92 159.5h6a6.5 6.5 0 0 1 6.5 6.5v4a6.5 6.5 0 0 1-6.5 6.5h-6a6.5 6.5 0 0 1-6.5-6.5v-4a6.5 6.5 0 0 1 6.5-6.5z"/></defs></svg>