<svg xmlns="http://www.w3.org/2000/svg" width="523" height="448" fill="none"  xmlns:v="https://vecta.io/nano"><g filter="url(#A)"><path d="M50 54a4 4 0 0 1 4-4h227.304a4 4 0 0 1 4 4v340a4 4 0 0 1-4 4H54a4 4 0 0 1-4-4V54z" fill="#fff"/></g><path d="M157.852 302.437c0-.42-.149-.773-.445-1.06s-.786-.547-1.483-.779c-.971-.297-1.68-.682-2.126-1.156s-.663-1.084-.663-1.818c0-.747.216-1.36.649-1.839.438-.478 1.037-.763 1.798-.854v-1.497h1.019v1.504c.765.104 1.36.426 1.784.963s.642 1.274.642 2.208h-1.257c0-.642-.153-1.153-.458-1.531s-.718-.567-1.238-.567c-.542 0-.957.141-1.244.424s-.431.667-.431 1.169c0 .464.151.836.452 1.114.305.273.804.524 1.497.752.697.223 1.239.471 1.627.745s.679.583.861.943.28.782.28 1.265c0 .77-.232 1.39-.697 1.859s-1.107.748-1.941.834v1.306h-1.012v-1.306c-.848-.077-1.513-.378-1.996-.902s-.718-1.244-.718-2.147h1.265c0 .634.166 1.121.499 1.463s.804.513 1.415.513c.597 0 1.066-.144 1.408-.431s.513-.679.513-1.175zm3.418-2.427l.505-4.963h5.1v1.169h-4.026l-.301 2.714a3.21 3.21 0 0 1 1.661-.431c.907 0 1.627.301 2.16.902s.8 1.406.8 2.427c0 1.026-.278 1.834-.834 2.427s-1.324.882-2.317.882c-.88 0-1.598-.244-2.154-.732s-.872-1.162-.95-2.023h1.196c.078.569.281 1 .609 1.292s.761.43 1.299.43c.587 0 1.048-.2 1.38-.601.338-.401.506-.955.506-1.661 0-.666-.182-1.199-.547-1.6-.36-.405-.84-.608-1.442-.608-.551 0-.984.121-1.299.362l-.335.274-1.011-.26zm13.521.745c0 1.481-.253 2.582-.759 3.302s-1.296 1.08-2.372 1.08c-1.062 0-1.848-.351-2.358-1.053s-.775-1.759-.793-3.158v-1.689c0-1.463.253-2.549.759-3.26s1.298-1.067 2.378-1.067c1.071 0 1.86.344 2.366 1.032s.765 1.741.779 3.172v1.641zm-1.265-1.73c0-1.071-.15-1.85-.451-2.337-.301-.493-.777-.739-1.429-.739-.647 0-1.118.244-1.415.732s-.448 1.237-.458 2.249v2.023c0 1.076.155 1.871.465 2.386s.789.765 1.422.765c.625 0 1.087-.241 1.388-.724s.465-1.244.478-2.283v-2.072zm9.126 1.73c0 1.481-.253 2.582-.758 3.302s-1.297 1.08-2.373 1.08c-1.061 0-1.847-.351-2.358-1.053s-.775-1.759-.793-3.158v-1.689c0-1.463.253-2.549.759-3.26s1.299-1.067 2.379-1.067c1.071 0 1.859.344 2.365 1.032s.766 1.741.779 3.172v1.641zm-1.264-1.73c0-1.071-.151-1.85-.451-2.337-.301-.493-.777-.739-1.429-.739s-1.119.244-1.415.732-.449 1.237-.458 2.249v2.023c0 1.076.155 1.871.465 2.386s.788.765 1.421.765c.625 0 1.087-.241 1.388-.724.306-.483.465-1.244.479-2.283v-2.072z" fill="#78909c"/><path d="M100.076 82.25v3.897h-1.312v-9.953h3.671c1.089 0 1.941.278 2.556.834.62.556.93 1.292.93 2.208 0 .966-.303 1.711-.909 2.235s-1.465.779-2.591.779h-2.345zm0-1.073h2.359c.702 0 1.239-.164 1.613-.492s.561-.811.561-1.436c0-.593-.187-1.066-.561-1.422s-.886-.54-1.538-.554h-2.434v3.903zm10.897-1.292c-.192-.032-.399-.048-.622-.048-.83 0-1.392.353-1.689 1.06v5.25h-1.264V78.75h1.23l.021.855c.414-.661 1.002-.991 1.763-.991.246 0 .433.032.561.096v1.176zm.697 2.495c0-.725.141-1.376.424-1.955s.684-1.025 1.189-1.34c.511-.314 1.092-.472 1.744-.472 1.007 0 1.82.349 2.44 1.046s.937 1.625.937 2.782v.089c0 .72-.139 1.367-.417 1.941a3.12 3.12 0 0 1-1.183 1.333c-.51.319-1.098.479-1.764.479-1.002 0-1.816-.349-2.44-1.046s-.93-1.62-.93-2.769v-.089zm1.272.15c0 .82.189 1.479.567 1.976s.893.745 1.531.745 1.153-.251 1.532-.752.567-1.212.567-2.119c0-.811-.194-1.467-.581-1.969a1.82 1.82 0 0 0-1.531-.759c-.625 0-1.128.248-1.511.745s-.574 1.208-.574 2.133zm8.353-3.78v8.251c0 1.422-.645 2.133-1.934 2.133a2.35 2.35 0 0 1-.773-.123v-1.012c.146.036.337.055.574.055.283 0 .497-.078.643-.232s.226-.415.226-.793V78.75h1.264zm-1.394-1.962c0-.201.061-.371.184-.513.128-.146.312-.219.554-.219s.433.071.56.212a.75.75 0 0 1 .192.52.72.72 0 0 1-.192.513c-.127.137-.314.205-.56.205s-.431-.068-.554-.205-.184-.308-.184-.513zm6.507 9.495c-1.002 0-1.818-.328-2.447-.984s-.943-1.543-.943-2.645v-.232c0-.734.139-1.388.417-1.962a3.28 3.28 0 0 1 1.176-1.354 2.98 2.98 0 0 1 1.64-.492c.962 0 1.709.317 2.242.95s.8 1.54.8 2.721v.526h-5.011c.019.729.231 1.319.636 1.77s.93.67 1.559.67c.446 0 .825-.091 1.135-.273s.581-.424.813-.725l.773.602c-.62.952-1.55 1.429-2.79 1.429zm-.157-6.631a1.68 1.68 0 0 0-1.285.561c-.346.369-.56.889-.643 1.559h3.706v-.096c-.037-.642-.21-1.139-.52-1.49s-.729-.533-1.258-.533zm7.479 5.599a1.82 1.82 0 0 0 1.182-.41 1.44 1.44 0 0 0 .561-1.025h1.196c-.023.424-.168.827-.437 1.21s-.629.688-1.08.916a3.09 3.09 0 0 1-1.422.342c-1.007 0-1.81-.335-2.407-1.005s-.888-1.595-.888-2.762v-.212c0-.72.132-1.36.396-1.921s.643-.996 1.135-1.306 1.082-.465 1.757-.465c.829 0 1.517.248 2.064.745s.846 1.142.882 1.935h-1.196c-.037-.478-.219-.87-.547-1.176s-.725-.465-1.203-.465c-.643 0-1.142.232-1.497.697s-.527 1.128-.527 2.003v.239c0 .852.176 1.508.527 1.969s.852.69 1.504.69zm6.077-8.292v1.791h1.381v.978h-1.381v4.587c0 .296.061.52.184.67s.333.219.629.219c.146 0 .347-.027.602-.082v1.025a3.67 3.67 0 0 1-.971.137c-.565 0-.991-.171-1.278-.513s-.431-.827-.431-1.456v-4.587h-1.346v-.978h1.346v-1.791h1.265zm9.782 3.049l2.386-3.814h1.545l-3.145 4.936 3.22 5.018h-1.559l-2.447-3.883-2.461 3.883h-1.552l3.227-5.018-3.151-4.936h1.538l2.399 3.814zm85.338-1.218c0 .488-.126.923-.376 1.306a2.57 2.57 0 0 1-1.026.895c.52.242.919.572 1.197.991a2.49 2.49 0 0 1 .424 1.422c0 .875-.297 1.57-.889 2.085s-1.381.766-2.365.766-1.782-.257-2.379-.772-.889-1.208-.889-2.078c0-.533.141-1.012.424-1.436a2.72 2.72 0 0 1 1.189-.978c-.428-.219-.768-.517-1.018-.895s-.369-.818-.369-1.306c0-.848.273-1.52.82-2.017s1.285-.745 2.215-.745 1.675.248 2.221.745.821 1.169.821 2.017zm-1.443 4.532c0-.492-.148-.889-.444-1.189s-.679-.458-1.162-.458-.871.15-1.162.451-.431.7-.431 1.196c0 .488.141.877.424 1.169s.681.438 1.183.438.891-.141 1.169-.424.423-.677.423-1.183zm-.212-4.471c0-.433-.125-.788-.376-1.066s-.587-.424-1.011-.424-.759.134-1.005.403-.369.627-.369 1.087.123.818.369 1.087.588.403 1.012.403.758-.135 1.004-.403c.251-.269.376-.631.376-1.087zm4.451 5.517c.31 0 .549.089.717.267a.9.9 0 0 1 .253.656.89.89 0 0 1-.253.649c-.169.173-.407.253-.717.253-.297 0-.531-.084-.704-.253s-.26-.385-.26-.649a.9.9 0 0 1 .253-.656c.168-.178.405-.267.711-.267zm0-5.804c.31 0 .549.089.717.267a.9.9 0 0 1 .253.656.89.89 0 0 1-.253.649c-.169.173-.407.253-.717.253-.297 0-.531-.084-.704-.253s-.26-.385-.26-.649a.9.9 0 0 1 .253-.656c.168-.178.405-.267.711-.267zm9.098 3.363c0 1.431-.269 2.511-.806 3.24s-1.347 1.087-2.441 1.087c-1.075 0-1.886-.353-2.433-1.059s-.821-1.761-.834-3.151v-1.723c0-1.431.266-2.504.799-3.22s1.356-1.073 2.455-1.073c1.089 0 1.9.349 2.433 1.046.538.697.814 1.741.827 3.131v1.723zm-1.661-1.859c0-.934-.127-1.618-.383-2.051s-.66-.656-1.216-.656c-.543 0-.942.207-1.197.622s-.389 1.053-.403 1.928v2.256c0 .93.13 1.622.39 2.078s.667.684 1.223.684c.533 0 .928-.21 1.183-.629s.389-1.085.403-1.983v-2.249zm9.618 1.859c0 1.431-.269 2.511-.806 3.24s-1.347 1.087-2.441 1.087c-1.075 0-1.886-.353-2.433-1.059s-.821-1.761-.834-3.151v-1.723c0-1.431.266-2.504.799-3.22s1.356-1.073 2.455-1.073c1.089 0 1.9.349 2.433 1.046.538.697.814 1.741.827 3.131v1.723zm-1.661-1.859c0-.934-.127-1.618-.383-2.051s-.66-.656-1.216-.656c-.543 0-.942.207-1.197.622s-.389 1.053-.403 1.928v2.256c0 .93.13 1.622.39 2.078s.667.684 1.223.684c.533 0 .928-.21 1.183-.629s.39-1.085.403-1.983v-2.249zM106.42 131.123c0 .975-.164 1.828-.492 2.557s-.793 1.278-1.395 1.661-1.303.574-2.105.574c-.784 0-1.479-.191-2.085-.574s-1.078-.937-1.415-1.648-.504-1.542-.513-2.481v-.718c0-.957.166-1.802.499-2.536s.802-1.294 1.409-1.682 1.307-.587 2.091-.587c.798 0 1.5.193 2.106.581.61.382 1.08.941 1.408 1.674s.492 1.58.492 2.55v.629zm-1.305-.642c0-1.181-.237-2.085-.711-2.714-.474-.634-1.137-.95-1.99-.95-.829 0-1.483.316-1.962.95-.474.629-.717 1.504-.731 2.625v.731c0 1.144.239 2.044.718 2.7s1.146.978 1.989.978 1.504-.308 1.969-.923.704-1.506.718-2.659v-.738zm3.698 5.297v-6.419h-1.169v-.977h1.169v-.759c0-.793.212-1.406.635-1.839s1.024-.649 1.798-.649a3.35 3.35 0 0 1 .869.116l-.069 1.025a3.63 3.63 0 0 0-.683-.061c-.411 0-.727.121-.951.362s-.335.579-.335 1.026v.779h2.735v-.629c0-.825.234-1.467.704-1.928s1.141-.69 2.003-.69c.51 0 1.155.139 1.934.417l-.212 1.066c-.569-.228-1.114-.342-1.633-.342-.543 0-.935.121-1.176.363s-.356.608-.356 1.1v.643h1.518v.977h-1.518v6.419h-1.264v-6.419h-2.735v6.419h-1.264zm9.262 0h-1.264v-7.396h1.264v7.396zm5.032-.895a1.82 1.82 0 0 0 1.182-.41c.338-.274.524-.615.561-1.026h1.196a2.29 2.29 0 0 1-.437 1.21c-.269.383-.629.688-1.08.916a3.1 3.1 0 0 1-1.422.342c-1.007 0-1.81-.335-2.407-1.005s-.888-1.595-.888-2.761v-.212c0-.72.132-1.361.396-1.921s.643-.996 1.135-1.306 1.082-.465 1.757-.465c.829 0 1.517.249 2.064.745s.846 1.142.882 1.935h-1.196c-.037-.479-.219-.871-.547-1.176a1.7 1.7 0 0 0-1.203-.465c-.643 0-1.142.233-1.497.698s-.527 1.127-.527 2.002v.24c0 .852.176 1.508.527 1.969s.852.69 1.504.69zm7.43 1.032c-1.002 0-1.818-.328-2.447-.984s-.943-1.543-.943-2.646v-.232c0-.734.139-1.388.417-1.962.282-.579.674-1.03 1.176-1.354a2.98 2.98 0 0 1 1.64-.492c.962 0 1.709.317 2.242.95s.8 1.541.8 2.721v.527h-5.011c.019.729.231 1.319.636 1.77s.93.67 1.559.67c.446 0 .825-.091 1.134-.274s.582-.423.814-.724l.772.601c-.619.953-1.549 1.429-2.789 1.429zm-.157-6.631a1.68 1.68 0 0 0-1.285.561c-.346.369-.561.889-.643 1.558h3.705v-.095c-.036-.643-.209-1.14-.519-1.49-.31-.356-.729-.534-1.258-.534zm103.897 3.409h1.238v1.333h-1.238v2.215h-1.661v-2.215h-4.3l-.047-1.011 4.293-6.727h1.715v6.405zm-4.265 0h2.604v-4.156l-.123.219-2.481 3.937zm7.711 1.798c.31 0 .549.089.717.267a.9.9 0 0 1 .253.656c0 .26-.084.476-.253.65-.168.168-.407.253-.717.253-.297 0-.531-.085-.704-.253s-.26-.385-.26-.65a.9.9 0 0 1 .253-.656c.168-.178.405-.267.711-.267zm0-5.803c.31 0 .549.088.717.266a.9.9 0 0 1 .253.656c0 .26-.084.477-.253.65s-.407.253-.717.253c-.297 0-.531-.084-.704-.253s-.26-.385-.26-.65a.9.9 0 0 1 .253-.656c.168-.178.405-.266.711-.266zm9.098 3.363c0 1.431-.269 2.511-.806 3.24s-1.347 1.087-2.441 1.087c-1.075 0-1.886-.353-2.433-1.06s-.821-1.761-.834-3.151v-1.723c0-1.431.266-2.504.799-3.219s1.356-1.074 2.455-1.074c1.089 0 1.9.349 2.433 1.046.538.698.814 1.741.827 3.131v1.723zm-1.661-1.859c0-.935-.127-1.618-.383-2.051s-.66-.657-1.216-.657c-.543 0-.942.208-1.197.623-.255.41-.389 1.052-.403 1.927v2.256c0 .93.13 1.623.39 2.078s.667.684 1.223.684c.533 0 .928-.21 1.183-.629s.389-1.085.403-1.982v-2.249zm9.618 1.859c0 1.431-.269 2.511-.806 3.24s-1.347 1.087-2.441 1.087c-1.075 0-1.886-.353-2.433-1.06s-.821-1.761-.834-3.151v-1.723c0-1.431.266-2.504.799-3.219s1.356-1.074 2.455-1.074c1.089 0 1.9.349 2.433 1.046.538.698.814 1.741.827 3.131v1.723zm-1.661-1.859c0-.935-.127-1.618-.383-2.051s-.66-.657-1.216-.657c-.543 0-.942.208-1.197.623-.255.41-.389 1.052-.403 1.927v2.256c0 .93.13 1.623.39 2.078s.667.684 1.223.684c.533 0 .928-.21 1.183-.629s.39-1.085.403-1.982v-2.249zm-147.476 47.401h-3.199v8.873h-1.306v-8.873h-3.192v-1.08h7.697v1.08zm2.652 8.873h-1.264v-7.396h1.264v7.396zm-1.367-9.358c0-.205.062-.379.185-.52s.314-.212.56-.212.433.071.561.212a.75.75 0 0 1 .191.52c0 .205-.064.376-.191.512s-.315.205-.561.205-.433-.068-.56-.205-.185-.307-.185-.512zm4.587 1.962l.034.82c.542-.638 1.274-.957 2.194-.957 1.035 0 1.739.396 2.113 1.189.246-.355.565-.642.957-.861s.863-.328 1.401-.328c1.623 0 2.447.859 2.475 2.577v4.956h-1.265v-4.881c0-.528-.121-.923-.362-1.182-.242-.265-.647-.397-1.217-.397-.469 0-.859.141-1.169.424-.31.278-.49.654-.54 1.128v4.908h-1.271v-4.847c0-1.075-.527-1.613-1.58-1.613-.829 0-1.396.353-1.702 1.06v5.4h-1.264v-7.396h1.196zm14.157 7.533c-1.002 0-1.818-.328-2.447-.985s-.943-1.542-.943-2.645v-.233c0-.733.139-1.387.417-1.961s.674-1.03 1.175-1.354a2.96 2.96 0 0 1 1.641-.492c.962 0 1.709.317 2.242.95s.8 1.54.8 2.721v.526h-5.011c.018.729.23 1.319.636 1.771.41.446.93.67 1.559.67.446 0 .824-.092 1.134-.274s.581-.424.814-.724l.772.601c-.62.953-1.549 1.429-2.789 1.429zm-.157-6.631c-.51 0-.939.187-1.285.56s-.561.889-.643 1.559h3.705v-.096c-.036-.642-.209-1.139-.519-1.49s-.729-.533-1.258-.533zm7.143 2.782h-3.335v-1.032h3.335v1.032zm.903-.055c0-.724.141-1.376.424-1.955s.683-1.025 1.189-1.339 1.092-.472 1.743-.472c1.007 0 1.821.348 2.441 1.046s.936 1.624.936 2.782v.089c0 .72-.139 1.367-.417 1.941s-.667 1.014-1.182 1.333-1.099.479-1.764.479c-1.003 0-1.816-.349-2.44-1.046s-.93-1.62-.93-2.769v-.089zm1.271.151c0 .82.189 1.479.568 1.975a1.83 1.83 0 0 0 1.531.746c.638 0 1.153-.251 1.531-.752s.568-1.213.568-2.12c0-.811-.194-1.467-.581-1.968a1.84 1.84 0 0 0-1.532-.759 1.81 1.81 0 0 0-1.51.745c-.383.497-.575 1.208-.575 2.133zm7.67 3.616v-6.419h-1.169v-.977h1.169v-.759c0-.793.212-1.406.636-1.839s1.023-.649 1.798-.649c.292 0 .581.038.868.116l-.068 1.025a3.64 3.64 0 0 0-.684-.061c-.41 0-.727.12-.95.362s-.335.579-.335 1.025v.78h1.579v.977h-1.579v6.419H142.5zm4.867 0v-6.419h-1.169v-.977h1.169v-.759c0-.793.212-1.406.636-1.839s1.023-.649 1.798-.649c.292 0 .581.038.868.116l-.068 1.025c-.214-.041-.442-.061-.684-.061-.41 0-.727.12-.95.362s-.335.579-.335 1.025v.78h1.579v.977h-1.579v6.419h-1.265z" fill="#3d4853"/><ellipse cx="83" cy="180.39" rx="4.304" ry="4.296" fill="#ffd740"/><ellipse cx="83" cy="130.266" rx="4.304" ry="4.296" fill="#40c4ff"/><ellipse cx="83" cy="80.143" rx="4.304" ry="4.296" fill="#ff80ab"/><path d="M235.351 186.365h-6.693v-1.142l3.316-3.616c.478-.533.818-.977 1.018-1.333.205-.36.308-.72.308-1.08 0-.474-.135-.857-.404-1.148-.264-.292-.622-.438-1.073-.438-.538 0-.955.164-1.251.492s-.444.777-.444 1.347h-1.661c0-.606.137-1.151.41-1.634s.672-.866 1.183-1.135 1.107-.403 1.777-.403c.966 0 1.727.244 2.283.731s.841 1.153.841 2.01c0 .497-.141 1.019-.424 1.566s-.736 1.159-1.374 1.852l-2.434 2.605h4.622v1.326zm2.372-1.75c.31 0 .549.089.717.266s.253.392.253.657c0 .259-.084.476-.253.649s-.407.253-.717.253c-.297 0-.531-.084-.704-.253s-.26-.385-.26-.649.084-.483.253-.657.405-.266.711-.266zm0-5.804c.31 0 .549.089.717.267a.9.9 0 0 1 .253.656.89.89 0 0 1-.253.649c-.168.169-.407.253-.717.253-.297 0-.531-.084-.704-.253s-.26-.385-.26-.649a.9.9 0 0 1 .253-.656c.168-.178.405-.267.711-.267zm9.098 3.363c0 1.431-.269 2.512-.806 3.241s-1.347 1.087-2.441 1.087c-1.075 0-1.886-.354-2.433-1.06-.543-.711-.821-1.761-.834-3.151v-1.723c0-1.431.266-2.504.799-3.22.538-.715 1.356-1.073 2.455-1.073 1.089 0 1.9.349 2.433 1.046.538.697.814 1.741.827 3.131v1.722zm-1.661-1.859c0-.934-.127-1.618-.383-2.051s-.66-.656-1.216-.656c-.543 0-.942.207-1.197.622s-.389 1.053-.403 1.928v2.256c0 .929.13 1.622.39 2.078s.667.683 1.223.683c.533 0 .928-.209 1.183-.628s.389-1.085.403-1.983v-2.249zm9.618 1.859c0 1.431-.269 2.512-.806 3.241s-1.347 1.087-2.441 1.087c-1.075 0-1.886-.354-2.433-1.06-.543-.711-.821-1.761-.834-3.151v-1.723c0-1.431.266-2.504.799-3.22.538-.715 1.356-1.073 2.455-1.073 1.089 0 1.9.349 2.433 1.046.538.697.814 1.741.827 3.131v1.722zm-1.661-1.859c0-.934-.127-1.618-.383-2.051s-.66-.656-1.216-.656c-.543 0-.942.207-1.197.622s-.389 1.053-.403 1.928v2.256c0 .929.13 1.622.39 2.078s.667.683 1.223.683c.533 0 .928-.209 1.183-.628s.39-1.085.403-1.983v-2.249z" fill="#3d4853"/><path d="M236.093 342.697c6.505-10.557 10.47-22.476 11.583-34.82a80.04 80.04 0 0 0-5.166-36.326c-4.511-11.548-11.642-21.894-20.834-30.228s-20.193-14.428-32.141-17.803-24.517-3.941-36.721-1.652-23.711 7.37-33.616 14.844-17.94 17.139-23.474 28.235a80.07 80.07 0 0 0-8.419 35.714l48.209.015a32.03 32.03 0 0 1 3.368-14.286c2.213-4.438 5.427-8.304 9.39-11.294s8.564-5.022 13.446-5.937 9.909-.69 14.688.66a32.16 32.16 0 0 1 12.857 7.122c3.677 3.333 6.529 7.472 8.334 12.091s2.511 9.592 2.066 14.53a32.03 32.03 0 0 1-4.633 13.928l41.064 25.207z" fill="#40c4ff"/><path d="M124.055 368.051c9.438 6.085 20.049 10.127 31.149 11.864s22.441 1.132 33.292-1.777 20.97-8.058 29.703-15.113 15.888-15.86 21-25.846l-42.928-21.896a32.09 32.09 0 0 1-8.4 10.339c-3.493 2.822-7.541 4.881-11.881 6.045a32.21 32.21 0 0 1-13.317.71c-4.44-.694-8.684-2.311-12.459-4.745l-26.159 40.419z" fill="#ffd740"/><path d="M167.652 220.488a80.48 80.48 0 0 0-33.864 7.471 80.36 80.36 0 0 0-27.555 21.021c-7.542 8.926-13.041 19.388-16.111 30.655s-3.639 23.067-1.666 34.577a80.11 80.11 0 0 0 13.09 32.056c6.649 9.607 15.319 17.649 25.406 23.564s21.345 9.56 32.989 10.681 23.394-.31 34.426-4.192l-16.028-45.381a32.2 32.2 0 0 1-13.771 1.677 32.19 32.19 0 0 1-13.195-4.273c-4.035-2.366-7.503-5.582-10.163-9.425a32.05 32.05 0 0 1-5.235-12.823c-.79-4.604-.562-9.324.666-13.831s3.428-8.691 6.445-12.261 6.778-6.44 11.022-8.409 8.866-2.988 13.545-2.988v-48.119z" fill="#ff80ab"/><g filter="url(#B)"><path d="M264 75a4 4 0 0 1 4-4h201a4 4 0 0 1 4 4v212a4 4 0 0 1-4 4H268a4 4 0 0 1-4-4V75z" fill="#fff"/></g><g fill="#47ce4f"><rect x="284" y="110" width="137" height="17" rx="2.864"/><rect x="284" y="142" width="106" height="17" rx="2.864"/><rect x="284" y="173" width="115" height="17" rx="2.864"/><rect x="284" y="205" width="48" height="17" rx="2.864"/><rect x="284" y="236" width="86" height="17" rx="2.864"/></g><path d="M383.592 250.741h-1.271v-8.429l-2.55.937V242.1l3.623-1.36h.198v10.001zm3.794-.663c0-.219.064-.401.192-.547s.328-.219.588-.219.455.073.587.219a.79.79 0 0 1 .205.547c0 .209-.068.385-.205.526s-.328.212-.587.212-.456-.071-.588-.212-.192-.317-.192-.526zm.007-6.036c0-.219.064-.402.191-.547.133-.146.329-.219.588-.219s.456.073.588.219a.79.79 0 0 1 .205.547c0 .209-.068.385-.205.526s-.328.212-.588.212-.455-.071-.588-.212c-.127-.141-.191-.317-.191-.526zm9.536 2.454c0 1.481-.253 2.581-.759 3.301s-1.296 1.08-2.372 1.08c-1.062 0-1.848-.35-2.358-1.052s-.775-1.759-.793-3.158v-1.689c0-1.463.253-2.55.759-3.261s1.299-1.066 2.379-1.066c1.071 0 1.859.344 2.365 1.032s.766 1.741.779 3.172v1.641zm-1.264-1.73c0-1.071-.151-1.85-.452-2.338s-.777-.738-1.428-.738-1.119.244-1.415.731-.449 1.238-.458 2.249v2.024c0 1.075.155 1.871.464 2.386.315.51.789.765 1.422.765.625 0 1.087-.241 1.388-.724s.465-1.245.479-2.284v-2.071zm9.126 1.73c0 1.481-.253 2.581-.759 3.301s-1.297 1.08-2.372 1.08c-1.062 0-1.848-.35-2.359-1.052s-.774-1.759-.793-3.158v-1.689c0-1.463.253-2.55.759-3.261s1.299-1.066 2.379-1.066c1.071 0 1.859.344 2.365 1.032s.766 1.741.78 3.172v1.641zm-1.265-1.73c0-1.071-.151-1.85-.451-2.338s-.777-.738-1.429-.738-1.119.244-1.415.731-.449 1.238-.458 2.249v2.024c0 1.075.155 1.871.465 2.386s.788.765 1.422.765c.624 0 1.087-.241 1.387-.724.306-.483.465-1.245.479-2.284v-2.071zm-59.066-31.209c0 1.481-.253 2.582-.759 3.302s-1.296 1.08-2.372 1.08c-1.062 0-1.848-.351-2.358-1.053s-.775-1.759-.793-3.158v-1.688c0-1.463.253-2.55.759-3.261s1.298-1.066 2.378-1.066c1.071 0 1.86.344 2.366 1.032.506.683.765 1.741.779 3.172v1.64zm-1.265-1.729c0-1.071-.15-1.85-.451-2.338s-.777-.738-1.429-.738-1.118.244-1.415.731-.449 1.237-.458 2.249v2.024c0 1.075.155 1.87.465 2.385s.789.766 1.422.766c.624 0 1.087-.242 1.388-.725s.465-1.244.478-2.283v-2.071zm2.974 5.311a.8.8 0 0 1 .191-.546c.133-.146.328-.219.588-.219s.456.073.588.219a.79.79 0 0 1 .205.546c0 .21-.068.385-.205.527s-.328.212-.588.212-.455-.071-.588-.212a.76.76 0 0 1-.191-.527zm.007-6.036c0-.218.064-.401.191-.547s.328-.218.588-.218.456.073.588.218a.77.77 0 0 1 .205.547c0 .21-.068.385-.205.527s-.328.212-.588.212-.456-.071-.588-.212a.76.76 0 0 1-.191-.527zm5.134 1.108h.95c.597-.009 1.066-.167 1.408-.472s.513-.718.513-1.237c0-1.167-.581-1.75-1.743-1.75-.547 0-.985.157-1.313.471s-.485.723-.485 1.238h-1.265a2.53 2.53 0 0 1 .861-1.962c.579-.524 1.313-.786 2.202-.786.938 0 1.674.248 2.208.745s.799 1.187.799 2.071c0 .433-.141.852-.424 1.258s-.658.709-1.141.909c.547.173.968.46 1.265.861s.451.891.451 1.47c0 .893-.292 1.602-.875 2.126s-1.342.786-2.277.786-1.695-.253-2.283-.759-.875-1.173-.875-2.003h1.272c0 .525.171.944.512 1.258s.8.472 1.374.472c.611 0 1.078-.16 1.402-.479s.485-.777.485-1.374c0-.578-.178-1.023-.533-1.333s-.868-.469-1.538-.478h-.95v-1.032zm12.263 1.346c0 1.481-.253 2.582-.759 3.302s-1.296 1.08-2.372 1.08c-1.061 0-1.848-.351-2.358-1.053s-.775-1.759-.793-3.158v-1.688c0-1.463.253-2.55.759-3.261s1.299-1.066 2.379-1.066c1.071 0 1.859.344 2.365 1.032.506.683.766 1.741.779 3.172v1.64zm-1.264-1.729c0-1.071-.151-1.85-.452-2.338s-.777-.738-1.428-.738-1.119.244-1.415.731-.449 1.237-.458 2.249v2.024c0 1.075.155 1.87.465 2.385s.788.766 1.421.766c.625 0 1.087-.242 1.388-.725s.465-1.244.479-2.283v-2.071zm53.649-25.532h-6.522v-.909l3.445-3.828c.511-.579.862-1.048 1.053-1.408.196-.365.294-.741.294-1.128 0-.52-.157-.946-.472-1.278s-.733-.5-1.257-.5c-.629 0-1.119.18-1.47.541-.347.355-.52.852-.52 1.49h-1.264c0-.916.294-1.657.881-2.222.593-.565 1.384-.848 2.373-.848.925 0 1.656.244 2.194.732s.807 1.128.807 1.934c0 .98-.625 2.147-1.874 3.5l-2.666 2.892h4.998v1.032zm1.428-.663c0-.219.064-.401.192-.547s.328-.218.588-.218.455.072.587.218a.79.79 0 0 1 .205.547c0 .21-.068.385-.205.527s-.328.211-.587.211-.456-.07-.588-.211-.192-.317-.192-.527zm.007-6.036c0-.219.064-.401.191-.547.133-.146.329-.219.588-.219s.456.073.588.219a.79.79 0 0 1 .205.547c0 .21-.068.385-.205.526s-.328.212-.588.212-.455-.07-.588-.212c-.127-.141-.191-.316-.191-.526zm9.536 2.454c0 1.481-.253 2.582-.759 3.302s-1.296 1.08-2.372 1.08c-1.062 0-1.848-.351-2.358-1.053s-.775-1.759-.793-3.158v-1.688c0-1.463.253-2.55.759-3.261s1.299-1.067 2.379-1.067c1.071 0 1.859.344 2.365 1.033.506.683.766 1.741.779 3.172v1.64zm-1.264-1.729c0-1.071-.151-1.851-.452-2.338s-.777-.739-1.428-.739-1.119.244-1.415.732-.449 1.237-.458 2.249v2.023c0 1.076.155 1.871.464 2.386.315.511.789.766 1.422.766.625 0 1.087-.242 1.388-.725s.465-1.244.479-2.283v-2.071zm9.126 1.729c0 1.481-.253 2.582-.759 3.302s-1.297 1.08-2.372 1.08c-1.062 0-1.848-.351-2.359-1.053s-.774-1.759-.793-3.158v-1.688c0-1.463.253-2.55.759-3.261s1.299-1.067 2.379-1.067c1.071 0 1.859.344 2.365 1.033.506.683.766 1.741.78 3.172v1.64zm-1.265-1.729c0-1.071-.151-1.851-.451-2.338s-.777-.739-1.429-.739-1.119.244-1.415.732-.449 1.237-.458 2.249v2.023c0 1.076.155 1.871.465 2.386s.788.766 1.422.766c.624 0 1.087-.242 1.387-.725.306-.483.465-1.244.479-2.283v-2.071zm-30.977-25.532h-1.272v-8.429l-2.549.937v-1.149l3.623-1.36h.198v10.001zm3.794-.663c0-.219.064-.401.191-.547s.328-.219.588-.219.456.073.588.219a.79.79 0 0 1 .205.547c0 .21-.068.385-.205.526s-.328.212-.588.212-.456-.07-.588-.212-.191-.316-.191-.526zm.007-6.036c0-.219.063-.401.191-.547s.328-.219.588-.219.456.073.588.219a.79.79 0 0 1 .205.547c0 .209-.068.385-.205.526s-.328.212-.588.212-.456-.071-.588-.212-.191-.317-.191-.526zm3.876 1.709l.505-4.963h5.1v1.169h-4.026l-.301 2.714c.488-.287 1.041-.431 1.661-.431.907 0 1.627.301 2.16.902s.8 1.406.8 2.427c0 1.026-.278 1.834-.834 2.427s-1.324.882-2.317.882c-.88 0-1.598-.244-2.154-.732s-.872-1.162-.95-2.023h1.196c.078.57.281 1 .609 1.292s.761.431 1.299.431c.588 0 1.048-.201 1.38-.602.338-.401.506-.955.506-1.661 0-.666-.182-1.199-.547-1.6s-.84-.608-1.442-.608c-.551 0-.984.121-1.299.362l-.335.274-1.011-.26zm13.521.745c0 1.481-.253 2.582-.759 3.302s-1.296 1.08-2.372 1.08c-1.062 0-1.848-.351-2.358-1.053s-.775-1.759-.793-3.158v-1.689c0-1.463.253-2.549.759-3.26s1.298-1.067 2.379-1.067c1.071 0 1.859.344 2.365 1.032s.765 1.741.779 3.172v1.641zm-1.265-1.73c0-1.071-.15-1.85-.451-2.337-.301-.493-.777-.739-1.428-.739s-1.119.244-1.415.732-.449 1.237-.459 2.249v2.023c0 1.076.155 1.871.465 2.386s.789.766 1.422.766c.625 0 1.087-.242 1.388-.725s.465-1.244.478-2.283v-2.072zm15.302-25.531h-6.522v-.909l3.446-3.828c.51-.579.861-1.049 1.052-1.409a2.35 2.35 0 0 0 .294-1.128c0-.519-.157-.945-.471-1.278s-.734-.499-1.258-.499c-.629 0-1.119.18-1.47.54s-.52.852-.52 1.49h-1.264c0-.916.294-1.656.882-2.221s1.383-.848 2.372-.848c.925 0 1.656.244 2.194.732s.807 1.127.807 1.934c0 .98-.625 2.147-1.873 3.5l-2.666 2.892h4.997v1.032zm1.428-.663c0-.219.064-.401.192-.547s.328-.219.588-.219.455.073.588.219a.77.77 0 0 1 .205.547.73.73 0 0 1-.205.526c-.133.141-.329.212-.588.212s-.456-.071-.588-.212-.192-.317-.192-.526zm.007-6.036c0-.219.064-.401.192-.547s.328-.219.588-.219.455.073.587.219a.79.79 0 0 1 .206.547c0 .209-.069.385-.206.526s-.328.212-.587.212-.456-.071-.588-.212-.192-.317-.192-.526zm5.134 1.107h.95c.597-.009 1.067-.166 1.408-.472s.513-.717.513-1.237c0-1.167-.581-1.75-1.743-1.75-.547 0-.984.157-1.313.472-.323.31-.485.722-.485 1.237h-1.265c0-.788.288-1.442.862-1.962s1.312-.786 2.201-.786c.939 0 1.675.248 2.208.745s.8 1.187.8 2.071c0 .433-.142.853-.424 1.258a2.54 2.54 0 0 1-1.142.909c.547.174.969.461 1.265.862s.451.891.451 1.47c0 .893-.292 1.601-.875 2.126s-1.342.786-2.276.786-1.696-.253-2.283-.759-.875-1.174-.875-2.003h1.271c0 .524.171.943.513 1.258s.8.471 1.374.471c.61 0 1.078-.159 1.401-.478s.486-.777.486-1.374c0-.579-.178-1.023-.534-1.333s-.868-.47-1.538-.479h-.95v-1.032zm12.264 1.347c0 1.481-.253 2.582-.759 3.302s-1.297 1.08-2.372 1.08c-1.062 0-1.848-.351-2.359-1.053s-.774-1.759-.793-3.158v-1.689c0-1.463.253-2.55.759-3.261s1.299-1.066 2.379-1.066c1.071 0 1.86.344 2.365 1.032s.766 1.741.78 3.172v1.641zm-1.265-1.73c0-1.071-.15-1.85-.451-2.338s-.777-.738-1.429-.738-1.119.244-1.415.732-.449 1.237-.458 2.249v2.023c0 1.076.155 1.871.465 2.386s.788.765 1.422.765c.624 0 1.087-.241 1.388-.724s.464-1.244.478-2.283v-2.072z" fill="#3d4853"/><defs><filter id="A" x="0" y="0" width="335.304" height="448" filterUnits="userSpaceOnUse" color-interpolation-filters="sRGB"><feFlood flood-opacity="0" result="A"/><feColorMatrix in="SourceAlpha" values="0 0 0 0 0 0 0 0 0 0 0 0 0 0 0 0 0 0 127 0"/><feOffset/><feGaussianBlur stdDeviation="25"/><feColorMatrix values="0 0 0 0 0.00392157 0 0 0 0 0.341176 0 0 0 0 0.607843 0 0 0 0.1 0"/><feBlend in2="A"/><feBlend in="SourceGraphic"/></filter><filter id="B" x="214" y="21" width="309" height="320" filterUnits="userSpaceOnUse" color-interpolation-filters="sRGB"><feFlood flood-opacity="0" result="A"/><feColorMatrix in="SourceAlpha" values="0 0 0 0 0 0 0 0 0 0 0 0 0 0 0 0 0 0 127 0"/><feOffset/><feGaussianBlur stdDeviation="25"/><feColorMatrix values="0 0 0 0 0.00392157 0 0 0 0 0.341176 0 0 0 0 0.607843 0 0 0 0.1 0"/><feBlend in2="A"/><feBlend in="SourceGraphic"/></filter></defs></svg>