<svg width="96" height="172" viewBox="0 0 96 172" fill="none" xmlns="http://www.w3.org/2000/svg">
<path d="M16 34.1C15.5 33.8 14.9 34 14.6 34.5C14.3 35 14.5 35.6 15 35.9C15.5 36.2 16.1 36 16.4 35.5C16.6 35 16.5 34.4 16 34.1ZM23 0C10.8 0 1 9.9 1 22C1 34.2 10.8 44 23 44C35.2 44 45 34.2 45 22C45 9.9 35.2 0 23 0ZM23 42C12 42 3 33 3 22C3 11 12 2 23 2C34 2 43 11 43 22C43 33 34 42 23 42ZM9.5 28.6C9 28.9 8.9 29.5 9.1 30C9.4 30.5 10 30.6 10.5 30.4C11 30.1 11.1 29.5 10.9 29C10.6 28.5 10 28.4 9.5 28.6ZM15 8.1C14.5 8.4 14.4 9 14.6 9.5C14.9 10 15.5 10.1 16 9.9C16.5 9.6 16.6 9 16.4 8.5C16.1 8 15.5 7.9 15 8.1ZM30 9.9C30.5 10.2 31.1 10 31.4 9.5C31.7 9 31.5 8.4 31 8.1C30.5 7.8 29.9 8 29.6 8.5C29.4 9 29.5 9.6 30 9.9ZM8 21C7.4 21 7 21.4 7 22C7 22.6 7.4 23 8 23C8.6 23 9 22.6 9 22C9 21.4 8.6 21 8 21ZM10.5 13.6C10 13.3 9.4 13.5 9.1 14C8.8 14.5 9 15.1 9.5 15.4C10 15.7 10.6 15.5 10.9 15C11.2 14.5 11 13.9 10.5 13.6ZM23 36C22.4 36 22 36.4 22 37C22 37.6 22.4 38 23 38C23.6 38 24 37.6 24 37C24 36.4 23.6 36 23 36ZM38 21C37.4 21 37 21.4 37 22C37 22.6 37.4 23 38 23C38.6 23 39 22.6 39 22C39 21.4 38.6 21 38 21ZM36.5 28.6C36 28.3 35.4 28.5 35.1 29C34.8 29.5 35 30.1 35.5 30.4C36 30.7 36.6 30.5 36.9 30C37.1 29.5 37 28.9 36.5 28.6ZM35.5 13.6C35 13.9 34.9 14.5 35.1 15C35.4 15.5 36 15.6 36.5 15.4C37 15.1 37.1 14.5 36.9 14C36.6 13.5 36 13.4 35.5 13.6ZM30 34.1C29.5 34.4 29.4 35 29.6 35.5C29.9 36 30.5 36.1 31 35.9C31.5 35.6 31.6 35 31.4 34.5C31.1 34 30.5 33.8 30 34.1ZM32 21H26.9C26.5 19.6 25.4 18.5 24 18.1V7C24 6.4 23.6 6 23 6C22.4 6 22 6.4 22 7V18.1C20.3 18.5 19 20.1 19 22C19 24.2 20.8 26 23 26C24.9 26 26.4 24.7 26.9 23H32C32.6 23 33 22.6 33 22C33 21.4 32.6 21 32 21ZM23 24C21.9 24 21 23.1 21 22C21 20.9 21.9 20 23 20C24.1 20 25 20.9 25 22C25 23.1 24.1 24 23 24Z" fill="#03A9F4"/>
<path d="M23 62C20.2 62 18 64.2 18 67C18 69.8 20.2 72 23 72C25.8 72 28 69.8 28 67C28 64.2 25.8 62 23 62ZM23 45C10.8 45 1 54.9 1 67C1 79.2 10.8 89 23 89C35.2 89 45 79.2 45 67C45 54.9 35.2 45 23 45ZM24 86.9V80C24 79.4 23.6 79 23 79C22.4 79 22 79.4 22 80V86.9C11.8 86.4 3.6 78.2 3 68H10C10.6 68 11 67.6 11 67C11 66.4 10.6 66 10 66H3C3.6 55.8 11.8 47.6 22 47.1V54C22 54.6 22.4 55 23 55C23.6 55 24 54.6 24 54V47.1C34.2 47.6 42.4 55.8 43 66H36C35.4 66 35 66.4 35 67C35 67.6 35.4 68 36 68H43C42.4 78.2 34.2 86.4 24 86.9Z" fill="#03A9F4"/>
<path d="M72 21.9C71.5 21.5 71 21.2 70.3 21C69.7 20.8 69.2 20.5 68.6 20.4V15.6C69.4 15.6 69.8 15.8 70.1 16.2C70.5 16.6 70.7 17.2 70.7 18H73.2C73.2 17.3 73.1 16.6 72.8 16.1C72.5 15.5 72.2 15.1 71.8 14.7C71.4 14.3 70.9 14.1 70.3 13.9C69.7 13.7 69.3 13.6 68.6 13.6V12H67.3V13.5C66.6 13.5 66.2 13.6 65.6 13.8C65 14 64.4 14.2 64 14.6C63.5 15 63.2 15.4 62.9 16C62.6 16.6 62.5 17.2 62.5 17.9C62.5 18.7 62.6 19.4 62.9 20C63.2 20.6 63.6 21 64.1 21.4C64.6 21.8 65.1 22.1 65.7 22.3C66.3 22.5 66.7 22.7 67.3 22.9V28.4C66.3 28.4 65.7 28.1 65.3 27.5C64.9 26.9 64.6 26.1 64.7 25.1H62.2C62.2 25.9 62.3 26.7 62.6 27.3C62.9 27.9 63.2 28.5 63.7 28.9C64.2 29.3 64.7 29.7 65.4 29.9C66.1 30.1 66.6 30.3 67.4 30.3V32H68.7V30.5C69.4 30.5 69.9 30.3 70.6 30.1C71.2 29.9 71.8 29.6 72.2 29.1C72.7 28.7 73 28.2 73.3 27.5C73.6 26.9 73.7 26.1 73.7 25.3C73.7 24.5 73.6 23.8 73.3 23.2C72.9 22.7 72.5 22.2 72 21.9ZM67.3 20C67 19.9 66.9 19.8 66.6 19.7C66.3 19.6 66 19.4 65.8 19.3C65.6 19.1 65.4 18.9 65.2 18.6C65 18.4 65 18.1 65 17.7C65 16.9 65.2 16.3 65.6 16C66 15.7 66.5 15.5 67.2 15.5V20H67.3ZM70.3 27.7C69.8 28.1 69.3 28.4 68.5 28.4V23.1C68.8 23.2 69 23.3 69.3 23.4C69.6 23.5 69.9 23.7 70.2 23.9C70.5 24.1 70.7 24.3 70.8 24.6C71 24.9 71 25.2 71 25.7C71.1 26.6 70.8 27.2 70.3 27.7ZM68 0C55.8 0 46 9.8 46 22C46 34.2 55.8 44 68 44C80.2 44 90 34.2 90 22C90 9.8 80.2 0 68 0ZM68 42C57 42 48 33 48 22C48 11 57 2 68 2C79 2 88 11 88 22C88 33 79 42 68 42Z" fill="#03A9F4"/>
<path d="M75.8643 76.2C75.8643 76.2 72.2805 75.3 72.2805 71.6C72.2805 68.3 73.7738 67.2 74.2715 66.4C74.2715 66.4 75.4661 65.4 74.6697 62.1C75.9638 60.3 76.362 57.3 74.7692 53.7C73.8733 51.6 73.0769 50.4 71.8824 49.7C71.086 49.2 70.0905 49 69.095 49C67.3032 49 65.6109 49.6 64.914 50.1C62.9231 51 61.629 51.8 60.3348 55C59.2398 57.6 60.5339 60.5 61.1312 62C60.3348 65.3 61.4299 66.4 61.4299 66.4C62.0271 67.2 63.4208 68.4 63.4208 71.6C63.4208 75.3 59.8371 76.2 59.8371 76.2C57.5475 77 52.8688 78.6 52.8688 84C52.8688 84 52.8688 85 53.8643 85H81.7376C82.733 85 82.733 84 82.733 84C82.8326 78.6 78.0543 77 75.8643 76.2ZM55.0588 83C55.5566 80.2 57.9457 79.1 60.5339 78.2H60.6335C62.4253 77.7 65.6109 75.8 65.6109 71.7C65.6109 68.2 64.2172 66.5 63.4208 65.6C63.2217 65.4 63.1222 65.2 63.1222 65.2C63.0226 65.1 62.724 64.3 63.2217 62.5C63.4208 61.6 63.1222 61.2 63.1222 61.2C62.6244 60 61.5294 57.7 62.3258 55.8C63.3213 53.2 64.2172 52.7 65.9095 52C66.0091 52 66.1086 51.9 66.2081 51.8C66.3077 51.6 67.6018 51 69.095 51C69.7919 51 70.4887 51.1 70.9864 51.4C71.5837 51.7 72.181 52.4 72.9774 54.4C74.5701 58.1 73.5747 60.1 73.0769 60.8C72.7783 61.3 72.5792 61.9 72.7783 62.4C73.1765 64.1 72.8778 64.8 72.8778 64.9C72.8778 64.9 72.5792 65.2 72.4796 65.4C71.6833 66.3 70.2896 68 70.2896 71.5C70.2896 75.6 73.4751 77.5 75.267 78H75.3665C77.8552 78.9 80.3439 80 80.8416 82.8H55.0588V83ZM50.7783 75.9C52.0724 75.5 54.4615 74 54.4615 70.6C54.4615 67.5 53.4661 66.2 52.9683 65.4L52.8688 65.3C52.8688 65.2 52.6697 64.6 52.9683 63.5C53.0679 63.1 52.9683 62.6 52.8688 62.2C52.4706 61.3 51.6742 59.7 52.2715 58.4C53.1674 56.3 53.4661 56.1 54.4615 55.7C54.5611 55.7 54.6606 55.6 54.7602 55.6C54.9593 55.4 56.0543 55.1 57.0498 55.1C57.5475 55.1 57.9457 55.2 58.2443 55.4C58.3439 55.1 58.4434 54.7 58.543 54.4C58.6425 54.1 58.8416 53.8 58.9412 53.6C58.3439 53.3 57.6471 53.2 56.9502 53.2C55.5566 53.2 54.1629 53.7 53.5656 54C51.9728 54.7 51.276 55.3 50.2805 57.8C49.3846 59.9 50.4796 62.1 50.9774 63.2C50.3801 65.8 51.1765 66.7 51.1765 66.7C51.6742 67.3 52.371 68.2 52.371 70.8C52.371 73.7 50.181 74.2 50.181 74.2C48.3891 74.6 46 76 46 80C46 80 46 81 46.9955 81H51.4751C51.6742 80.3 52.0724 79.6 52.371 79H48.0905C48.3891 77.1 49.5837 76.4 50.7783 75.9ZM85.6199 74C85.6199 74 83.4299 73.5 83.4299 70.6C83.4299 68 84.2262 67.1 84.6244 66.5C84.6244 66.5 85.5204 65.6 84.8235 63C85.3213 61.9 86.4163 59.6 85.5204 57.6C84.5249 55.1 83.8281 54.5 82.2353 53.8C81.638 53.5 80.3439 53 78.8507 53C78.1538 53 77.457 53.1 76.8597 53.4C77.1584 54 77.3575 54.7 77.457 55.3H77.5566C77.8552 55.1 78.3529 55 78.8507 55C79.8462 55 80.8416 55.4 81.1403 55.5C81.2398 55.6 81.3394 55.6 81.4389 55.6C82.4344 56 82.8326 56.2 83.629 58.3C84.1267 59.5 83.4299 61.2 83.0317 62.1C82.8326 62.5 82.8326 63 82.9321 63.4C83.2308 64.5 83.0317 65 83.0317 65.2L82.9321 65.3C82.4344 66 81.4389 67.4 81.4389 70.5C81.4389 73.9 83.7285 75.5 85.1222 75.8C86.4163 76.3 87.6109 77 87.9095 78.9H83.629C84.0271 79.5 84.3258 80.2 84.5249 80.9H89.0045C90 80.9 90 79.9 90 79.9C89.8009 76 87.4118 74.6 85.6199 74Z" fill="#03A9F4"/>
<path d="M4 123.988V90H38.9046V120.431L23.0758 156H8.26161L17.7995 123.988H4ZM52.0954 123.988V90H87V120.431L71.1711 156H56.357L65.8949 123.988H52.0954Z" fill="#F2FAFF"/>
<path d="M6.41294 171C12.7562 171 16.3085 165.589 16.3085 160.951C16.3085 160.78 16.3085 160.608 16.3085 160.522C16.9851 160.006 17.5771 159.405 18 158.718C17.408 158.976 16.7314 159.148 15.9701 159.234C16.7314 158.804 17.2388 158.117 17.4925 157.259C16.816 157.687 16.0547 157.946 15.2935 158.117C13.9403 156.658 11.7413 156.658 10.3881 157.946C9.45767 158.804 9.11937 160.093 9.3731 161.295C6.58209 161.209 4.04478 159.835 2.26866 157.602C1.33831 159.234 1.76119 161.295 3.28358 162.326C2.77612 162.326 2.26866 162.154 1.76119 161.896C1.76119 161.896 1.76119 161.896 1.76119 161.982C1.76119 163.7 2.94528 165.073 4.55224 165.417C4.04478 165.589 3.45273 165.589 2.94528 165.503C3.36816 166.964 4.72139 167.909 6.1592 167.909C4.89054 168.853 3.45273 169.454 1.84577 169.454C1.59204 169.454 1.25373 169.454 1 169.368C2.69154 170.399 4.46766 171 6.41294 171Z" fill="#7F9CAD"/>
<path fill-rule="evenodd" clip-rule="evenodd" d="M68.0424 157.428C68.8134 157.659 69.4215 158.333 69.6292 159.191C70.0143 160.755 69.9999 164.017 69.9999 164.017C69.9999 164.017 69.9999 164.827 69.9536 165.834C69.9072 166.841 69.8145 168.043 69.6292 168.827C69.4215 169.682 68.8134 170.358 68.0424 170.588C66.6345 171 61 171 61 171C61 171 55.3806 171 53.9568 170.572C53.6875 170.491 53.4374 170.356 53.2177 170.177C52.8102 169.847 52.5058 169.366 52.3707 168.809C52 167.262 52 164 52 164C52 164 52 160.755 52.3707 159.191C52.4282 158.953 52.5177 158.729 52.6328 158.523C52.934 157.986 53.4102 157.578 53.9568 157.412C55.3654 157 61 157 61 157C61 157 66.6345 157 68.0424 157.428ZM63.8916 163.999L59.2062 166.997V161.001L63.8916 163.999Z" fill="#7F9CAD"/>
<path fill-rule="evenodd" clip-rule="evenodd" d="M72 158.003C72 157.449 72.4632 157 73.0343 157H84.9657C85.5368 157 86 157.449 86 158.003V169.997C86 170.138 85.9703 170.272 85.9163 170.394C85.8802 170.474 85.8336 170.55 85.7781 170.617C85.6759 170.743 85.5432 170.844 85.3912 170.911C85.2617 170.968 85.1178 171 84.9657 171H73.0343C72.7447 171 72.4825 170.884 72.2952 170.699C72.1126 170.517 72 170.27 72 169.997V158.003ZM76.2439 168.718V162.397H74.1288V168.718H76.2439ZM75.1863 161.534C75.6561 161.534 76.0131 161.338 76.2101 161.037C76.2688 160.949 76.3131 160.851 76.3421 160.747C76.3694 160.651 76.3831 160.549 76.3831 160.442C76.3758 160.129 76.2592 159.854 76.0525 159.659C75.8498 159.466 75.5587 159.35 75.2 159.35C74.477 159.35 74.0041 159.822 74.0041 160.442C74.0041 161.048 74.4633 161.534 75.1726 161.534H75.1863ZM79.5284 168.719H77.4141C77.4141 168.719 77.4229 166.924 77.4253 165.239C77.4277 163.914 77.4262 162.658 77.4141 162.397H79.5284V163.293C79.5235 163.3 79.5196 163.307 79.5147 163.314H79.5284V163.293C79.6747 163.069 79.8814 162.794 80.2039 162.584C80.5007 162.39 80.8963 162.249 81.4344 162.249C82.8257 162.249 83.8688 163.153 83.8688 165.094V168.719H81.7545V165.337C81.7545 164.488 81.4481 163.908 80.6832 163.908C80.0994 163.908 79.7511 164.299 79.5984 164.676C79.542 164.811 79.5284 165 79.5284 165.189V168.719Z" fill="#7F9CAD"/>
<path fill-rule="evenodd" clip-rule="evenodd" d="M36.0298 162.413C36.0027 159.936 35.9917 158.929 36.913 157.972C37.88 156.969 38.9359 156.978 42.6336 157.009C43.3993 157.015 44.2782 157.023 45.2931 157.022C46.9301 157.025 47.0231 157.039 47.3334 157.084L47.3512 157.086C48.7695 157.29 49.846 158.298 49.9832 160.047C50.0018 160.281 50.0018 167.719 49.9838 167.948C49.8547 169.59 48.9103 170.532 47.7495 170.831C46.8801 171.056 39.1665 171.056 38.2959 170.832C35.8991 170.213 35.9566 167.864 36.0199 165.277C36.0302 164.855 36.0407 164.426 36.0407 163.998C36.0407 163.41 36.035 162.885 36.0298 162.413ZM42.5085 158.845C42.6772 158.847 42.8472 158.848 43.0179 158.848H43.0156C43.2186 158.848 43.415 158.847 43.6049 158.845C45.2512 158.834 46.4175 158.826 47.3039 159.713C48.1868 160.595 48.1805 161.742 48.1712 163.442C48.1702 163.622 48.1692 163.809 48.1692 164.001C48.1692 164.18 48.1699 164.351 48.1705 164.517C48.1751 165.759 48.1785 166.653 47.8988 167.377C47.1915 169.191 45.3939 169.175 43.5485 169.158C43.3714 169.157 43.1938 169.155 43.0167 169.155C42.8471 169.155 42.678 169.156 42.51 169.158C40.6019 169.172 38.8376 169.184 38.1353 167.377C37.8561 166.658 37.8598 165.589 37.8639 164.427C37.8644 164.286 37.8649 164.144 37.8649 164.001C37.8649 163.826 37.8642 163.656 37.8636 163.492C37.8591 162.25 37.8557 161.343 38.1353 160.626C38.8393 158.819 40.5902 158.832 42.5085 158.845ZM43.3848 159.771C43.125 159.774 42.8491 159.776 42.5562 159.777V159.775C39.1204 159.779 38.7947 159.844 38.7947 163.999C38.7947 168.107 38.9128 168.224 43.0185 168.224C43.2257 168.224 43.4293 168.226 43.6284 168.228C45.5927 168.25 47.1122 168.267 47.212 166.082C47.5008 159.732 47.0315 159.737 43.3848 159.771ZM45.1504 161.25C45.1504 160.909 45.4272 160.632 45.7686 160.632C46.11 160.632 46.3868 160.909 46.3868 161.25C46.3868 161.592 46.11 161.868 45.7686 161.868C45.4272 161.868 45.1504 161.592 45.1504 161.25ZM40.3719 164.001C40.3719 162.54 41.5565 161.355 43.0179 161.355C44.4793 161.355 45.6634 162.54 45.6634 164.001C45.6634 165.463 44.4793 166.648 43.0179 166.648C41.5565 166.648 40.3719 165.463 40.3719 164.001ZM43.0179 162.284C45.2888 162.284 45.2917 165.719 43.0179 165.719C40.7476 165.719 40.7441 162.284 43.0179 162.284Z" fill="#7F9CAD"/>
<path d="M34 164.043C34 160.153 30.866 157 27 157C23.134 157 20 160.153 20 164.043C20 167.558 22.5598 170.472 25.9062 171V166.079H24.1289V164.043H25.9062V162.491C25.9062 160.726 26.9513 159.751 28.5502 159.751C29.3161 159.751 30.1172 159.889 30.1172 159.889V161.622H29.2345C28.3649 161.622 28.0938 162.165 28.0938 162.722V164.043H30.0352L29.7248 166.079H28.0938V171C31.4402 170.472 34 167.558 34 164.043Z" fill="#7F9CAD"/>
</svg>